<svg width="26" height="32" viewBox="0 0 26 32" fill="none" xmlns="http://www.w3.org/2000/svg">
<path d="M13 0C16.4478 0 19.7544 1.40477 22.1924 3.90527C24.6304 6.40578 26 9.79719 26 13.3334C25.9453 15.8941 25.2621 18.3993 24.0136 20.6175C22.8556 22.7286 21.4373 24.678 19.7938 26.4175C17.9522 28.4105 15.9177 30.206 13.7215 31.7762C13.508 31.9221 13.2572 32 13.0006 32C12.7441 32 12.4933 31.9221 12.2798 31.7762C10.0836 30.206 8.04906 28.4105 6.2075 26.4175C4.56399 24.678 3.14572 22.7286 1.9877 20.6175C0.738753 18.3994 0.0551242 15.8942 0 13.3334C0 9.79719 1.36964 6.40578 3.80761 3.90527C6.24558 1.40477 9.55219 0 13 0Z" fill="#1A1A18"/>
<path fill-rule="evenodd" clip-rule="evenodd" d="M7 11.5C7 11.2239 7.24421 11 7.54545 11H10.8182C11.5415 11 12.2352 11.2634 12.7467 11.7322C12.8384 11.8164 12.923 11.9059 13 12C13.077 11.9059 13.1616 11.8164 13.2533 11.7322C13.7648 11.2634 14.4585 11 15.1818 11H18.4545C18.7558 11 19 11.2239 19 11.5V19C19 19.2761 18.7558 19.5 18.4545 19.5H14.6364C14.347 19.5 14.0696 19.6054 13.865 19.7929C13.6604 19.9804 13.5455 20.2348 13.5455 20.5C13.5455 20.7761 13.3012 21 13 21C12.6988 21 12.4545 20.7761 12.4545 20.5C12.4545 20.2348 12.3396 19.9804 12.135 19.7929C11.9304 19.6054 11.653 19.5 11.3636 19.5H7.54545C7.24421 19.5 7 19.2761 7 19V11.5ZM12.4545 18.7679C12.1257 18.5939 11.7499 18.5 11.3636 18.5H8.09091V12H10.8182C11.2522 12 11.6684 12.158 11.9753 12.4393C12.2821 12.7206 12.4545 13.1022 12.4545 13.5V18.7679ZM13.5455 18.7679C13.8743 18.5939 14.2501 18.5 14.6364 18.5H17.9091V12H15.1818C14.7478 12 14.3316 12.158 14.0247 12.4393C13.7179 12.7206 13.5455 13.1022 13.5455 13.5V18.7679Z" fill="#FDFDFD"/>
</svg>
