<svg width="48" height="48" viewBox="0 0 48 48" fill="none" xmlns="http://www.w3.org/2000/svg">
<g filter="url(#filter0_d_172_1723)">
<g filter="url(#filter1_d_172_1723)">
<rect x="6" y="3" width="36" height="36" rx="8" fill="#FDFDFD"/>
</g>
<path fill-rule="evenodd" clip-rule="evenodd" d="M16.6813 20.1818H19.0909C19.5428 20.1818 19.9091 20.5481 19.9091 21C19.9091 21.4519 19.5428 21.8182 19.0909 21.8182H16.6813C17.0586 25.2313 19.7687 27.9414 23.1818 28.3187V25.9091C23.1818 25.4572 23.5481 25.0909 24 25.0909C24.4519 25.0909 24.8182 25.4572 24.8182 25.9091V28.3187C28.2313 27.9414 30.9414 25.2313 31.3187 21.8182H28.9091C28.4572 21.8182 28.0909 21.4519 28.0909 21C28.0909 20.5481 28.4572 20.1818 28.9091 20.1818H31.3187C30.9414 16.7687 28.2313 14.0586 24.8182 13.6813V16.0909C24.8182 16.5428 24.4519 16.9091 24 16.9091C23.5481 16.9091 23.1818 16.5428 23.1818 16.0909V13.6813C19.7687 14.0586 17.0586 16.7687 16.6813 20.1818ZM15 21C15 16.0294 19.0294 12 24 12C28.9706 12 33 16.0294 33 21C33 25.9706 28.9706 30 24 30C19.0294 30 15 25.9706 15 21Z" fill="#CF4040"/>
</g>
<defs>
<filter id="filter0_d_172_1723" x="2" y="3" width="44" height="44" filterUnits="userSpaceOnUse" color-interpolation-filters="sRGB">
<feFlood flood-opacity="0" result="BackgroundImageFix"/>
<feColorMatrix in="SourceAlpha" type="matrix" values="0 0 0 0 0 0 0 0 0 0 0 0 0 0 0 0 0 0 127 0" result="hardAlpha"/>
<feOffset dy="4"/>
<feGaussianBlur stdDeviation="2"/>
<feComposite in2="hardAlpha" operator="out"/>
<feColorMatrix type="matrix" values="0 0 0 0 0 0 0 0 0 0 0 0 0 0 0 0 0 0 0.25 0"/>
<feBlend mode="normal" in2="BackgroundImageFix" result="effect1_dropShadow_172_1723"/>
<feBlend mode="normal" in="SourceGraphic" in2="effect1_dropShadow_172_1723" result="shape"/>
</filter>
<filter id="filter1_d_172_1723" x="0" y="0" width="48" height="48" filterUnits="userSpaceOnUse" color-interpolation-filters="sRGB">
<feFlood flood-opacity="0" result="BackgroundImageFix"/>
<feColorMatrix in="SourceAlpha" type="matrix" values="0 0 0 0 0 0 0 0 0 0 0 0 0 0 0 0 0 0 127 0" result="hardAlpha"/>
<feOffset dy="3"/>
<feGaussianBlur stdDeviation="3"/>
<feComposite in2="hardAlpha" operator="out"/>
<feColorMatrix type="matrix" values="0 0 0 0 0 0 0 0 0 0 0 0 0 0 0 0 0 0 0.1 0"/>
<feBlend mode="normal" in2="BackgroundImageFix" result="effect1_dropShadow_172_1723"/>
<feBlend mode="normal" in="SourceGraphic" in2="effect1_dropShadow_172_1723" result="shape"/>
</filter>
</defs>
</svg>
