<svg width="32" height="32" viewBox="0 0 32 32" fill="none" xmlns="http://www.w3.org/2000/svg">
<path fill-rule="evenodd" clip-rule="evenodd" d="M16 2.90909C8.77009 2.90909 2.90909 8.77009 2.90909 16C2.90909 23.2299 8.77009 29.0909 16 29.0909C23.2299 29.0909 29.0909 23.2299 29.0909 16C29.0909 8.77009 23.2299 2.90909 16 2.90909ZM0 16C0 7.16344 7.16344 0 16 0C24.8366 0 32 7.16344 32 16C32 24.8366 24.8366 32 16 32C7.16344 32 0 24.8366 0 16ZM16 8.72727C16.8033 8.72727 17.4545 9.37849 17.4545 10.1818V14.5455H21.8182C22.6215 14.5455 23.2727 15.1967 23.2727 16C23.2727 16.8033 22.6215 17.4545 21.8182 17.4545H17.4545V21.8182C17.4545 22.6215 16.8033 23.2727 16 23.2727C15.1967 23.2727 14.5455 22.6215 14.5455 21.8182V17.4545H10.1818C9.37849 17.4545 8.72727 16.8033 8.72727 16C8.72727 15.1967 9.37849 14.5455 10.1818 14.5455H14.5455V10.1818C14.5455 9.37849 15.1967 8.72727 16 8.72727Z" fill="#C8C7C8"/>
</svg>
