<svg width="14" height="14" viewBox="0 0 14 14" fill="none" xmlns="http://www.w3.org/2000/svg">
<path d="M13.366 11.102H12.0256V9.83991C12.0256 9.7705 11.9653 9.7137 11.8916 9.7137H11.0873C11.0136 9.7137 10.9533 9.7705 10.9533 9.83991V11.102H9.61291C9.53919 11.102 9.47888 11.1588 9.47888 11.2282V11.9855C9.47888 12.0549 9.53919 12.1117 9.61291 12.1117H10.9533V13.3738C10.9533 13.4432 11.0136 13.5 11.0873 13.5H11.8916C11.9653 13.5 12.0256 13.4432 12.0256 13.3738V12.1117H13.366C13.4397 12.1117 13.5 12.0549 13.5 11.9855V11.2282C13.5 11.1588 13.4397 11.102 13.366 11.102ZM4.67866 6.78563C4.66358 6.64837 4.6552 6.50954 4.6552 6.36914C4.6552 6.11829 4.68034 5.87376 4.72725 5.63554C4.73898 5.57875 4.70714 5.52037 4.65185 5.49671C4.42399 5.40047 4.21456 5.26795 4.0336 5.10073C3.82038 4.90606 3.6526 4.67168 3.54096 4.41254C3.42932 4.1534 3.37627 3.87519 3.3852 3.59567C3.40028 3.08925 3.61641 2.60808 3.99339 2.24522C4.40723 1.84608 4.96349 1.62837 5.55493 1.63468C6.0894 1.63942 6.60545 1.83346 6.99583 2.17739C7.12819 2.29413 7.24213 2.4235 7.33763 2.56233C7.37114 2.61123 7.43648 2.63174 7.49345 2.61281C7.78833 2.51658 8.09997 2.44874 8.41998 2.41718C8.51381 2.40772 8.56742 2.31306 8.52553 2.23418C7.98101 1.21977 6.8685 0.519302 5.58174 0.50037C3.72532 0.473551 2.17719 1.90761 2.17719 3.65562C2.17719 4.64637 2.6614 5.52984 3.42038 6.10883C2.88758 6.34074 2.39667 6.661 1.9711 7.06171C1.05295 7.92467 0.533551 9.06372 0.500042 10.2801C0.499595 10.2969 0.502731 10.3137 0.509267 10.3293C0.515802 10.345 0.525605 10.3593 0.538096 10.3714C0.550587 10.3834 0.565515 10.393 0.582 10.3995C0.598484 10.4061 0.616192 10.4094 0.634079 10.4094H1.57402C1.64606 10.4094 1.70638 10.3558 1.70805 10.288C1.73989 9.37293 2.13362 8.51628 2.82559 7.8663C3.31818 7.40248 3.92135 7.08064 4.57981 6.92446C4.64348 6.90711 4.68704 6.84873 4.67866 6.78563ZM12.2266 6.36914C12.2266 4.64321 10.7539 3.2407 8.92765 3.21389C7.07123 3.18707 5.52477 4.62113 5.52477 6.36914C5.52477 7.35988 6.01066 8.24335 6.76797 8.82234C6.22965 9.0573 5.7396 9.37988 5.32036 9.77523C4.40221 10.6382 3.88281 11.7772 3.8493 12.992C3.84886 13.0088 3.85199 13.0256 3.85853 13.0413C3.86506 13.057 3.87487 13.0712 3.88736 13.0833C3.89985 13.0954 3.91478 13.1049 3.93126 13.1115C3.94775 13.118 3.96545 13.1214 3.98334 13.1214H4.9216C4.99365 13.1214 5.05396 13.0677 5.05564 12.9999C5.08747 12.0849 5.48121 11.2282 6.17318 10.5782C6.8953 9.89828 7.5 9.5 8.87571 9.52439C10.7254 9.52439 12.2266 8.11241 12.2266 6.36914ZM10.392 7.79689C9.98654 8.17867 9.44872 8.3885 8.87571 8.3885C8.3027 8.3885 7.76487 8.17867 7.35941 7.79689C7.15708 7.60736 6.99721 7.38152 6.88928 7.13275C6.78136 6.88398 6.72757 6.61734 6.73111 6.34863C6.73614 5.83117 6.95562 5.33106 7.3393 4.96032C7.74142 4.57222 8.27924 4.35609 8.85393 4.34978C9.42191 4.34504 9.97314 4.55329 10.3786 4.92719C10.7941 5.31055 11.022 5.82328 11.022 6.36914C11.0203 6.90868 10.7975 7.4151 10.392 7.79689Z" fill="#202020"/>
</svg>
