<svg width="12" height="14" viewBox="0 0 12 14" fill="none" xmlns="http://www.w3.org/2000/svg">
<path d="M1.38585 12.884C1.01862 12.884 0.666441 12.7373 0.406775 12.4761C0.14711 12.2149 0.00123083 11.8606 0.00123083 11.4912L0 2.82143C0 2.45202 0.145879 2.09774 0.405545 1.83653C0.66521 1.57532 1.01739 1.42857 1.38462 1.42857L1.84431 1.42795V0.964286C1.84435 0.851905 1.88492 0.743355 1.95847 0.658773C2.03203 0.57419 2.13359 0.519317 2.24431 0.504333L2.30585 0.5C2.41738 0.500005 2.52513 0.540636 2.60919 0.61438C2.69324 0.688123 2.74791 0.789991 2.76308 0.901143L2.76738 0.964286V1.42795H4.61538V0.964286C4.61541 0.851998 4.65589 0.743524 4.72932 0.658956C4.80275 0.574387 4.90416 0.519455 5.01477 0.504333L5.07692 0.5C5.18845 0.500005 5.29621 0.540636 5.38027 0.61438C5.46432 0.688123 5.51899 0.789991 5.53415 0.901143L5.53846 0.964286V1.42795H7.38338V0.964286C7.38339 0.852091 7.42378 0.743693 7.49709 0.659138C7.57039 0.574583 7.67166 0.519592 7.78215 0.504333L7.84615 0.5C7.95768 0.500005 8.06544 0.540636 8.1495 0.61438C8.23355 0.688123 8.28822 0.789991 8.30338 0.901143L8.30769 0.964286V1.42795H8.76862C9.13584 1.42795 9.48802 1.5747 9.74769 1.83591C10.0074 2.09712 10.1532 2.4514 10.1532 2.82081V5.50005C9.87331 5.32208 9.55841 5.20719 9.23015 5.16329V2.82143C9.23015 2.69829 9.18153 2.5802 9.09497 2.49313C9.00842 2.40606 8.89102 2.35714 8.76862 2.35714H1.37846C1.25712 2.35877 1.1413 2.4084 1.05608 2.4953C0.970847 2.58219 0.923066 2.69936 0.923077 2.82143L0.923692 11.4906C0.923692 11.7475 1.13108 11.9549 1.38523 11.9549H5.39631C5.51938 12.2898 5.70708 12.6042 5.952 12.8834H1.38585V12.884ZM9.22954 5.78976C9.59077 5.85662 9.91138 6.03738 10.1526 6.29552C10.4501 6.61103 10.6158 7.02943 10.6154 7.46429C10.6161 7.89897 10.4509 8.31734 10.1538 8.63305C9.99572 8.80172 9.80496 8.93608 9.5933 9.02785C9.38164 9.11961 9.15356 9.16686 8.92308 9.16667C8.688 9.16645 8.45555 9.11696 8.24054 9.02137C8.02553 8.92578 7.83267 8.78617 7.67426 8.61144C7.51586 8.43672 7.39537 8.23072 7.32049 8.00656C7.24561 7.7824 7.21798 7.54501 7.23935 7.30952C7.26072 7.07402 7.33063 6.84559 7.44462 6.63877C7.55861 6.43196 7.71419 6.25131 7.90143 6.10833C8.08867 5.96535 8.30346 5.86318 8.53213 5.80833C8.76079 5.75348 8.99831 5.74716 9.22954 5.78976ZM6.75938 9.78571H11.0769C11.3217 9.78571 11.5565 9.88355 11.7296 10.0577C11.9027 10.2318 12 10.468 12 10.7143V11.0238C12 12.244 10.8554 13.5 8.92308 13.5C8.07446 13.5 7.37846 13.2586 6.864 12.884C6.52776 12.6438 6.25467 12.3249 6.06831 11.9549C5.92392 11.6659 5.84789 11.3472 5.84615 11.0238V10.7143C5.84614 10.4695 5.94221 10.2346 6.11346 10.0607C6.28472 9.88684 6.5173 9.788 6.76062 9.78571H6.75938ZM2.30646 6.69048H6.74585C6.64137 6.98813 6.59845 7.30411 6.61969 7.61905H2.30646C2.18952 7.61901 2.07696 7.57432 1.99151 7.49402C1.90607 7.41371 1.85411 7.30377 1.84614 7.18641C1.83817 7.06905 1.87478 6.95302 1.94857 6.86177C2.02237 6.77052 2.12785 6.71084 2.24369 6.69481L2.30646 6.69048ZM2.30646 9.16667H4.76738C4.88432 9.1667 4.99689 9.21139 5.08233 9.2917C5.16778 9.37201 5.21974 9.48195 5.22771 9.59931C5.23568 9.71667 5.19907 9.8327 5.12527 9.92395C5.05148 10.0152 4.946 10.0749 4.83015 10.0909L4.76738 10.0952H2.30646C2.18952 10.0952 2.07696 10.0505 1.99151 9.97021C1.90607 9.8899 1.85411 9.77996 1.84614 9.6626C1.83817 9.54524 1.87478 9.42921 1.94857 9.33796C2.02237 9.24671 2.12785 9.18703 2.24369 9.171L2.30646 9.16667ZM2.30646 4.21429H7.84492C7.96181 4.21448 8.07427 4.25927 8.1596 4.33963C8.24493 4.41999 8.29677 4.52992 8.30466 4.64723C8.31255 4.76455 8.27589 4.8805 8.2021 4.97169C8.12831 5.06287 8.02287 5.1225 7.90708 5.13852L7.84492 5.14286H2.30646C2.18952 5.14282 2.07696 5.09813 1.99151 5.01783C1.90607 4.93752 1.85411 4.82758 1.84614 4.71022C1.83817 4.59286 1.87478 4.47683 1.94857 4.38558C2.02237 4.29433 2.12785 4.23465 2.24369 4.21862L2.30646 4.21429Z" fill="#202020"/>
</svg>
