<svg width="12" height="12" viewBox="0 0 12 12" fill="none" xmlns="http://www.w3.org/2000/svg">
<path d="M8.16 5.07692C8.16 5.35077 8.07555 5.61848 7.91732 5.84617C7.75909 6.07387 7.53419 6.25134 7.27106 6.35614C7.00794 6.46094 6.7184 6.48836 6.43907 6.43493C6.15974 6.38151 5.90315 6.24964 5.70177 6.05599C5.50038 5.86235 5.36323 5.61564 5.30767 5.34705C5.25211 5.07846 5.28062 4.80006 5.38961 4.54705C5.4986 4.29405 5.68317 4.0778 5.91998 3.92566C6.15679 3.77351 6.43519 3.69231 6.72 3.69231C7.10178 3.69272 7.4678 3.83873 7.73776 4.09831C8.00772 4.35788 8.15957 4.70983 8.16 5.07692ZM12 0.923077V11.0769C11.9997 11.3217 11.8985 11.5563 11.7185 11.7293C11.5385 11.9024 11.2945 11.9997 11.04 12H2.4C2.14548 11.9997 1.90147 11.9024 1.72149 11.7293C1.54152 11.5563 1.44029 11.3217 1.44 11.0769V9.92308H0.48C0.352696 9.92308 0.230606 9.87445 0.140589 9.7879C0.0505713 9.70134 0 9.58395 0 9.46154C0 9.33913 0.0505713 9.22174 0.140589 9.13518C0.230606 9.04863 0.352696 9 0.48 9H1.44V7.61538H0.48C0.352696 7.61538 0.230606 7.56676 0.140589 7.4802C0.0505713 7.39365 0 7.27625 0 7.15385C0 7.03144 0.0505713 6.91404 0.140589 6.82749C0.230606 6.74093 0.352696 6.69231 0.48 6.69231H1.44V5.30769H0.48C0.352696 5.30769 0.230606 5.25907 0.140589 5.17251C0.0505713 5.08596 0 4.96856 0 4.84615C0 4.72375 0.0505713 4.60635 0.140589 4.5198C0.230606 4.43324 0.352696 4.38462 0.48 4.38462H1.44V3H0.48C0.352696 3 0.230606 2.95137 0.140589 2.86482C0.0505713 2.77826 0 2.66087 0 2.53846C0 2.41605 0.0505713 2.29866 0.140589 2.2121C0.230606 2.12555 0.352696 2.07692 0.48 2.07692H1.44V0.923077C1.44029 0.678346 1.54152 0.443717 1.72149 0.270667C1.90147 0.0976156 2.14548 0.000274859 2.4 0H11.04C11.2945 0.000274859 11.5385 0.0976156 11.7185 0.270667C11.8985 0.443717 11.9997 0.678346 12 0.923077ZM9.98382 8.03025C9.55843 7.48219 8.99105 7.05093 8.33826 6.77948C8.69566 6.46571 8.94605 6.05537 9.05657 5.60232C9.1671 5.14927 9.1326 4.67468 8.95759 4.24082C8.78259 3.80696 8.47526 3.43411 8.07594 3.1712C7.67662 2.90829 7.20396 2.7676 6.72 2.7676C6.23604 2.7676 5.76338 2.90829 5.36406 3.1712C4.96474 3.43411 4.65741 3.80696 4.48241 4.24082C4.3074 4.67468 4.2729 5.14927 4.38343 5.60232C4.49395 6.05537 4.74434 6.46571 5.10174 6.77948C4.4489 7.05096 3.88148 7.48225 3.45606 8.03037C3.4182 8.07883 3.39064 8.13398 3.37495 8.19269C3.35926 8.25139 3.35574 8.31249 3.36461 8.3725C3.38252 8.4937 3.44976 8.60308 3.55155 8.67661C3.65334 8.75013 3.78133 8.78176 3.90737 8.76454C4.03341 8.74732 4.14718 8.68266 4.22364 8.58479C4.5143 8.21217 4.8912 7.90973 5.32448 7.70142C5.75775 7.49312 6.23552 7.38467 6.71994 7.38465C7.20436 7.38464 7.68213 7.49307 8.11542 7.70136C8.54871 7.90964 8.92562 8.21206 9.2163 8.58467C9.25398 8.63361 9.30135 8.67489 9.35568 8.70614C9.41002 8.73739 9.47026 8.758 9.53291 8.76677C9.59557 8.77555 9.65942 8.77232 9.72077 8.75726C9.78212 8.74221 9.83977 8.71563 9.89039 8.67906C9.94102 8.64249 9.98362 8.59666 10.0157 8.54419C10.0479 8.49172 10.0689 8.43366 10.0775 8.37335C10.0862 8.31305 10.0824 8.25168 10.0663 8.1928C10.0503 8.13391 10.0222 8.07867 9.98382 8.03025Z" fill="#202020"/>
</svg>
