<svg width="14" height="14" viewBox="0 0 14 14" fill="none" xmlns="http://www.w3.org/2000/svg">
<path d="M5.08943 9.56482C5.06045 9.60188 5.02416 9.63309 4.98263 9.65667C4.9411 9.68025 4.89514 9.69574 4.84738 9.70226C4.79962 9.70878 4.75099 9.70619 4.70427 9.69465C4.65755 9.68311 4.61365 9.66284 4.57508 9.635C4.53651 9.60716 4.50403 9.57229 4.47949 9.53239C4.45494 9.49249 4.43882 9.44833 4.43204 9.40245C4.42525 9.35656 4.42795 9.30984 4.43996 9.26495C4.45197 9.22006 4.47306 9.17788 4.50204 9.14082C4.94646 8.56859 5.54685 8.12633 6.23609 7.86239C6.21311 7.84474 6.1905 7.8267 6.16827 7.8083M5.08943 9.56482L9.2203 7.77733C9.5703 7.49832 9.82806 7.12636 9.96069 6.70707C10.1021 6.26008 10.0942 5.78175 9.93801 5.33931C9.78187 4.89687 9.48537 4.51255 9.09017 4.24036C8.69498 3.96817 8.22095 3.8218 7.73469 3.8218C7.24844 3.8218 6.77441 3.96817 6.37921 4.24036C5.98402 4.51255 5.68751 4.89687 5.53137 5.33931C5.37523 5.78175 5.3673 6.26008 5.50869 6.70707C5.64132 7.12636 5.89909 7.49831 6.24909 7.77733C6.22202 7.78738 6.19507 7.79771 6.16827 7.8083M5.08943 9.56482C5.39742 9.17029 5.79679 8.85006 6.25591 8.6295M5.08943 9.56482L6.25591 8.6295M6.16827 7.8083C5.8242 7.52348 5.57007 7.14977 5.43719 6.72969C5.29088 6.26716 5.29909 5.77214 5.46065 5.31435C5.62219 4.85661 5.92875 4.45955 6.33667 4.1786C6.74456 3.89767 7.23347 3.7468 7.73469 3.7468C8.23592 3.7468 8.72483 3.89767 9.13272 4.1786C9.54064 4.45955 9.8472 4.85661 10.0087 5.31435C10.1703 5.77214 10.1785 6.26716 10.0322 6.72969C9.89932 7.14977 9.64519 7.52348 9.30112 7.8083M6.16827 7.8083C5.48377 8.07869 4.88711 8.52282 4.44296 9.09462L9.30112 7.8083M9.30112 7.8083C9.98566 8.07872 10.5823 8.52286 11.0265 9.09476L11.0268 9.09517C11.0964 9.18603 11.1261 9.30017 11.1089 9.41266C11.0917 9.5251 11.0291 9.62564 10.9359 9.69293C10.8427 9.76014 10.7263 9.78904 10.6117 9.77396C10.4971 9.75887 10.3925 9.70085 10.3212 9.61149L10.3207 9.61086C10.0199 9.22561 9.62974 8.91266 9.18083 8.69704C8.73192 8.48141 8.23676 8.36909 7.7346 8.3691C7.23244 8.36911 6.73729 8.48145 6.28839 8.6971C5.83949 8.91275 5.4493 9.22571 5.14855 9.61098L5.14851 9.61102C5.1134 9.65592 5.06958 9.69355 5.01966 9.72189C4.96975 9.75023 4.91465 9.76878 4.85752 9.77657C4.80039 9.78437 4.74222 9.78128 4.68628 9.76746C4.63035 9.75364 4.57764 9.72934 4.53119 9.69581C4.48473 9.66228 4.44541 9.62014 4.4156 9.57169C4.38579 9.52322 4.36612 9.46945 4.35784 9.41341C4.34956 9.35737 4.35285 9.30032 4.36751 9.24556C4.38215 9.19084 4.40781 9.1396 4.44288 9.09472L9.30112 7.8083ZM6.25591 8.6295C6.71503 8.40894 7.22129 8.29411 7.7346 8.2941M6.25591 8.6295L7.7346 8.2941M7.7346 8.2941C8.24791 8.29409 8.75418 8.4089 9.21331 8.62943M7.7346 8.2941L9.21331 8.62943M9.21331 8.62943C9.67244 8.84997 10.0718 9.17018 10.3798 9.56471L9.21331 8.62943ZM12.1429 0.925H12.1429L3.32653 0.925L3.32645 0.925C3.08028 0.92527 2.84371 1.01932 2.66876 1.1874C2.49372 1.35558 2.39467 1.58425 2.39439 1.82344V1.82353V3.04265H1.36735C1.25098 3.04265 1.1388 3.08703 1.05563 3.16694C0.972364 3.24694 0.925 3.3561 0.925 3.47059C0.925 3.58508 0.972364 3.69424 1.05563 3.77424C1.1388 3.85414 1.25098 3.89853 1.36735 3.89853H2.39439V5.39559H1.36735C1.25098 5.39559 1.1388 5.43998 1.05563 5.51988C0.972364 5.59988 0.925 5.70904 0.925 5.82353C0.925 5.93802 0.972364 6.04718 1.05563 6.12718C1.1388 6.20708 1.25098 6.25147 1.36735 6.25147H2.39439V7.74853H1.36735C1.25098 7.74853 1.1388 7.79292 1.05563 7.87282C0.972364 7.95282 0.925 8.06198 0.925 8.17647C0.925 8.29096 0.972364 8.40012 1.05563 8.48012C1.1388 8.56002 1.25098 8.60441 1.36735 8.60441H2.39439V10.1015H1.36735C1.25098 10.1015 1.1388 10.1459 1.05563 10.2258C0.972364 10.3058 0.925 10.4149 0.925 10.5294C0.925 10.6439 0.972364 10.7531 1.05563 10.8331C1.1388 10.913 1.25098 10.9574 1.36735 10.9574H2.39439V12.1765L2.39439 12.1766C2.39467 12.4157 2.49372 12.6444 2.66876 12.8126C2.84371 12.9807 3.08028 13.0747 3.32645 13.075H3.32653H12.1429H12.1429C12.3891 13.0747 12.6257 12.9807 12.8006 12.8126C12.9757 12.6444 13.0747 12.4157 13.075 12.1766V12.1765V1.82353V1.82344C13.0747 1.58425 12.9757 1.35558 12.8006 1.1874C12.6257 1.01932 12.3891 0.92527 12.1429 0.925ZM6.21786 6.05873C6.21788 5.77179 6.30643 5.49104 6.4727 5.25195C6.63902 5.0128 6.87574 4.82596 7.15326 4.71552C7.43079 4.60506 7.73635 4.57612 8.03117 4.63247C8.32597 4.68881 8.59638 4.82781 8.80833 5.03145C9.02025 5.23506 9.16421 5.49411 9.2225 5.77565C9.28078 6.05718 9.2509 6.34902 9.13649 6.61441C9.02206 6.87984 8.82806 7.10719 8.57855 7.26737C8.32904 7.42755 8.0354 7.51322 7.73478 7.51324C7.33166 7.51279 6.94576 7.35871 6.66159 7.08568C6.37753 6.81276 6.21832 6.44337 6.21786 6.05873ZM12.1903 12.1764C12.1903 12.1867 12.186 12.1973 12.1774 12.2055C12.1687 12.2139 12.1563 12.2191 12.1428 12.2191H3.3266C3.31306 12.2191 3.30064 12.2139 3.29194 12.2055C3.28334 12.1973 3.27909 12.1867 3.27908 12.1764V1.82361C3.27909 1.81327 3.28334 1.80272 3.29194 1.79446C3.30064 1.7861 3.31306 1.7809 3.3266 1.78088H12.1428C12.1563 1.7809 12.1687 1.7861 12.1774 1.79446C12.186 1.80272 12.1903 1.81327 12.1903 1.82361V12.1764Z" fill="#202020" stroke="#202020" stroke-width="0.15"/>
</svg>
