<svg width="12" height="12" viewBox="0 0 12 12" fill="none" xmlns="http://www.w3.org/2000/svg">
<path d="M4.9176 6.21217L4.16667 5.09508L2.7 7.2769H9.3L6.73333 3.64054L4.9176 6.21217Z" fill="#202020"/>
<path d="M3.8022 4.368C4.41093 4.368 4.9044 3.87861 4.9044 3.27491C4.9044 2.67121 4.41093 2.18182 3.8022 2.18182C3.19347 2.18182 2.7 2.67121 2.7 3.27491C2.7 3.87861 3.19347 4.368 3.8022 4.368Z" fill="#202020"/>
<path fill-rule="evenodd" clip-rule="evenodd" d="M2.15 9.81818C1.84624 9.81818 1.6 10.0624 1.6 10.3636C1.6 10.6649 1.84624 10.9091 2.15 10.9091H11.5V12H2.15C1.23873 12 0.5 11.2674 0.5 10.3636V1.09091C0.5 0.488417 0.992487 0 1.6 0H10.4C11.0075 0 11.5 0.488417 11.5 1.09091V9.81818H2.15ZM1.6 1.09091H10.4V8.72727H1.6V1.09091Z" fill="#202020"/>
</svg>
