<svg width="10" height="12" viewBox="0 0 10 12" fill="none" xmlns="http://www.w3.org/2000/svg">
<path d="M2.01083 3.94201C1.9348 4.01383 1.89209 4.11124 1.89209 4.21281C1.89209 4.31438 1.9348 4.4118 2.01083 4.48362C2.08686 4.55544 2.18998 4.59579 2.2975 4.59579H7.7029C7.81042 4.59579 7.91354 4.55544 7.98956 4.48362C8.06559 4.4118 8.1083 4.31438 8.1083 4.21281C8.1083 4.11124 8.06559 4.01383 7.98956 3.94201C7.91354 3.87018 7.81042 3.82983 7.7029 3.82983H2.2975C2.18998 3.82983 2.08686 3.87018 2.01083 3.94201Z" fill="#202020"/>
<path d="M2.01083 6.23986C1.9348 6.31168 1.89209 6.40909 1.89209 6.51066C1.89209 6.61224 1.9348 6.70965 2.01083 6.78147C2.08686 6.85329 2.18998 6.89364 2.2975 6.89364H7.7029C7.81042 6.89364 7.91354 6.85329 7.98956 6.78147C8.06559 6.70965 8.1083 6.61224 8.1083 6.51066C8.1083 6.40909 8.06559 6.31168 7.98956 6.23986C7.91354 6.16804 7.81042 6.12769 7.7029 6.12769H2.2975C2.18998 6.12769 2.08686 6.16804 2.01083 6.23986Z" fill="#202020"/>
<path d="M2.2975 8.42554C2.18998 8.42554 2.08686 8.46589 2.01083 8.53771C1.9348 8.60953 1.89209 8.70694 1.89209 8.80852C1.89209 8.91009 1.9348 9.0075 2.01083 9.07932C2.08686 9.15114 2.18998 9.19149 2.2975 9.19149H4.72993C4.83745 9.19149 4.94056 9.15114 5.01659 9.07932C5.09262 9.0075 5.13533 8.91009 5.13533 8.80852C5.13533 8.70694 5.09262 8.60953 5.01659 8.53771C4.94056 8.46589 4.83745 8.42554 4.72993 8.42554H2.2975Z" fill="#202020"/>
<path fill-rule="evenodd" clip-rule="evenodd" d="M5.4218 0.112172C5.34577 0.0403494 5.24266 0 5.13513 0C5.02761 0 4.9245 0.0403494 4.84847 0.112172C4.77244 0.183994 4.72973 0.281406 4.72973 0.382979V1.02128H2.7027V0.382979C2.7027 0.281406 2.65999 0.183994 2.58396 0.112172C2.50793 0.0403494 2.40482 0 2.2973 0C2.18978 0 2.08666 0.0403494 2.01063 0.112172C1.9346 0.183994 1.89189 0.281406 1.89189 0.382979V1.02128H1.21622C0.893656 1.02128 0.584306 1.14232 0.356222 1.35779C0.128137 1.57326 0 1.8655 0 2.17021V10.8511C0 11.1558 0.128137 11.448 0.356222 11.6635C0.584306 11.879 0.893656 12 1.21622 12H6.61946C6.72694 11.9999 6.82999 11.9595 6.90595 11.8877L9.88108 9.07711C9.95713 9.00535 9.9999 8.90801 10 8.80647V2.17021C10 1.8655 9.87186 1.57326 9.64378 1.35779C9.41569 1.14232 9.10634 1.02128 8.78378 1.02128H8.37838V0.382979C8.37838 0.281406 8.33567 0.183994 8.25964 0.112172C8.18361 0.0403494 8.08049 0 7.97297 0C7.86545 0 7.76234 0.0403494 7.68631 0.112172C7.61028 0.183994 7.56757 0.281406 7.56757 0.382979V1.02128H5.54054V0.382979C5.54054 0.281406 5.49783 0.183994 5.4218 0.112172ZM0.810811 10.8511V2.17021C0.810811 2.06864 0.853523 1.97123 0.929551 1.89941C1.00558 1.82758 1.1087 1.78723 1.21622 1.78723H8.78378C8.8913 1.78723 8.99442 1.82758 9.07045 1.89941C9.14648 1.97123 9.18919 2.06864 9.18919 2.17021V8.42349H7.43027C7.10771 8.42349 6.79836 8.54454 6.57028 8.76C6.34219 8.97547 6.21405 9.26771 6.21405 9.57243V11.234H1.21622C0.992432 11.234 0.810811 11.0625 0.810811 10.8511ZM7.1436 9.30162C7.21963 9.2298 7.32275 9.18945 7.43027 9.18945H8.61567L7.02486 10.6923V9.57243C7.02486 9.47085 7.06758 9.37344 7.1436 9.30162Z" fill="#202020"/>
</svg>
