<svg width="10" height="12" viewBox="0 0 10 12" fill="none" xmlns="http://www.w3.org/2000/svg">
<path d="M3 1.5C3 1.22386 3.22386 1 3.5 1H9.5C9.77614 1 10 1.22386 10 1.5C10 1.77614 9.77614 2 9.5 2H3.5C3.22386 2 3 1.77614 3 1.5Z" fill="#202020"/>
<path d="M3 4.5C3 4.22386 3.22386 4 3.5 4H7.5C7.77614 4 8 4.22386 8 4.5C8 4.77614 7.77614 5 7.5 5H3.5C3.22386 5 3 4.77614 3 4.5Z" fill="#202020"/>
<path d="M3 7.5C3 7.22386 3.22386 7 3.5 7H9.5C9.77614 7 10 7.22386 10 7.5C10 7.77614 9.77614 8 9.5 8H3.5C3.22386 8 3 7.77614 3 7.5Z" fill="#202020"/>
<path d="M3 10.5C3 10.2239 3.22386 10 3.5 10H7.5C7.77614 10 8 10.2239 8 10.5C8 10.7761 7.77614 11 7.5 11H3.5C3.22386 11 3 10.7761 3 10.5Z" fill="#202020"/>
<path d="M0 0.5C0 0.223858 0.223858 0 0.5 0C0.776142 0 1 0.223858 1 0.5V11.5C1 11.7761 0.776142 12 0.5 12C0.223858 12 0 11.7761 0 11.5V0.5Z" fill="#202020"/>
</svg>
