<svg width="8" height="14" viewBox="0 0 8 14" fill="none" xmlns="http://www.w3.org/2000/svg">
<path d="M7.1701 1.08093L7.17016 1.08087L7.16722 1.07815C6.9127 0.842112 6.5161 0.838196 6.27449 1.08093L0.829899 6.55077L0.829842 6.55071L0.827136 6.55366C0.592432 6.8091 0.588555 7.20676 0.829899 7.44923L6.27449 12.9191L6.27443 12.9191L6.27736 12.9219C6.53189 13.1579 6.92849 13.1618 7.1701 12.9191L7.17016 12.9191L7.17286 12.9162C7.40757 12.6607 7.41144 12.2631 7.1701 12.0206L7.16998 12.0205L2.16441 7.0083L7.1701 1.97938L7.17016 1.97944L7.17286 1.97649C7.40757 1.72105 7.41144 1.32339 7.1701 1.08093Z" fill="#202020" stroke="#202020" stroke-width="0.2"/>
</svg>
