<svg width="10" height="6" viewBox="0 0 10 6" fill="none" xmlns="http://www.w3.org/2000/svg">
<path d="M4.99216 5.74814C4.82555 5.7485 4.6641 5.6846 4.53581 5.56752L0.257587 1.64098C0.111972 1.50768 0.0204009 1.31614 0.00301722 1.10848C-0.0143664 0.900824 0.0438616 0.694067 0.164892 0.533694C0.285922 0.373321 0.45984 0.272469 0.648386 0.253323C0.836931 0.234177 1.02466 0.298307 1.17027 0.431604L4.99216 3.94979L8.81404 0.557254C8.88697 0.492022 8.9709 0.443307 9.06098 0.413912C9.15107 0.384517 9.24554 0.375019 9.33896 0.385966C9.43239 0.396912 9.52294 0.428087 9.60539 0.477698C9.68784 0.527308 9.76058 0.594378 9.81942 0.67505C9.88472 0.755796 9.93418 0.850525 9.96469 0.953301C9.9952 1.05608 10.0061 1.16469 9.99674 1.27232C9.98737 1.37996 9.95792 1.48431 9.91023 1.57882C9.86254 1.67334 9.79764 1.75599 9.7196 1.8216L5.44137 5.61464C5.3094 5.71321 5.15124 5.76021 4.99216 5.74814V5.74814Z" fill="#202020"/>
</svg>
