<svg width="10" height="6" viewBox="0 0 10 6" fill="none" xmlns="http://www.w3.org/2000/svg">
<path d="M9.28474 5.75C9.11791 5.75036 8.95623 5.68649 8.82777 5.56948L5.0007 2.05324L1.16649 5.4439C1.09346 5.50909 1.00942 5.55778 0.919213 5.58716C0.829006 5.61654 0.734407 5.62603 0.640852 5.61509C0.547297 5.60415 0.456631 5.57299 0.374066 5.52341C0.291501 5.47383 0.218664 5.40679 0.159742 5.32617C0.100432 5.24588 0.0561417 5.15351 0.0294153 5.05435C0.00268879 4.95519 -0.00594628 4.8512 0.00400639 4.74836C0.0139591 4.64551 0.0423031 4.54585 0.0874096 4.45509C0.132516 4.36433 0.193496 4.28426 0.266843 4.21949L4.55088 0.42855C4.67864 0.313109 4.83889 0.25 5.00427 0.25C5.16965 0.25 5.32991 0.313109 5.45767 0.42855L9.7417 4.35292C9.814 4.41881 9.87376 4.49973 9.91757 4.59105C9.96137 4.68237 9.98836 4.78229 9.99698 4.88509C10.0056 4.98789 9.99569 5.09155 9.96782 5.19013C9.93994 5.28872 9.89464 5.38028 9.83452 5.45959C9.76808 5.54963 9.68432 5.62237 9.58926 5.67258C9.4942 5.72279 9.3902 5.74923 9.28474 5.75Z" fill="#202020"/>
</svg>
