<svg width="8" height="14" viewBox="0 0 8 14" fill="none" xmlns="http://www.w3.org/2000/svg">
<path d="M0.829899 12.9191L0.829842 12.9191L0.832776 12.9219C1.0873 13.1579 1.4839 13.1618 1.72551 12.9191L7.1701 7.44923L7.17016 7.44928L7.17286 7.44634C7.40757 7.1909 7.41144 6.79323 7.1701 6.55077L1.72551 1.08093L1.72557 1.08087L1.72264 1.07815C1.46811 0.842113 1.07151 0.838197 0.829899 1.08093L0.829842 1.08087L0.827136 1.08381C0.592432 1.33926 0.588555 1.73692 0.829899 1.97938L0.830015 1.9795L5.83559 6.9917L0.829899 12.0206L0.829842 12.0206L0.827137 12.0235C0.592433 12.2789 0.588555 12.6766 0.829899 12.9191Z" fill="#202020" stroke="#202020" stroke-width="0.2"/>
</svg>
