<svg width="10" height="12" viewBox="0 0 10 12" fill="none" xmlns="http://www.w3.org/2000/svg">
<path d="M6.22179 3.36896L6.22179 3.36897L1.62186 8.00115C1.11033 8.51626 1.11033 9.35469 1.62186 9.8698C1.8697 10.1194 2.19888 10.2566 2.54919 10.2566C2.8995 10.2566 3.2287 10.1194 3.47652 9.8698L8.18441 5.1289C8.55655 4.75416 8.76144 4.2561 8.76144 3.72597C8.76144 3.19585 8.55655 2.69779 8.18441 2.32305C7.41646 1.54971 6.16698 1.54973 5.39905 2.32305L1.90758 5.83897L1.90758 5.83897L1.8721 5.80374L6.22179 3.36896ZM6.22179 3.36896C6.3453 3.24456 6.50922 3.17623 6.68376 3.17623C6.85828 3.17623 7.02219 3.24456 7.14572 3.36897C7.40065 3.62568 7.40065 4.04366 7.14572 4.30037L3.76222 7.70763C3.60841 7.86252 3.60841 8.11348 3.76222 8.26837C3.91622 8.42345 4.16606 8.42346 4.32004 8.26837M6.22179 3.36896L4.32004 8.26837M4.32004 8.26837L4.32004 8.26837L4.28456 8.23314L4.32004 8.26837Z" fill="#202020" stroke="#202020" stroke-width="0.1"/>
</svg>
