<svg width="12" height="14" viewBox="0 0 12 14" fill="none" xmlns="http://www.w3.org/2000/svg">
<path d="M5.99999 6.6C6.58573 6.6 7.15831 6.43578 7.64533 6.12812C8.13235 5.82045 8.51194 5.38315 8.73609 4.87151C8.96024 4.35988 9.01889 3.7969 8.90462 3.25375C8.79035 2.7106 8.50829 2.21169 8.09411 1.8201C7.67993 1.42852 7.15224 1.16184 6.57776 1.0538C6.00328 0.945764 5.40781 1.00121 4.86666 1.21314C4.32551 1.42506 3.86298 1.78395 3.53757 2.2444C3.21215 2.70486 3.03846 3.24621 3.03846 3.8C3.03846 4.54261 3.35048 5.2548 3.90587 5.7799C4.46127 6.305 5.21454 6.6 5.99999 6.6ZM5.99999 1.8C6.41837 1.8 6.82736 1.9173 7.17523 2.13706C7.52311 2.35682 7.79424 2.66918 7.95435 3.03463C8.11446 3.40009 8.15635 3.80222 8.07473 4.19018C7.9931 4.57814 7.79163 4.93451 7.49579 5.21421C7.19995 5.49392 6.82302 5.6844 6.41268 5.76157C6.00234 5.83874 5.577 5.79914 5.19047 5.64776C4.80393 5.49638 4.47356 5.24004 4.24112 4.91114C4.00868 4.58224 3.88461 4.19556 3.88461 3.8C3.88461 3.26957 4.10748 2.76086 4.50419 2.38579C4.9009 2.01071 5.43896 1.8 5.99999 1.8Z" fill="#202020"/>
<path d="M11.2757 9.548C10.5973 8.87001 9.77966 8.32996 8.87291 7.96088C7.96616 7.5918 6.98932 7.40145 6.00211 7.40145C5.01489 7.40145 4.03806 7.5918 3.13131 7.96088C2.22456 8.32996 1.40695 8.87001 0.728462 9.548C0.581364 9.69655 0.499667 9.89251 0.500001 10.096V12.2C0.500001 12.4122 0.589149 12.6157 0.747833 12.7657C0.906518 12.9157 1.12174 13 1.34615 13H10.6538C10.8782 13 11.0935 12.9157 11.2521 12.7657C11.4108 12.6157 11.5 12.4122 11.5 12.2V10.096C11.5015 9.89306 11.4213 9.69716 11.2757 9.548ZM10.6538 12.2H1.34615V10.092C1.94575 9.49507 2.66754 9.01973 3.46761 8.69492C4.26767 8.3701 5.12928 8.20259 5.99999 8.20259C6.8707 8.20259 7.73231 8.3701 8.53237 8.69492C9.33244 9.01973 10.0542 9.49507 10.6538 10.092V12.2Z" fill="#202020"/>
<path d="M5.99999 6.6C6.58573 6.6 7.15831 6.43578 7.64533 6.12812C8.13235 5.82045 8.51194 5.38315 8.73609 4.87151C8.96024 4.35988 9.01889 3.7969 8.90462 3.25375C8.79035 2.7106 8.50829 2.21169 8.09411 1.8201C7.67993 1.42852 7.15224 1.16184 6.57776 1.0538C6.00328 0.945764 5.40781 1.00121 4.86666 1.21314C4.32551 1.42506 3.86298 1.78395 3.53757 2.2444C3.21215 2.70486 3.03846 3.24621 3.03846 3.8C3.03846 4.54261 3.35048 5.2548 3.90587 5.7799C4.46127 6.305 5.21454 6.6 5.99999 6.6ZM5.99999 1.8C6.41837 1.8 6.82736 1.9173 7.17523 2.13706C7.52311 2.35682 7.79424 2.66918 7.95435 3.03463C8.11446 3.40009 8.15635 3.80222 8.07473 4.19018C7.9931 4.57814 7.79163 4.93451 7.49579 5.21421C7.19995 5.49392 6.82302 5.6844 6.41268 5.76157C6.00234 5.83874 5.577 5.79914 5.19047 5.64776C4.80393 5.49638 4.47356 5.24004 4.24112 4.91114C4.00868 4.58224 3.88461 4.19556 3.88461 3.8C3.88461 3.26957 4.10748 2.76086 4.50419 2.38579C4.9009 2.01071 5.43896 1.8 5.99999 1.8Z" stroke="#202020" stroke-width="0.2"/>
<path d="M11.2757 9.548C10.5973 8.87001 9.77966 8.32996 8.87291 7.96088C7.96616 7.5918 6.98932 7.40145 6.00211 7.40145C5.01489 7.40145 4.03806 7.5918 3.13131 7.96088C2.22456 8.32996 1.40695 8.87001 0.728462 9.548C0.581364 9.69655 0.499667 9.89251 0.500001 10.096V12.2C0.500001 12.4122 0.589149 12.6157 0.747833 12.7657C0.906518 12.9157 1.12174 13 1.34615 13H10.6538C10.8782 13 11.0935 12.9157 11.2521 12.7657C11.4108 12.6157 11.5 12.4122 11.5 12.2V10.096C11.5015 9.89306 11.4213 9.69716 11.2757 9.548ZM10.6538 12.2H1.34615V10.092C1.94575 9.49507 2.66754 9.01973 3.46761 8.69492C4.26767 8.3701 5.12928 8.20259 5.99999 8.20259C6.8707 8.20259 7.73231 8.3701 8.53237 8.69492C9.33244 9.01973 10.0542 9.49507 10.6538 10.092V12.2Z" stroke="#202020" stroke-width="0.2"/>
</svg>
