<svg width="12" height="12" viewBox="0 0 12 12" fill="none" xmlns="http://www.w3.org/2000/svg">
<path d="M8.96173 2.79996C8.96173 4.34634 7.63581 5.59993 6.00019 5.59993C4.36458 5.59993 3.03865 4.34634 3.03865 2.79996C3.03865 1.25359 4.36458 0 6.00019 0C7.63581 0 8.96173 1.25359 8.96173 2.79996Z" fill="#202020"/>
<path d="M8.91201 6.9758C9.8302 7.35591 10.6552 7.91166 11.335 8.60804C11.4381 8.71571 11.4966 8.85487 11.5 9.00004V11.4C11.5 11.5591 11.4331 11.7117 11.3141 11.8243C11.1951 11.9368 11.0337 12 10.8654 12H1.13462C0.967761 12 0.807613 11.9379 0.68884 11.8271C0.570067 11.7163 0.502225 11.5657 0.5 11.408V9.00804C0.501329 8.8601 0.560042 8.71777 0.665 8.60804C1.34482 7.91166 2.1698 7.35591 3.08799 6.9758C4.00617 6.59569 4.99765 6.39945 6 6.39945C7.00235 6.39945 7.99383 6.59569 8.91201 6.9758Z" fill="#202020"/>
</svg>
