<svg width="14" height="14" viewBox="0 0 14 14" fill="none" xmlns="http://www.w3.org/2000/svg">
<path d="M1.11413 7.39786L1.11408 7.39781C1.06065 7.34406 1.0202 7.28213 0.992837 7.21601L1.11413 7.39786ZM1.11413 7.39786L1.11522 7.39895L1.11528 7.39901L6.60099 12.8847C6.82136 13.1051 7.17864 13.1051 7.39901 12.8847C7.61938 12.6644 7.61938 12.3071 7.39901 12.0867L2.87659 7.56429H7H12.4857C12.7974 7.56429 13.05 7.31165 13.05 7C13.05 6.68835 12.7974 6.43571 12.4857 6.43571H7H2.87659L7.39901 1.9133C7.61938 1.69293 7.61938 1.33564 7.39901 1.11528C7.17864 0.894908 6.82136 0.894908 6.60099 1.11528L1.11528 6.60099C1.06125 6.65502 1.0204 6.71738 0.992837 6.78399C0.992832 6.784 0.992827 6.78401 0.992822 6.78402L1.03902 6.80314L1.11413 7.39786Z" fill="#202020" stroke="#202020" stroke-width="0.1" stroke-linecap="round"/>
</svg>
