<svg width="14" height="10" viewBox="0 0 14 10" fill="none" xmlns="http://www.w3.org/2000/svg">
<path d="M4.30008 2.87487H3.2V7.12487H4.30008V2.87487Z" fill="#202020"/>
<path d="M5.65008 2.87487H5V7.12487H5.65008V2.87487Z" fill="#202020"/>
<path d="M11.0501 2.87487H10.3751V7.12487H11.0501V2.87487Z" fill="#202020"/>
<path d="M9.70008 2.87487H7.9V7.12487H9.70008V2.87487Z" fill="#202020"/>
<path d="M7.00008 2.87487H6.5V7.12487H7.00008V2.87487Z" fill="#202020"/>
<path fill-rule="evenodd" clip-rule="evenodd" d="M1.6 0.75H12.4C12.758 0.75 13.1014 0.861942 13.3546 1.0612C13.6078 1.26046 13.75 1.53071 13.75 1.8125V8.1875C13.75 8.46929 13.6078 8.73954 13.3546 8.9388C13.1014 9.13806 12.758 9.25 12.4 9.25H1.6C1.24196 9.25 0.89858 9.13806 0.645406 8.9388C0.392232 8.73954 0.25 8.46929 0.25 8.1875V1.8125C0.25 1.53071 0.392232 1.26046 0.645406 1.0612C0.89858 0.861942 1.24196 0.75 1.6 0.75ZM1.4 1.8125V8.1875H12.6V1.8125H1.4Z" fill="#202020"/>
</svg>
