<svg width="16" height="16" viewBox="0 0 16 16" fill="none" xmlns="http://www.w3.org/2000/svg">
<path d="M1.73424 1L1 1.73421L14.2663 15L15 14.2663L13.1029 12.3688V11.5713H12.5927C12.312 11.5713 12.0824 11.3417 12.0824 11.0611V6.61245C12.0824 4.65932 10.765 3.00109 9.00518 2.53067C9.01079 2.48322 9.02099 2.4373 9.02099 2.3873C9.02099 2.11666 8.91348 1.8571 8.7221 1.66573C8.53072 1.47436 8.27116 1.36685 8.00051 1.36685C7.72986 1.36685 7.4703 1.47436 7.27892 1.66573C7.08754 1.8571 6.98003 2.11666 6.98003 2.3873C6.98003 2.43117 6.99023 2.47301 6.99585 2.51485C6.30555 2.68803 5.67306 3.03999 5.16204 3.5353C5.00897 3.68326 4.87324 3.84806 4.74772 4.01389L1.73424 1ZM7.77753 3.40774C7.88358 3.40178 7.98988 3.40178 8.09593 3.40774C9.73278 3.45774 11.062 4.89249 11.062 6.61245V10.3274L5.48094 4.74759C5.59472 4.58023 5.71463 4.41288 5.86362 4.269C6.38815 3.75877 7.05809 3.45723 7.77753 3.40774ZM3.93389 6.08641C3.92278 6.21365 3.91767 6.34135 3.91858 6.46908V11.0611C3.91858 11.3417 3.68897 11.5713 3.40834 11.5713H2.8981V12.5918H6.56571C6.50442 12.755 6.47197 12.9276 6.46979 13.102C6.46979 13.9413 7.16116 14.6326 8.00051 14.6326C8.83986 14.6326 9.53123 13.9413 9.53123 13.102C9.52905 12.9276 9.4966 12.755 9.43531 12.5918H10.4558L9.43531 11.5713H4.84314C4.90131 11.4116 4.93906 11.2407 4.93906 11.0611V7.07471L3.93389 6.08641ZM8.00051 12.5918C8.28778 12.5918 8.51075 12.8152 8.51075 13.102C8.51075 13.3892 8.28727 13.6122 8.00051 13.6122C7.71324 13.6122 7.49027 13.3887 7.49027 13.102C7.49027 12.8147 7.71375 12.5918 8.00051 12.5918Z" fill="#202020" stroke="#202020" stroke-width="0.1" stroke-linejoin="round"/>
</svg>
