<svg width="12" height="14" viewBox="0 0 12 14" fill="none" xmlns="http://www.w3.org/2000/svg">
<path d="M6 0.5C5.4475 0.5 5 0.9475 5 1.5C5 1.543 5.01 1.584 5.0155 1.625C3.287 2.0665 2 3.6365 2 5.5V10C2 10.283 1.783 10.5 1.5 10.5H1V11.5L4.594 11.5C4.53394 11.66 4.50214 11.8291 4.5 12C4.5 12.8225 5.1775 13.5 6 13.5C6.8225 13.5 7.5 12.8225 7.5 12C7.49786 11.8291 7.46606 11.66 7.406 11.5H11V10.5H10.5C10.217 10.5 10 10.283 10 10V5.6405C10 3.7615 8.744 2.0855 6.9845 1.625C6.99 1.584 7 1.543 7 1.5C7 0.9475 6.5525 0.5 6 0.5ZM5.781 2.5C5.8535 2.494 5.926 2.5 6 2.5H6.094C7.7265 2.549 9 3.98 9 5.6405V10C9 10.176 9.037 10.342 9.094 10.5H2.9065C2.96639 10.34 2.99802 10.1708 3 10V5.5C2.99857 4.74097 3.28468 4.00957 3.80074 3.45296C4.3168 2.89636 5.02403 2.55587 5.781 2.5ZM6 11.5C6.2815 11.5 6.5 11.719 6.5 12C6.5 12.2815 6.281 12.5 6 12.5C5.7185 12.5 5.5 12.281 5.5 12C5.5 11.7185 5.719 11.5 6 11.5Z" fill="#202020" stroke="#202020" stroke-width="0.1" stroke-linejoin="round"/>
</svg>
