<svg width="14" height="12" viewBox="0 0 14 12" fill="none" xmlns="http://www.w3.org/2000/svg">
<path fill-rule="evenodd" clip-rule="evenodd" d="M5.14294 7.84638H8.85722C9.10349 7.84638 9.33968 7.74913 9.51382 7.57602C9.68796 7.40291 9.78579 7.16812 9.78579 6.9233V6.00023C9.78579 5.75541 9.68796 5.52062 9.51382 5.34751C9.33968 5.1744 9.10349 5.07715 8.85722 5.07715H5.14294C4.89666 5.07715 4.66048 5.1744 4.48634 5.34751C4.3122 5.52062 4.21436 5.75541 4.21436 6.00023V6.9233C4.21436 7.16812 4.3122 7.40291 4.48634 7.57602C4.66048 7.74913 4.89666 7.84638 5.14294 7.84638ZM5.14294 6.9233V6.00023H8.85722V6.9233H5.14294Z" fill="#202020"/>
<path fill-rule="evenodd" clip-rule="evenodd" d="M1.42857 0H12.5714C12.8177 0 13.0539 0.0972524 13.228 0.270363C13.4022 0.443473 13.5 0.678262 13.5 0.923077V2.76923C13.5 3.01405 13.4022 3.24883 13.228 3.42194C13.0539 3.59506 12.8177 3.69231 12.5714 3.69231V11.0769C12.5714 11.3217 12.4736 11.5565 12.2995 11.7296C12.1253 11.9027 11.8891 12 11.6429 12H2.35714C2.11087 12 1.87468 11.9027 1.70054 11.7296C1.5264 11.5565 1.42857 11.3217 1.42857 11.0769V3.69231C1.1823 3.69231 0.946113 3.59506 0.771972 3.42194C0.597831 3.24883 0.5 3.01405 0.5 2.76923V0.923077C0.5 0.678262 0.597831 0.443473 0.771972 0.270363C0.946113 0.0972524 1.1823 0 1.42857 0ZM2.35714 11.0769H11.6429V3.69231H2.35714V11.0769ZM1.42857 2.76923H12.5714V0.923077H1.42857V2.76923Z" fill="#202020"/>
</svg>
