<svg width="14" height="10" viewBox="0 0 14 10" fill="none" xmlns="http://www.w3.org/2000/svg">
<path fill-rule="evenodd" clip-rule="evenodd" d="M9.45532 0.851922C9.4927 0.888566 9.54296 0.909091 9.59531 0.909091H12.9541C13.0064 0.909091 13.0566 0.929585 13.094 0.966178L13.4399 1.30481C13.4783 1.34243 13.5 1.39395 13.5 1.44772V9.46137C13.5 9.51515 13.4783 9.56666 13.4399 9.60428L13.094 9.94291C13.0566 9.97951 13.0064 10 12.9541 10H1.04589C0.99358 10 0.943353 9.97951 0.905975 9.94291L0.560086 9.60428C0.521658 9.56666 0.5 9.51515 0.5 9.46137V1.44772C0.5 1.39395 0.521658 1.34243 0.560086 1.30481L0.905975 0.966178C0.943353 0.929585 0.99358 0.909091 1.04589 0.909091H4.40469C4.45703 0.909091 4.5073 0.888566 4.54468 0.851921L5.2501 0.160496C5.2688 0.142162 5.29093 0.127681 5.31521 0.117874L5.57111 0.0145472C5.59491 0.00493888 5.62033 0 5.646 0H8.354C8.37967 0 8.40509 0.00493887 8.42888 0.0145472L8.68479 0.117874C8.70907 0.127681 8.7312 0.142162 8.7499 0.160496L9.45532 0.851922ZM1.42857 8.89091C1.42857 9.00137 1.51811 9.09091 1.62857 9.09091H12.3714C12.4819 9.09091 12.5714 9.00137 12.5714 8.89091V2.01818C12.5714 1.90772 12.4819 1.81818 12.3714 1.81818H9.36028C9.33462 1.81818 9.3092 1.81324 9.2854 1.80363L9.0295 1.70031C9.00521 1.6905 8.98309 1.67602 8.96438 1.65769L8.25897 0.96626C8.22158 0.929616 8.17132 0.909091 8.11897 0.909091H5.88103C5.82868 0.909091 5.77842 0.929616 5.74103 0.96626L5.03562 1.65769C5.01691 1.67602 4.99479 1.6905 4.9705 1.70031L4.7146 1.80363C4.6908 1.81324 4.66538 1.81818 4.63972 1.81818H1.62857C1.51811 1.81818 1.42857 1.90772 1.42857 2.01818V8.89091ZM2.82143 2.72727C2.69829 2.72727 2.5802 2.77516 2.49313 2.86041C2.40606 2.94565 2.35714 3.06127 2.35714 3.18182C2.35714 3.30237 2.40606 3.41799 2.49313 3.50323C2.5802 3.58847 2.69829 3.63636 2.82143 3.63636C2.94456 3.63636 3.06266 3.58847 3.14973 3.50323C3.2368 3.41799 3.28571 3.30237 3.28571 3.18182C3.28571 3.06127 3.2368 2.94565 3.14973 2.86041C3.06266 2.77516 2.94456 2.72727 2.82143 2.72727ZM7 3.63636C7.49254 3.63636 7.96492 3.82792 8.3132 4.1689C8.66148 4.50987 8.85714 4.97233 8.85714 5.45455C8.85714 5.93676 8.66148 6.39922 8.3132 6.74019C7.96492 7.08117 7.49254 7.27273 7 7.27273C6.50745 7.27273 6.03508 7.08117 5.6868 6.74019C5.33852 6.39922 5.14286 5.93676 5.14286 5.45455C5.14286 4.97233 5.33852 4.50987 5.6868 4.1689C6.03508 3.82792 6.50745 3.63636 7 3.63636ZM7 2.72727C6.26118 2.72727 5.55263 3.01461 5.0302 3.52607C4.50778 4.03754 4.21429 4.73123 4.21429 5.45455C4.21429 6.17786 4.50778 6.87156 5.0302 7.38302C5.55263 7.89448 6.26118 8.18182 7 8.18182C7.73882 8.18182 8.44737 7.89448 8.9698 7.38302C9.49222 6.87156 9.78571 6.17786 9.78571 5.45455C9.78571 4.73123 9.49222 4.03754 8.9698 3.52607C8.44737 3.01461 7.73882 2.72727 7 2.72727Z" fill="#202020"/>
</svg>
