<svg width="16" height="14" viewBox="0 0 16 14" fill="none" xmlns="http://www.w3.org/2000/svg">
<path fill-rule="evenodd" clip-rule="evenodd" d="M0 0.7C0 0.313401 0.325611 0 0.727273 0H5.09091C6.05533 0 6.98026 0.368749 7.66221 1.02513C7.78459 1.14292 7.89735 1.26825 8 1.39998C8.10265 1.26825 8.21541 1.14292 8.33779 1.02513C9.01974 0.368749 9.94467 0 10.9091 0H15.2727C15.6744 0 16 0.313401 16 0.7V11.2C16 11.5866 15.6744 11.9 15.2727 11.9H10.1818C9.79605 11.9 9.42608 12.0475 9.1533 12.3101C8.88052 12.5726 8.72727 12.9287 8.72727 13.3C8.72727 13.6866 8.40166 14 8 14C7.59834 14 7.27273 13.6866 7.27273 13.3C7.27273 12.9287 7.11948 12.5726 6.8467 12.3101C6.57392 12.0475 6.20395 11.9 5.81818 11.9H0.727273C0.325611 11.9 0 11.5866 0 11.2V0.7ZM7.27273 10.8751C6.83425 10.6315 6.33326 10.5 5.81818 10.5H1.45455V1.4H5.09091C5.66956 1.4 6.22452 1.62125 6.63369 2.01508C7.04286 2.4089 7.27273 2.94305 7.27273 3.5V10.8751ZM8.72727 10.8751C9.16575 10.6315 9.66674 10.5 10.1818 10.5H14.5455V1.4H10.9091C10.3304 1.4 9.77548 1.62125 9.36631 2.01508C8.95714 2.4089 8.72727 2.94305 8.72727 3.5V10.8751Z" fill="current"/>
</svg>
