<svg width="9" height="7" viewBox="0 0 9 7" fill="none" xmlns="http://www.w3.org/2000/svg">
<path d="M7.30162 0.16495C7.3528 0.112725 7.41389 0.0712361 7.48131 0.0429125C7.54873 0.0145889 7.62112 0 7.69424 0C7.76737 0 7.83976 0.0145889 7.90718 0.0429125C7.97459 0.0712361 8.03568 0.112725 8.08687 0.16495C8.30137 0.3817 8.30437 0.73195 8.09437 0.95245L3.65962 6.19495C3.60927 6.25024 3.54817 6.29468 3.48005 6.32554C3.41194 6.35641 3.33824 6.37305 3.26347 6.37445C3.18871 6.37586 3.11444 6.36199 3.04521 6.33371C2.97599 6.30542 2.91326 6.26331 2.86087 6.20995L0.162369 3.47545C0.0582968 3.36931 0 3.2266 0 3.07795C0 2.9293 0.0582968 2.78659 0.162369 2.68045C0.213553 2.62822 0.274643 2.58674 0.34206 2.55841C0.409478 2.53009 0.481868 2.5155 0.554994 2.5155C0.628119 2.5155 0.70051 2.53009 0.767928 2.55841C0.835345 2.58674 0.896434 2.62822 0.947619 2.68045L3.23662 5.0002L7.28662 0.181451C7.29128 0.175654 7.29629 0.170144 7.30162 0.16495Z" fill="#2F2F2F"/>
</svg>
