<svg width="12" height="6" viewBox="0 0 12 6" fill="none" xmlns="http://www.w3.org/2000/svg">
<path d="M8.86459 5.18182H3.09521C1.95551 5.18182 0.941237 4.34727 0.832175 3.21273C0.80233 2.90973 0.836247 2.60384 0.931744 2.31474C1.02724 2.02565 1.1822 1.75976 1.38664 1.53419C1.59109 1.30863 1.84049 1.12839 2.11879 1.00507C2.39709 0.881748 2.69812 0.818088 3.00251 0.818184H9.74254C10.4569 0.818184 11.1058 1.33091 11.1767 2.04C11.1966 2.23017 11.1763 2.42239 11.1171 2.60418C11.0578 2.78598 10.9611 2.9533 10.833 3.09526C10.705 3.23723 10.5485 3.35067 10.3738 3.42823C10.1991 3.50579 10.01 3.54573 9.81888 3.54546H4.09313C3.79321 3.54546 3.54782 3.3 3.54782 3C3.54782 2.7 3.79321 2.45455 4.09313 2.45455H8.86459C9.08816 2.45455 9.27357 2.26909 9.27357 2.04546C9.27357 1.82182 9.08816 1.63637 8.86459 1.63637H4.16947C3.45511 1.63637 2.8062 2.14909 2.73531 2.85818C2.71543 3.04835 2.73575 3.24057 2.79495 3.42237C2.85416 3.60416 2.95092 3.77148 3.07897 3.91344C3.20701 4.05541 3.36347 4.16885 3.53819 4.24641C3.71291 4.32397 3.90198 4.36391 4.09313 4.36364H9.72618C10.8659 4.36364 11.8801 3.52909 11.9892 2.39455C12.0195 2.09146 11.9859 1.7854 11.8905 1.49612C11.7952 1.20684 11.6403 0.940774 11.4357 0.715115C11.2312 0.489455 10.9816 0.309217 10.7031 0.186039C10.4246 0.062862 10.1234 -0.000514446 9.81888 3.14494e-06H3.12793C1.56289 3.14494e-06 0.161444 1.14546 0.0142102 2.70546C-0.0264973 3.12245 0.0204897 3.54336 0.15215 3.9411C0.28381 4.33885 0.497229 4.70463 0.778684 5.01493C1.06014 5.32523 1.4034 5.57317 1.78639 5.74283C2.16939 5.91248 2.58364 6.00008 3.00251 6H8.86459C9.08816 6 9.27357 5.81455 9.27357 5.59091C9.27357 5.36727 9.08816 5.18182 8.86459 5.18182Z" fill="#202020"/>
</svg>
