<svg width="16" height="15" viewBox="0 0 16 15" fill="none" xmlns="http://www.w3.org/2000/svg">
<path fill-rule="evenodd" clip-rule="evenodd" d="M3.47826 0C3.86246 0 4.17391 0.30526 4.17391 0.681818V2.72727C4.17391 3.10383 3.86246 3.40909 3.47826 3.40909C3.09406 3.40909 2.78261 3.10383 2.78261 2.72727V0.681818C2.78261 0.30526 3.09406 0 3.47826 0ZM6.26087 0C6.64507 0 6.95652 0.30526 6.95652 0.681818V2.72727C6.95652 3.10383 6.64507 3.40909 6.26087 3.40909C5.87667 3.40909 5.56522 3.10383 5.56522 2.72727V0.681818C5.56522 0.30526 5.87667 0 6.26087 0ZM9.04348 0C9.42768 0 9.73913 0.30526 9.73913 0.681818V2.72727C9.73913 3.10383 9.42768 3.40909 9.04348 3.40909C8.65928 3.40909 8.34783 3.10383 8.34783 2.72727V0.681818C8.34783 0.30526 8.65928 0 9.04348 0ZM0 5.45455C0 5.07799 0.311454 4.77273 0.695652 4.77273H12.5217C13.4442 4.77273 14.3289 5.1319 14.9812 5.77123C15.6335 6.41055 16 7.27767 16 8.18182C16 9.08597 15.6335 9.95308 14.9812 10.5924C14.3289 11.2317 13.4442 11.5909 12.5217 11.5909C12.5217 12.4951 12.1553 13.3622 11.503 14.0015C10.8507 14.6408 9.96597 15 9.04348 15H3.47826C2.55577 15 1.67106 14.6408 1.01876 14.0015C0.366459 13.3622 0 12.4951 0 11.5909V5.45455ZM12.5217 10.2273C13.0752 10.2273 13.6061 10.0118 13.9974 9.62817C14.3888 9.24458 14.6087 8.72431 14.6087 8.18182C14.6087 7.63933 14.3888 7.11906 13.9974 6.73546C13.6061 6.35187 13.0752 6.13636 12.5217 6.13636V10.2273ZM11.1304 6.13636V11.5909C11.1304 12.1334 10.9106 12.6537 10.5192 13.0373C10.1278 13.4209 9.59697 13.6364 9.04348 13.6364H3.47826C2.92477 13.6364 2.39394 13.4209 2.00256 13.0373C1.61118 12.6537 1.3913 12.1334 1.3913 11.5909V6.13636H11.1304Z" fill="current"/>
</svg>
