<svg width="24" height="24" viewBox="0 0 24 24" fill="none" xmlns="http://www.w3.org/2000/svg">
<path d="M12 16C11.2089 16 10.4355 15.7654 9.77772 15.3259C9.11992 14.8864 8.60723 14.2616 8.30448 13.5307C8.00173 12.7998 7.92252 11.9956 8.07686 11.2196C8.2312 10.4437 8.61216 9.73098 9.17157 9.17157C9.73098 8.61216 10.4437 8.2312 11.2196 8.07686C11.9956 7.92252 12.7998 8.00173 13.5307 8.30448C14.2616 8.60723 14.8864 9.11992 15.3259 9.77772C15.7654 10.4355 16 11.2089 16 12C16 13.0609 15.5786 14.0783 14.8284 14.8284C14.0783 15.5786 13.0609 16 12 16ZM12 10C11.6044 10 11.2178 10.1173 10.8889 10.3371C10.56 10.5568 10.3036 10.8692 10.1522 11.2346C10.0009 11.6001 9.96126 12.0022 10.0384 12.3902C10.1156 12.7781 10.3061 13.1345 10.5858 13.4142C10.8655 13.6939 11.2219 13.8844 11.6098 13.9616C11.9978 14.0387 12.3999 13.9991 12.7654 13.8478C13.1308 13.6964 13.4432 13.44 13.6629 13.1111C13.8827 12.7822 14 12.3956 14 12C14 11.4696 13.7893 10.9609 13.4142 10.5858C13.0391 10.2107 12.5304 10 12 10Z" fill="#232323"/>
<path d="M12.08 24C11.2844 24 10.5213 23.6839 9.95868 23.1213C9.39607 22.5587 9.08 21.7956 9.08 21V20.924C9.07524 20.7952 9.0323 20.6707 8.95662 20.5664C8.88095 20.462 8.77596 20.3825 8.655 20.338L8.6 20.315C8.48184 20.2628 8.35081 20.2471 8.22364 20.2697C8.09647 20.2923 7.97893 20.3523 7.886 20.442L7.831 20.497C7.26808 21.0598 6.50464 21.3759 5.70865 21.3758C4.91265 21.3757 4.14929 21.0594 3.5865 20.4965C3.02371 19.9336 2.70759 19.1701 2.70769 18.3741C2.70778 17.5781 3.02408 16.8148 3.587 16.252L3.642 16.197C3.73171 16.1041 3.79171 15.9865 3.81433 15.8594C3.83695 15.7322 3.82117 15.6012 3.769 15.483V15.473C3.71906 15.3564 3.63613 15.2571 3.53041 15.187C3.42468 15.117 3.3008 15.0795 3.174 15.079H3C2.20435 15.079 1.44129 14.7629 0.87868 14.2003C0.31607 13.6377 0 12.8747 0 12.079C0 11.2834 0.31607 10.5203 0.87868 9.95768C1.44129 9.39507 2.20435 9.079 3 9.079H3.076C3.20481 9.07425 3.3293 9.0313 3.43364 8.95563C3.53798 8.87995 3.61747 8.77496 3.662 8.654C3.66933 8.634 3.67733 8.61433 3.686 8.595C3.73817 8.47684 3.75395 8.34581 3.73133 8.21864C3.70871 8.09147 3.64872 7.97393 3.559 7.881L3.5 7.827C2.93721 7.26381 2.6212 6.50012 2.62148 5.70394C2.62176 4.90775 2.93831 4.14429 3.5015 3.5815C4.06469 3.01871 4.82838 2.7027 5.62456 2.70298C6.42075 2.70326 7.18421 3.01981 7.747 3.583L7.802 3.638C7.89493 3.72772 8.01247 3.78771 8.13964 3.81033C8.26681 3.83295 8.39784 3.81717 8.516 3.765C8.58024 3.73671 8.64727 3.71526 8.716 3.701C8.80321 3.64158 8.87464 3.56182 8.92413 3.4686C8.97361 3.37539 8.99965 3.27153 9 3.166V3C9 2.20435 9.31607 1.44129 9.87868 0.87868C10.4413 0.31607 11.2044 0 12 0C12.7956 0 13.5587 0.31607 14.1213 0.87868C14.6839 1.44129 15 2.20435 15 3V3.09C15.0013 3.21611 15.0392 3.33914 15.1091 3.44408C15.1791 3.54901 15.2781 3.63133 15.394 3.681H15.404C15.5222 3.73317 15.6532 3.74895 15.7804 3.72633C15.9075 3.70371 16.0251 3.64371 16.118 3.554L16.173 3.499C16.4517 3.22034 16.7826 2.9993 17.1468 2.84851C17.5109 2.69772 17.9012 2.62014 18.2954 2.62019C18.6895 2.62023 19.0798 2.69791 19.4439 2.84878C19.808 2.99966 20.1388 3.22077 20.4175 3.4995C20.6962 3.77823 20.9172 4.10912 21.068 4.47327C21.2188 4.83743 21.2964 5.22772 21.2963 5.62185C21.2963 6.01599 21.2186 6.40626 21.0677 6.77038C20.9168 7.1345 20.6957 7.46533 20.417 7.744L20.362 7.799C20.2723 7.89192 20.2123 8.00947 20.1897 8.13664C20.1671 8.26381 20.1828 8.39484 20.235 8.513C20.2633 8.57724 20.2847 8.64427 20.299 8.713C20.3581 8.80077 20.4377 8.87278 20.5309 8.9228C20.6242 8.97282 20.7282 8.99932 20.834 9H21C21.7956 9 22.5587 9.31607 23.1213 9.87868C23.6839 10.4413 24 11.2044 24 12C24 12.7956 23.6839 13.5587 23.1213 14.1213C22.5587 14.6839 21.7956 15 21 15H20.91C20.7839 15.0013 20.6609 15.0392 20.5559 15.1091C20.451 15.1791 20.3687 15.2781 20.319 15.394V15.404C20.2668 15.5222 20.2511 15.6532 20.2737 15.7804C20.2963 15.9075 20.3563 16.0251 20.446 16.118L20.501 16.173C20.7797 16.4517 21.0007 16.7826 21.1515 17.1468C21.3023 17.5109 21.3799 17.9012 21.3798 18.2954C21.3798 18.6895 21.3021 19.0798 21.1512 19.4439C21.0003 19.808 20.7792 20.1388 20.5005 20.4175C20.2218 20.6962 19.8909 20.9172 19.5267 21.068C19.1626 21.2188 18.7723 21.2964 18.3781 21.2963C17.984 21.2963 17.5937 21.2186 17.2296 21.0677C16.8655 20.9168 16.5347 20.6957 16.256 20.417L16.201 20.362C16.1081 20.2723 15.9905 20.2123 15.8634 20.1897C15.7362 20.1671 15.6052 20.1828 15.487 20.235H15.477C15.3604 20.2849 15.2611 20.3679 15.191 20.4736C15.121 20.5793 15.0835 20.7032 15.083 20.83V21C15.083 21.7956 14.7669 22.5587 14.2043 23.1213C13.6417 23.6839 12.8786 24 12.083 24H12.08ZM9.375 18.473C9.86587 18.6613 10.2896 18.9914 10.5923 19.4213C10.8951 19.8512 11.0631 20.3614 11.075 20.887C11.075 20.895 11.075 20.9027 11.075 20.91V21C11.075 21.2652 11.1804 21.5196 11.3679 21.7071C11.5554 21.8946 11.8098 22 12.075 22C12.3402 22 12.5946 21.8946 12.7821 21.7071C12.9696 21.5196 13.075 21.2652 13.075 21V20.83C13.0758 20.3062 13.2312 19.7942 13.5217 19.3583C13.8122 18.9224 14.2249 18.5819 14.7081 18.3796C15.1913 18.1772 15.7234 18.122 16.2379 18.2208C16.7523 18.3196 17.2262 18.5681 17.6 18.935L17.668 19.003C17.7609 19.096 17.8712 19.1697 17.9926 19.2201C18.1141 19.2704 18.2442 19.2964 18.3756 19.2964C18.5071 19.2965 18.6373 19.2706 18.7587 19.2204C18.8802 19.1701 18.9905 19.0964 19.0835 19.0035C19.1765 18.9106 19.2502 18.8003 19.3006 18.6789C19.3509 18.5574 19.3769 18.4273 19.3769 18.2959C19.377 18.1644 19.3511 18.0343 19.3009 17.9128C19.2506 17.7913 19.1769 17.681 19.084 17.588L19.015 17.519C18.6503 17.1451 18.4037 16.6722 18.3059 16.1591C18.2082 15.6461 18.2635 15.1156 18.4651 14.6338C18.6668 14.152 19.0057 13.7401 19.4397 13.4496C19.8738 13.1591 20.3837 13.0027 20.906 13H21C21.2652 13 21.5196 12.8946 21.7071 12.7071C21.8946 12.5196 22 12.2652 22 12C22 11.7348 21.8946 11.4804 21.7071 11.2929C21.5196 11.1054 21.2652 11 21 11H20.83C20.3124 10.9989 19.8064 10.8462 19.3746 10.5608C18.9427 10.2754 18.6039 9.86977 18.4 9.394C18.364 9.30972 18.3398 9.22088 18.328 9.13C18.1646 8.66362 18.1348 8.16082 18.242 7.67841C18.3493 7.19599 18.5893 6.75319 18.935 6.4L19.003 6.332C19.1195 6.21569 19.2055 6.07241 19.2533 5.9149C19.3011 5.75738 19.3093 5.59049 19.2772 5.42904C19.245 5.26759 19.1735 5.11657 19.069 4.9894C18.9645 4.86222 18.8302 4.76281 18.678 4.7C18.5566 4.64966 18.4264 4.62375 18.295 4.62375C18.1636 4.62375 18.0334 4.64966 17.912 4.7C17.7908 4.75037 17.6807 4.82411 17.588 4.917L17.52 4.985C17.1462 5.35002 16.6731 5.59692 16.1599 5.69488C15.6467 5.79285 15.116 5.73756 14.634 5.5359C14.152 5.33425 13.74 4.99515 13.4494 4.56091C13.1588 4.12666 13.0025 3.61649 13 3.094V3C13 2.73478 12.8946 2.48043 12.7071 2.29289C12.5196 2.10536 12.2652 2 12 2C11.7348 2 11.4804 2.10536 11.2929 2.29289C11.1054 2.48043 11 2.73478 11 3V3.17C10.9989 3.68763 10.8462 4.1936 10.5608 4.62544C10.2754 5.05728 9.86977 5.39607 9.394 5.6C9.30972 5.63598 9.22088 5.66021 9.13 5.672C8.66362 5.83544 8.16082 5.86522 7.67841 5.75795C7.19599 5.65069 6.75319 5.41067 6.4 5.065L6.392 5.057L6.333 5C6.14562 4.81223 5.89133 4.70658 5.62606 4.7063C5.36079 4.70602 5.10627 4.81112 4.9185 4.9985C4.73073 5.18588 4.62508 5.44017 4.6248 5.70544C4.62452 5.97071 4.72962 6.22523 4.917 6.413L4.985 6.481C5.35155 6.85562 5.59879 7.33051 5.69544 7.84564C5.79209 8.36077 5.73382 8.89299 5.528 9.375C5.33965 9.86587 5.00955 10.2896 4.57969 10.5923C4.14982 10.8951 3.63963 11.0631 3.114 11.075H3C2.73478 11.075 2.48043 11.1804 2.29289 11.3679C2.10536 11.5554 2 11.8098 2 12.075C2 12.3402 2.10536 12.5946 2.29289 12.7821C2.48043 12.9696 2.73478 13.075 3 13.075H3.17C3.69384 13.0758 4.20579 13.2312 4.64169 13.5217C5.07759 13.8122 5.41805 14.2249 5.6204 14.7081C5.82275 15.1913 5.87799 15.7234 5.77919 16.2379C5.68039 16.7523 5.43194 17.2262 5.065 17.6L4.997 17.668C4.90402 17.7609 4.83026 17.8712 4.77992 17.9926C4.72957 18.1141 4.70364 18.2442 4.70359 18.3756C4.70354 18.5071 4.72939 18.6373 4.77964 18.7587C4.8299 18.8802 4.90359 18.9905 4.9965 19.0835C5.08941 19.1765 5.19972 19.2502 5.32114 19.3006C5.44256 19.3509 5.57271 19.3769 5.70415 19.3769C5.83559 19.377 5.96575 19.3511 6.0872 19.3009C6.20866 19.2506 6.31902 19.1769 6.412 19.084L6.48 19.016C6.85462 18.6494 7.32951 18.4022 7.84464 18.3056C8.35977 18.2089 8.89199 18.2672 9.374 18.473H9.375Z" fill="#232323"/>
</svg>
