<svg width="30" height="37" viewBox="0 0 30 37" fill="none" xmlns="http://www.w3.org/2000/svg">
<path d="M14.7568 0.215332C18.6705 0.215332 22.4239 1.81461 25.1914 4.66133C27.9588 7.50806 29.5135 11.3691 29.5135 15.3949C29.4514 18.3101 28.6759 21.1622 27.2587 23.6876C25.9442 26.091 24.3342 28.3103 22.4686 30.2907C20.3782 32.5596 18.0687 34.6037 15.5758 36.3914C15.3334 36.5575 15.0487 36.6461 14.7575 36.6461C14.4663 36.6461 14.1816 36.5575 13.9392 36.3914C11.4463 34.6037 9.13677 32.5596 7.04635 30.2907C5.18074 28.3103 3.57082 26.091 2.25631 23.6876C0.838585 21.1624 0.0625734 18.3103 0 15.3949C0 11.3691 1.55473 7.50806 4.32215 4.66133C7.08958 1.81461 10.843 0.215332 14.7568 0.215332Z" fill="#26C1AA"/>
</svg>
