<svg width="10" height="10" viewBox="0 0 10 10" fill="none" xmlns="http://www.w3.org/2000/svg">
<path d="M0.724817 1.45746L0.732087 1.47198L0.743577 1.48345L4.26882 5.00312L0.744435 8.43817L0.732364 8.44993L0.724817 8.465C0.67362 8.56723 0.65 8.69013 0.65 8.80905C0.65 8.92798 0.67362 9.05087 0.724817 9.15311L0.732087 9.16762L0.743577 9.17909C0.953753 9.38894 1.27361 9.38909 1.48394 9.17954C1.48409 9.17939 1.48423 9.17924 1.48438 9.17909L5.00986 5.743L8.45139 9.17909C8.65991 9.38729 8.96584 9.38333 9.1662 9.28331L9.18071 9.27606L9.19219 9.2646C9.40245 9.05468 9.4026 8.73506 9.19265 8.52498C9.1925 8.52483 9.19234 8.52467 9.19219 8.52452L5.75006 5.00398L9.19219 1.48345C9.19234 1.48329 9.1925 1.48314 9.19265 1.48299C9.4026 1.2729 9.40245 0.95329 9.19219 0.743364L9.18071 0.731904L9.1662 0.724659C9.06446 0.673872 8.94165 0.65 8.83249 0.65C8.77745 0.65 8.72274 0.656051 8.67346 0.669623C8.6254 0.682861 8.57516 0.705295 8.53703 0.743364L5.0107 4.26412L1.48438 0.743364L1.4729 0.731904L1.45839 0.724659C1.35605 0.67357 1.23303 0.65 1.11398 0.65C0.994928 0.65 0.871908 0.67357 0.769567 0.724659L0.739743 0.739548L0.724817 0.769353C0.67362 0.871586 0.65 0.99448 0.65 1.11341C0.65 1.23233 0.67362 1.35522 0.724817 1.45746Z" fill="#202020" stroke="#202020" stroke-width="0.2"/>
</svg>