<svg width="8" height="8" viewBox="0 0 8 8" fill="none" xmlns="http://www.w3.org/2000/svg">
<path d="M0.0752405 0.633685C-0.00506063 0.473209 -0.00506063 0.232495 0.0752405 0.0720193C0.235843 -0.00821867 0.476746 -0.00821867 0.637348 0.0720193L4.01 3.44201L7.38264 0.0720193C7.46294 -0.00821867 7.70385 -0.00821867 7.86445 0.0720193C8.02505 0.232495 8.02505 0.473209 7.86445 0.633685L4.5721 4.00368L7.86445 7.37367C8.02505 7.53415 8.02505 7.77486 7.86445 7.93534C7.70385 8.01558 7.46294 8.01558 7.30234 7.8551L4.01 4.56534L0.637348 7.8551C0.476746 8.01558 0.235843 8.01558 0.0752405 7.8551C-0.00506063 7.69463 -0.00506063 7.45391 0.0752405 7.29344L3.44789 4.00368L0.0752405 0.633685Z" fill="#202020"/>
</svg>
