<svg width="16" height="17" viewBox="0 0 16 17" fill="none" xmlns="http://www.w3.org/2000/svg">
<path fill-rule="evenodd" clip-rule="evenodd" d="M8 0C7.57937 0 7.16614 0.106402 6.80171 0.308529L1.20308 3.38776L1.2 3.38948C0.904015 3.55395 0.648749 3.77692 0.450464 4.04273C0.402179 4.08921 0.359332 4.14246 0.323514 4.20206C0.29266 4.25339 0.268652 4.30673 0.251216 4.36109C0.0866594 4.67946 0.000380325 5.03074 0 5.38762V11.5492C0.000431681 11.9543 0.111531 12.3521 0.322154 12.7029C0.532776 13.0536 0.835515 13.3448 1.2 13.5473L1.20309 13.5491L6.8 16.6273L6.80148 16.6282C7.05524 16.7689 7.33267 16.8633 7.61979 16.9076C7.73288 16.9666 7.86238 17 8 17C8.13761 17 8.26712 16.9666 8.3802 16.9076C8.66734 16.8633 8.94479 16.7689 9.19856 16.6281L9.2 16.6273L14.7969 13.5491L14.8 13.5473C15.1645 13.3448 15.4672 13.0536 15.6778 12.7029C15.8885 12.3521 15.9996 11.9543 16 11.5492V5.38762C15.9996 5.03074 15.9133 4.67946 15.7488 4.36109C15.7313 4.30673 15.7073 4.25339 15.6765 4.20206C15.6407 4.14246 15.5978 4.08922 15.5495 4.04273C15.3513 3.77692 15.096 3.55395 14.8 3.38947L9.2 0.309481L9.19833 0.308554C8.83389 0.106411 8.42064 0 8 0ZM1.6 11.5479V5.80232L7.2 8.92024V15.0737L2 12.2137L1.99874 12.213C1.87781 12.1455 1.77735 12.0487 1.70738 11.9322C1.63723 11.8154 1.6002 11.6829 1.6 11.5479ZM8.8 15.0737V8.92024L14.4 5.80232V11.5476C14.3999 11.6826 14.3628 11.8153 14.2926 11.9322C14.2227 12.0487 14.1222 12.1455 14.0013 12.213L14 12.2137L8.8 15.0737ZM8.4 1.64316L13.5688 4.48601L8 7.58656L2.43119 4.48601L7.59691 1.64487L7.6 1.64316C7.72161 1.57558 7.85957 1.54 8 1.54C8.14043 1.54 8.27838 1.57558 8.4 1.64316ZM7.99995 4.62001C8.44178 4.62001 8.79995 4.27527 8.79995 3.85001C8.79995 3.42475 8.44178 3.08001 7.99995 3.08001C7.55812 3.08001 7.19995 3.42475 7.19995 3.85001C7.19995 4.27527 7.55812 4.62001 7.99995 4.62001ZM12.8 10.78C12.8 11.2053 12.4418 11.55 12 11.55C11.5581 11.55 11.2 11.2053 11.2 10.78C11.2 10.3548 11.5581 10.01 12 10.01C12.4418 10.01 12.8 10.3548 12.8 10.78ZM3.99995 11.55C4.44178 11.55 4.79995 11.2053 4.79995 10.78C4.79995 10.3548 4.44178 10.01 3.99995 10.01C3.55812 10.01 3.19995 10.3548 3.19995 10.78C3.19995 11.2053 3.55812 11.55 3.99995 11.55Z" fill="current"/>
</svg>
