<svg width="10" height="10" viewBox="0 0 10 10" fill="none" xmlns="http://www.w3.org/2000/svg">
<path fill-rule="evenodd" clip-rule="evenodd" d="M6.27383 0.162718C6.49079 -0.0542395 6.84255 -0.0542395 7.0595 0.162718L9.83728 2.9405C10.0542 3.15745 10.0542 3.50921 9.83728 3.72617L7.0595 6.50395C6.84255 6.72091 6.49079 6.72091 6.27383 6.50395C6.05687 6.28699 6.05687 5.93523 6.27383 5.71827L8.10322 3.88889H2.77778C2.33575 3.88889 1.91183 4.06448 1.59927 4.37704C1.28671 4.6896 1.11111 5.11353 1.11111 5.55556V9.44444C1.11111 9.75127 0.86238 10 0.555556 10C0.248731 10 0 9.75127 0 9.44444V5.55556C0 4.81884 0.292658 4.1123 0.813592 3.59137C1.33453 3.07044 2.04107 2.77778 2.77778 2.77778H8.10322L6.27383 0.948393C6.05687 0.731435 6.05687 0.379676 6.27383 0.162718Z" fill="#F8E08B"/>
</svg>
