<svg width="4" height="12" viewBox="0 0 4 12" fill="none" xmlns="http://www.w3.org/2000/svg">
<path d="M2.01571 2.39999C2.72579 2.39999 3.28 1.86273 3.28 1.2C3.28 0.537256 2.72579 0 2.01571 0C1.30563 0 0.75 0.537256 0.75 1.2C0.75 1.86273 1.30563 2.39999 2.01571 2.39999Z" fill="#202020"/>
<path d="M2.01571 7.19995C2.72579 7.19995 3.28 6.6627 3.28 5.99996C3.28 5.33722 2.72579 4.79996 2.01571 4.79996C1.30563 4.79996 0.75 5.33722 0.75 5.99996C0.75 6.6627 1.30563 7.19995 2.01571 7.19995Z" fill="#202020"/>
<path d="M2.01571 12C2.72579 12 3.28 11.4627 3.28 10.8C3.28 10.1373 2.72579 9.60001 2.01571 9.60001C1.30563 9.60001 0.75 10.1373 0.75 10.8C0.75 11.4627 1.30563 12 2.01571 12Z" fill="#202020"/>
</svg>
