<svg width="12" height="12" viewBox="0 0 12 12" fill="none" xmlns="http://www.w3.org/2000/svg">
<path d="M6.00004 1.83323C6.27618 1.83323 6.50004 2.05709 6.50004 2.33323V6.01525L7.78548 4.72981C7.98074 4.53455 8.29732 4.53455 8.49259 4.72981C8.68785 4.92508 8.68785 5.24166 8.49259 5.43692L6.35359 7.57591C6.25983 7.66968 6.13265 7.72236 6.00004 7.72236C5.86743 7.72236 5.74026 7.66968 5.64649 7.57591L3.5075 5.43692C3.31223 5.24166 3.31223 4.92508 3.5075 4.72981C3.70276 4.53455 4.01934 4.53455 4.2146 4.72981L5.50004 6.01525V2.33323C5.50004 2.05709 5.7239 1.83323 6.00004 1.83323Z" fill="#202020"/>
<path d="M1.83311 9.66674C1.83311 9.3906 2.05697 9.16674 2.33311 9.16674H9.6668C9.94294 9.16674 10.1668 9.3906 10.1668 9.66674C10.1668 9.94289 9.94294 10.1667 9.6668 10.1667H2.33311C2.05697 10.1667 1.83311 9.94289 1.83311 9.66674Z" fill="#202020"/>
<path fill-rule="evenodd" clip-rule="evenodd" d="M0.866684 0C0.636825 0 0.416381 0.0913112 0.253846 0.253846C0.0913112 0.416381 0 0.636825 0 0.866684V11.1338C0 11.3637 0.0913107 11.5841 0.253846 11.7467C0.416381 11.9092 0.636826 12.0005 0.866684 12.0005H11.1338C11.3637 12.0005 11.5841 11.9092 11.7467 11.7467C11.9092 11.5841 12.0005 11.3637 12.0005 11.1338V0.866684C12.0005 0.636826 11.9092 0.416381 11.7467 0.253846C11.5841 0.0913107 11.3637 0 11.1338 0H0.866684ZM1 11.0005V1H11.0005V11.0005H1Z" fill="#202020"/>
</svg>
