<svg width="14" height="14" viewBox="0 0 14 14" fill="none" xmlns="http://www.w3.org/2000/svg">
<path d="M4.85344 8.70941L4.85344 8.70941C4.73995 8.51244 4.80755 8.26077 5.00458 8.14735C5.2015 8.03376 5.45312 8.10154 5.5666 8.29838L5.56661 8.2984C5.86105 8.80946 6.41006 9.12693 6.99905 9.12693C7.58688 9.12693 8.13528 8.81035 8.43009 8.30078C8.43009 8.30078 8.43009 8.30078 8.43009 8.30078L4.85344 8.70941ZM4.85344 8.70941C5.29444 9.47468 6.11652 9.95006 6.99905 9.95006C7.8799 9.95006 8.70113 9.476 9.1426 8.71298L9.09067 8.68293L4.85344 8.70941ZM3.297 3.29701L3.29701 3.297C4.28615 2.30777 5.60106 1.76313 7 1.76313C8.39894 1.76313 9.71385 2.30777 10.703 3.297L10.7454 3.25458L10.703 3.29701C11.6922 4.28615 12.2369 5.60106 12.2369 7C12.2369 8.39894 11.6922 9.71385 10.703 10.703L10.7454 10.7454L10.703 10.703C9.71385 11.6922 8.39894 12.2369 7 12.2369C5.60106 12.2369 4.28615 11.6922 3.29701 10.703L3.25458 10.7454L3.297 10.703C2.30777 9.71385 1.76313 8.39894 1.76313 7C1.76313 5.60106 2.30777 4.28615 3.297 3.29701ZM2.71493 11.2851C3.85942 12.4296 5.38146 13.06 7 13.06C8.61854 13.06 10.1406 12.4296 11.2851 11.2851C12.4296 10.1406 13.06 8.61854 13.06 7C13.06 5.38146 12.4296 3.85942 11.2851 2.71493C10.1406 1.57044 8.61854 0.94 7 0.94C5.38146 0.94 3.85942 1.57044 2.71493 2.71493C1.57044 3.85942 0.94 5.38146 0.94 7C0.94 8.61854 1.57044 10.1406 2.71493 11.2851ZM4.16852 5.90018C4.16852 6.46258 4.62595 6.91992 5.18826 6.91992C5.75067 6.91992 6.20801 6.46249 6.20801 5.90018C6.20801 5.33787 5.75067 4.88043 5.18826 4.88043C4.62595 4.88043 4.16852 5.33786 4.16852 5.90018ZM4.99164 5.90018C4.99164 5.79179 5.07994 5.70355 5.18826 5.70355C5.29667 5.70355 5.38489 5.79177 5.38489 5.90018C5.38489 6.00858 5.29667 6.0968 5.18826 6.0968C5.07994 6.0968 4.99164 6.00857 4.99164 5.90018ZM7.76617 5.90018C7.76617 6.46258 8.22361 6.91992 8.78592 6.91992C9.34833 6.91992 9.80567 6.46249 9.80567 5.90018C9.80567 5.33786 9.34823 4.88043 8.78592 4.88043C8.22361 4.88043 7.76617 5.33786 7.76617 5.90018ZM8.5893 5.90018C8.5893 5.79177 8.67752 5.70355 8.78592 5.70355C8.89432 5.70355 8.98254 5.79177 8.98254 5.90018C8.98254 6.00858 8.89432 6.0968 8.78592 6.0968C8.67759 6.0968 8.5893 6.00857 8.5893 5.90018Z" fill="#202020" stroke="#202020" stroke-width="0.12"/>
</svg>
