<svg width="12" height="12" viewBox="0 0 12 12" fill="none" xmlns="http://www.w3.org/2000/svg">
<path d="M4.8 8.39333L5.7 9.3L8.8 6L5.7 2.7L4.8 3.60667L6.52 5.4H0V6.6H6.52L4.8 8.39333ZM10.6667 0H1.33333C0.979711 0 0.640573 0.140476 0.390524 0.390524C0.140476 0.640573 0 0.979711 0 1.33333V4H1.1V1.1H10.9V10.9H1.1V8H0V10.6667C0 11.0203 0.140476 11.3594 0.390524 11.6095C0.640573 11.8595 0.979711 12 1.33333 12H10.6667C11.4 12 12 11.4 12 10.6667V1.33333C12 0.6 11.4 0 10.6667 0Z" fill="#202020"/>
</svg>
