<svg width="12" height="12" viewBox="0 0 12 12" fill="none" xmlns="http://www.w3.org/2000/svg">
<path d="M5.81009 5.205L6.46086 4.5L8.76855 7L6.46086 9.5L5.81009 8.795L7.00086 7.5H2.76855V6.5H7.00086L5.81009 5.205Z" fill="#202020"/>
<path fill-rule="evenodd" clip-rule="evenodd" d="M0.857143 0H3.93086C4.15817 5.66374e-05 4.37615 0.105451 4.53686 0.293L6 2H11.1429C11.3702 2 11.5882 2.10536 11.7489 2.29289C11.9097 2.48043 12 2.73478 12 3V11C12 11.2652 11.9097 11.5196 11.7489 11.7071C11.5882 11.8946 11.3702 12 11.1429 12H0.857143C0.629814 12 0.411797 11.8946 0.251051 11.7071C0.0903058 11.5196 0 11.2652 0 11V1C0 0.734784 0.0903058 0.48043 0.251051 0.292893C0.411797 0.105357 0.629814 0 0.857143 0ZM3.93086 1H0.857143V11H11.1429V3H5.64514L3.93086 1Z" fill="#202020"/>
</svg>
