<svg width="14" height="10" viewBox="0 0 14 10" fill="none" xmlns="http://www.w3.org/2000/svg">
<path fill-rule="evenodd" clip-rule="evenodd" d="M5.47176 2.09932C5.96026 1.76799 6.536 1.58886 7.12624 1.58456C7.51914 1.58169 7.90875 1.65638 8.27273 1.80436C8.63671 1.95234 8.96791 2.17068 9.24735 2.44689C9.52679 2.7231 9.74898 3.05174 9.90119 3.41397C10.0534 3.7762 10.1326 4.16491 10.1343 4.55782C10.1369 5.14807 9.96448 5.72585 9.63886 6.21818C9.31325 6.7105 8.84904 7.09529 8.30486 7.32395C7.76069 7.5526 7.16096 7.61486 6.58142 7.50287C6.00188 7.39087 5.46852 7.10964 5.04872 6.6947C4.62892 6.27976 4.3415 5.74972 4.22276 5.17152C4.10403 4.59332 4.1593 3.99291 4.3816 3.4461C4.6039 2.8993 4.98326 2.43064 5.47176 2.09932ZM5.95819 6.32036C6.30295 6.55485 6.70931 6.68225 7.12624 6.68655C7.40684 6.68885 7.68511 6.63543 7.94491 6.52938C8.20471 6.42332 8.44087 6.26675 8.63969 6.06873C8.83852 5.87072 8.99606 5.6352 9.10317 5.37584C9.21028 5.11647 9.26484 4.83842 9.26368 4.55782C9.26108 4.14087 9.13535 3.73399 8.90226 3.38828C8.66918 3.04256 8.33914 2.77343 7.95359 2.61467C7.56804 2.45592 7.14419 2.41463 6.73525 2.49598C6.32631 2.57733 5.95053 2.77771 5.6551 3.07193C5.35967 3.36616 5.15777 3.74112 5.07474 4.14972C4.99172 4.55832 5.03128 4.98235 5.18846 5.36854C5.34564 5.75473 5.61343 6.08586 5.95819 6.32036Z" fill="#202020"/>
<path fill-rule="evenodd" clip-rule="evenodd" d="M7 0C9.84701 0 12.4198 1.64117 13.8868 4.35323L14 4.55784L13.8868 4.76679C12.4241 7.50062 9.84701 9.12002 7 9.12002C4.15299 9.12002 1.58022 7.47885 0.113184 4.76679L0 4.55784L0.121891 4.35323C1.57587 1.64117 4.15299 0 7 0ZM0.992537 4.55784C2.29851 6.8607 4.54913 8.22761 7 8.22761C9.44652 8.22761 11.6754 6.8607 13.0031 4.55784C11.6754 2.25933 9.45087 0.888059 7 0.888059C4.54913 0.888059 2.29851 2.25497 0.992537 4.55784Z" fill="#202020"/>
</svg>
