<svg width="10" height="12" viewBox="0 0 10 12" fill="none" xmlns="http://www.w3.org/2000/svg">
<path d="M9.86648 3.00804L6.80966 0.125893C6.72443 0.0455357 6.60938 0 6.48864 0H1.02273C0.771307 0 0 0 0 1.00781V11C0 11.2371 0 12 1.02273 12H9.01562C10 12 10 11.2728 10 11.0357V3.31205C10 3.19821 9.9517 3.08839 9.86648 3.00804ZM8.9517 3.50893H6.27841V0.988393L8.9517 3.50893ZM8.97727 11.0357H1.02273V0.964286H5.3125V3.85714C5.3125 4.00633 5.37535 4.1494 5.48724 4.25489C5.59912 4.36038 5.75087 4.41964 5.90909 4.41964H8.97727V11.0357Z" fill="#202020"/>
</svg>
