<svg width="10" height="12" viewBox="0 0 10 12" fill="none" xmlns="http://www.w3.org/2000/svg">
<path d="M9.86263 3.36202L6.6849 0.135173C6.68036 0.130558 6.67542 0.126519 6.6707 0.122077C6.66456 0.116365 6.6586 0.110481 6.65218 0.105058C6.64792 0.101538 6.64332 0.098423 6.63894 0.0950192C6.63156 0.08925 6.62417 0.0833654 6.61639 0.0780577C6.61286 0.0756923 6.60911 0.073673 6.60559 0.0713654C6.59656 0.0655961 6.58753 0.0598269 6.57809 0.0546923C6.57554 0.0533077 6.57293 0.0522692 6.57037 0.0509423C6.55973 0.0452839 6.54887 0.0400681 6.53781 0.0353077C6.53611 0.0345577 6.53424 0.0340384 6.53253 0.0333461C6.52055 0.0283867 6.50836 0.0239594 6.496 0.0200769C6.49418 0.0195 6.49236 0.0191538 6.49055 0.0186346C6.47819 0.0149005 6.46568 0.0117052 6.45305 0.00905767C6.44896 0.00824998 6.44475 0.00790388 6.44066 0.00715388C6.43015 0.00530772 6.41964 0.00340387 6.40891 0.00236541C6.39382 0.000800186 6.37867 1.06945e-05 6.36351 0H0.909008C0.668007 0.000274859 0.436955 0.0976156 0.266541 0.270667C0.0961277 0.443717 0.00027067 0.678346 0 0.923077V11.0769C0.00027067 11.3217 0.0961277 11.5563 0.266541 11.7293C0.436955 11.9024 0.668007 11.9997 0.909008 12H9.09054C9.33154 11.9997 9.56259 11.9024 9.733 11.7293C9.90342 11.5563 9.99927 11.3217 9.99955 11.0769V3.70125C9.9996 3.69825 10 3.69531 10 3.69231C10 3.63071 9.9879 3.56974 9.96429 3.513C9.94068 3.45626 9.90615 3.40492 9.86263 3.36202ZM6.36351 3.69231V1.11421L8.90226 3.69231H6.36351Z" fill="#202020"/>
</svg>
