<svg width="24" height="20" viewBox="0 0 24 20" fill="none" xmlns="http://www.w3.org/2000/svg">
<path fill-rule="evenodd" clip-rule="evenodd" d="M4 0C4.55228 0 5 0.447715 5 1V8C5 8.55228 4.55228 9 4 9C3.44772 9 3 8.55228 3 8V1C3 0.447715 3.44772 0 4 0ZM12 0C12.5523 0 13 0.447715 13 1V5H15C15.5523 5 16 5.44772 16 6C16 6.55228 15.5523 7 15 7H9C8.44772 7 8 6.55228 8 6C8 5.44772 8.44772 5 9 5H11V1C11 0.447715 11.4477 0 12 0ZM20 0C20.5523 0 21 0.447715 21 1V10C21 10.5523 20.5523 11 20 11C19.4477 11 19 10.5523 19 10V1C19 0.447715 19.4477 0 20 0ZM12 9C12.5523 9 13 9.44771 13 10V19C13 19.5523 12.5523 20 12 20C11.4477 20 11 19.5523 11 19V10C11 9.44771 11.4477 9 12 9ZM0 12C0 11.4477 0.447715 11 1 11H7C7.55228 11 8 11.4477 8 12C8 12.5523 7.55228 13 7 13H5V19C5 19.5523 4.55228 20 4 20C3.44772 20 3 19.5523 3 19V13H1C0.447715 13 0 12.5523 0 12ZM16 14C16 13.4477 16.4477 13 17 13H23C23.5523 13 24 13.4477 24 14C24 14.5523 23.5523 15 23 15H21V19C21 19.5523 20.5523 20 20 20C19.4477 20 19 19.5523 19 19V15H17C16.4477 15 16 14.5523 16 14Z" fill="black"/>
</svg>
