<svg width="14" height="14" viewBox="0 0 14 14" fill="none" xmlns="http://www.w3.org/2000/svg">
<path d="M6.99994 3.95502C6.3977 3.95502 5.80899 4.1336 5.30825 4.46818C4.8075 4.80277 4.41722 5.27832 4.18676 5.83472C3.95629 6.39111 3.89599 7.00335 4.01348 7.59401C4.13097 8.18468 4.42098 8.72724 4.84682 9.15308C5.27267 9.57893 5.81523 9.86893 6.4059 9.98642C6.99656 10.1039 7.6088 10.0436 8.1652 9.81314C8.7216 9.58268 9.19715 9.1924 9.53174 8.69166C9.86633 8.19092 10.0449 7.60221 10.0449 6.99997C10.044 6.19267 9.72292 5.4187 9.15207 4.84785C8.58122 4.27701 7.80724 3.95591 6.99994 3.95502ZM6.99994 9.36827C6.53153 9.36827 6.07365 9.22937 5.68418 8.96914C5.29471 8.70891 4.99116 8.33903 4.81191 7.90628C4.63266 7.47353 4.58576 6.99734 4.67714 6.53794C4.76852 6.07853 4.99408 5.65654 5.32529 5.32533C5.65651 4.99412 6.0785 4.76856 6.53791 4.67718C6.99731 4.5858 7.4735 4.6327 7.90625 4.81195C8.33901 4.9912 8.70889 5.29475 8.96912 5.68422C9.22935 6.07368 9.36825 6.53157 9.36825 6.99997C9.36753 7.62786 9.11779 8.22983 8.6738 8.67382C8.22981 9.11781 7.62784 9.36755 6.99994 9.36827ZM12.9323 8.33107L12.0702 7.18171C12.0726 7.05912 12.0708 6.9177 12.0689 6.81998L12.9319 5.66927C12.9628 5.62817 12.9838 5.58059 12.9935 5.53014C13.0032 5.47968 13.0013 5.42768 12.9879 5.37808C12.8496 4.86561 12.6458 4.37311 12.3815 3.91278C12.3559 3.86823 12.3205 3.8301 12.278 3.80128C12.2354 3.77246 12.1869 3.7537 12.136 3.74644L10.716 3.54361C10.6325 3.45397 10.5459 3.36734 10.4563 3.28388L10.2535 1.86454C10.2463 1.81367 10.2275 1.76513 10.1987 1.72259C10.1699 1.68005 10.1318 1.64463 10.0872 1.61903C9.62706 1.35445 9.13471 1.15034 8.62235 1.01173C8.57273 0.998313 8.52071 0.996378 8.47024 1.00607C8.41976 1.01576 8.37216 1.03683 8.33104 1.06766L7.18354 1.92837C7.06114 1.92397 6.93863 1.92397 6.81623 1.92837L5.66929 1.06806C5.62818 1.03723 5.58059 1.01617 5.53012 1.00648C5.47966 0.996786 5.42765 0.998716 5.37804 1.01212C4.86557 1.15039 4.37307 1.35418 3.91274 1.61846C3.86819 1.64407 3.83005 1.67948 3.80123 1.72202C3.77241 1.76456 3.75365 1.81311 3.74639 1.86398L3.54356 3.284C3.45398 3.36734 3.36739 3.45391 3.28378 3.54372L1.86454 3.74644C1.81368 3.7537 1.76514 3.77245 1.72261 3.80126C1.68007 3.83007 1.64465 3.86819 1.61903 3.91272C1.35443 4.3729 1.15032 4.86528 1.01173 5.37769C0.998313 5.42729 0.996378 5.4793 1.00607 5.52977C1.01576 5.58023 1.03683 5.62782 1.06766 5.66893L1.92979 6.81829C1.92742 6.94093 1.92922 7.0823 1.93114 7.18002L1.068 8.33073C1.03718 8.37183 1.01611 8.41941 1.00641 8.46986C0.99671 8.52032 0.998624 8.57232 1.01201 8.62192C1.15028 9.13437 1.35408 9.62685 1.61835 10.0872C1.64395 10.1317 1.67937 10.1699 1.72192 10.1987C1.76447 10.2276 1.81304 10.2463 1.86392 10.2536L3.28395 10.4564C3.36729 10.5459 3.45387 10.6325 3.54368 10.7161L3.74639 12.1355C3.75365 12.1863 3.7724 12.2349 3.80123 12.2774C3.83005 12.32 3.86818 12.3554 3.91274 12.381C4.37288 12.6455 4.86523 12.8497 5.37759 12.9883C5.42721 13.0017 5.47923 13.0036 5.5297 12.9939C5.58018 12.9842 5.62778 12.9632 5.6689 12.9323L6.8164 12.0716C6.9388 12.076 7.06131 12.076 7.18371 12.0716L8.33065 12.9319C8.37175 12.9628 8.41935 12.9838 8.46981 12.9935C8.52028 13.0032 8.57229 13.0013 8.6219 12.9879C9.13436 12.8496 9.62684 12.6458 10.0871 12.3815C10.1317 12.3559 10.1699 12.3205 10.1987 12.278C10.2275 12.2354 10.2463 12.1869 10.2535 12.136L10.4567 10.7136C10.5432 10.6296 10.6281 10.544 10.7115 10.457L12.1355 10.2536C12.1863 10.2463 12.2349 10.2276 12.2774 10.1988C12.3199 10.1699 12.3554 10.1318 12.381 10.0873C12.6455 9.6271 12.8497 9.13472 12.9883 8.62231C13.0017 8.57271 13.0036 8.5207 12.9939 8.47023C12.9842 8.41977 12.9632 8.37217 12.9323 8.33107ZM11.8735 9.60747L10.4996 9.8037C10.4237 9.81458 10.3537 9.85092 10.3011 9.90678C10.2305 9.98177 10.0234 10.1977 9.91437 10.2942C9.85427 10.3474 9.81505 10.4202 9.80374 10.4997L9.60751 11.8739C9.28703 12.0455 8.95032 12.1848 8.60233 12.2898L7.49216 11.4572C7.428 11.409 7.34878 11.3852 7.26869 11.3901C7.08974 11.4009 6.91031 11.4009 6.73136 11.3901C6.65125 11.3853 6.57202 11.409 6.50784 11.4572L5.39733 12.2901C5.04943 12.1848 4.71283 12.0452 4.39249 11.8735L4.19626 10.4998C4.18492 10.4203 4.1457 10.3475 4.08562 10.2943C3.95146 10.1754 3.8246 10.0486 3.70574 9.91439C3.65253 9.85431 3.5797 9.8151 3.50026 9.80376L2.12602 9.60753C1.95448 9.28704 1.81516 8.95034 1.7101 8.60235L2.54278 7.49218C2.58882 7.43079 2.61262 7.35557 2.61028 7.27887C2.60718 7.17579 2.60098 6.87654 2.60977 6.7314C2.61465 6.65129 2.59089 6.57207 2.54273 6.50787L1.70976 5.39742C1.81509 5.04952 1.95467 4.71293 2.12647 4.39259L3.50014 4.19636C3.57961 4.185 3.65246 4.14577 3.70568 4.08567C3.82453 3.95149 3.95139 3.82463 4.08557 3.70578C4.14566 3.65259 4.18487 3.57975 4.1962 3.5003L4.39243 2.12607C4.71292 1.95454 5.04962 1.81521 5.39761 1.71015L6.50773 2.54283C6.57194 2.59096 6.65115 2.61472 6.73125 2.60988C6.9102 2.59908 7.08963 2.59908 7.26858 2.60988C7.34867 2.61474 7.42788 2.59096 7.49204 2.54278L8.60261 1.70987C8.95051 1.81518 9.28711 1.95474 9.60745 2.12652L9.80368 3.50025C9.81502 3.57969 9.85424 3.65252 9.91432 3.70572C10.0485 3.82458 10.1754 3.95144 10.2942 4.08561C10.3474 4.14569 10.4202 4.1849 10.4997 4.19624L11.8739 4.39247C12.0454 4.71295 12.1847 5.04966 12.2898 5.39765L11.4572 6.50782C11.4111 6.56921 11.3873 6.64443 11.3897 6.72113C11.3928 6.82421 11.399 7.12346 11.3901 7.26855C11.3852 7.34868 11.409 7.42793 11.4572 7.49213L12.2901 8.60258C12.1848 8.95048 12.0453 9.28707 11.8735 9.60741V9.60747Z" fill="#202020" stroke="#202020" stroke-width="0.33"/>
</svg>
