<svg width="14" height="14" viewBox="0 0 14 14" fill="none" xmlns="http://www.w3.org/2000/svg">
<path fill-rule="evenodd" clip-rule="evenodd" d="M1.30768 6.36364H3.85006C3.99273 4.60524 4.58125 2.91736 5.55272 1.45716C3.28924 2.04653 1.57055 3.9857 1.30768 6.36364ZM7 1.62324C5.93748 2.99214 5.28741 4.63707 5.12756 6.36364H8.87244C8.71259 4.63707 8.06252 2.99214 7 1.62324ZM8.87244 7.63636C8.71259 9.36293 8.06252 11.0079 7 12.3768C5.93748 11.0079 5.28741 9.36293 5.12756 7.63636H8.87244ZM3.85006 7.63636H1.30768C1.57055 10.0143 3.28924 11.9535 5.55272 12.5428C4.58125 11.0826 3.99273 9.39475 3.85006 7.63636ZM8.44728 12.5428C9.41875 11.0826 10.0073 9.39475 10.1499 7.63636H12.6923C12.4295 10.0143 10.7108 11.9535 8.44728 12.5428ZM12.6923 6.36364H10.1499C10.0073 4.60524 9.41875 2.91736 8.44728 1.45716C10.7108 2.04653 12.4295 3.9857 12.6923 6.36364ZM0 7C0 3.13401 3.13401 0 7 0C10.866 0 14 3.13401 14 7C14 10.866 10.866 14 7 14C3.13401 14 0 10.866 0 7Z" fill="#CF4040"/>
</svg>
