<svg width="16" height="16" viewBox="0 0 16 16" fill="none" xmlns="http://www.w3.org/2000/svg">
<path fill-rule="evenodd" clip-rule="evenodd" d="M6.70485 0.431897C6.82329 0.16926 7.08756 0 7.37917 0C8.162 0 8.91277 0.306491 9.46632 0.852048C10.0199 1.39761 10.3308 2.13754 10.3308 2.90907V5.09088H13.7658C14.0851 5.08797 14.4013 5.15318 14.6927 5.28207C14.9855 5.41158 15.2462 5.60227 15.4568 5.84094C15.6673 6.0796 15.8227 6.36054 15.9122 6.66428C16.0017 6.96802 16.0231 7.2873 15.9749 7.6L14.9566 14.1453C14.9566 14.1455 14.9566 14.1451 14.9566 14.1453C14.8765 14.6654 14.6083 15.1399 14.2016 15.4806C13.796 15.8204 13.2797 16.0048 12.7474 15.9999H2.21375C1.62663 15.9999 1.06355 15.77 0.648393 15.3609C0.233234 14.9517 0 14.3968 0 13.8181V8.72722C0 8.14857 0.233234 7.59362 0.648393 7.18445C1.06355 6.77528 1.62663 6.54542 2.21375 6.54542H3.94795L6.70485 0.431897ZM3.68959 7.99995H2.21375C2.01804 7.99995 1.83035 8.07658 1.69197 8.21297C1.55358 8.34935 1.47583 8.53434 1.47583 8.72722V13.8181C1.47583 14.011 1.55358 14.196 1.69197 14.3324C1.83035 14.4687 2.01804 14.5454 2.21375 14.5454H3.68959V7.99995ZM5.16542 14.5454H12.7596C12.9375 14.5474 13.1102 14.4859 13.2458 14.3723C13.3814 14.2587 13.4708 14.1007 13.4975 13.9272L14.5158 7.38173C14.5158 7.38163 14.5158 7.38182 14.5158 7.38173C14.5318 7.27759 14.5247 7.17097 14.4949 7.06982C14.4651 6.96858 14.4133 6.87493 14.3431 6.79537C14.2729 6.71582 14.186 6.65225 14.0884 6.60908C13.9908 6.56592 13.8849 6.54418 13.7779 6.54537L13.7695 6.54546L9.59292 6.54542C9.18538 6.54542 8.85501 6.21981 8.85501 5.81815V2.90907C8.85501 2.52331 8.69952 2.15334 8.42275 1.88056C8.25462 1.71486 8.0501 1.59326 7.8277 1.52334L5.16542 7.42702V14.5454Z" fill="#232323"/>
</svg>
