<svg width="14" height="14" viewBox="0 0 14 14" fill="none" xmlns="http://www.w3.org/2000/svg">
<path d="M5.23319 4.60413C5.07509 4.91717 5.20069 5.29911 5.51373 5.45721C5.82677 5.61531 6.20871 5.48971 6.36681 5.17667L5.23319 4.60413ZM7 6.6706L6.65022 6.14062C6.47216 6.25814 6.36501 6.45722 6.365 6.67056L7 6.6706ZM7.635 9.7C7.635 9.3493 7.3507 9.065 7 9.065C6.6493 9.065 6.365 9.3493 6.365 9.7H7.635ZM6.365 10C6.365 10.3507 6.6493 10.635 7 10.635C7.3507 10.635 7.635 10.3507 7.635 10H6.365ZM6.36493 7.90011C6.36491 8.25081 6.64919 8.53513 6.99989 8.53515C7.35059 8.53517 7.63491 8.25089 7.63493 7.90018L6.36493 7.90011ZM12.365 7C12.365 9.96301 9.96301 12.365 7 12.365V13.635C10.6644 13.635 13.635 10.6644 13.635 7H12.365ZM7 12.365C4.03699 12.365 1.635 9.96301 1.635 7H0.365C0.365 10.6644 3.33559 13.635 7 13.635V12.365ZM1.635 7C1.635 4.03699 4.03699 1.635 7 1.635V0.365C3.33559 0.365 0.365 3.33559 0.365 7H1.635ZM7 1.635C9.96301 1.635 12.365 4.03699 12.365 7H13.635C13.635 3.33559 10.6644 0.365 7 0.365V1.635ZM6.36681 5.17667C6.50352 4.90598 6.60311 4.78246 6.6815 4.72043C6.73775 4.67593 6.81661 4.635 7 4.635V3.365C6.58339 3.365 6.21225 3.47227 5.8935 3.72447C5.59689 3.95914 5.39648 4.28082 5.23319 4.60413L6.36681 5.17667ZM7 4.635C7.35318 4.635 7.565 4.89872 7.565 5.1868H8.835C8.835 4.28808 8.14202 3.365 7 3.365V4.635ZM7.565 5.1868C7.565 5.34603 7.5353 5.42033 7.4519 5.51931C7.33135 5.66238 7.10601 5.8398 6.65022 6.14062L7.34978 7.20058C7.79399 6.9074 8.16865 6.63962 8.4231 6.33764C8.7147 5.99157 8.835 5.62097 8.835 5.1868H7.565ZM6.365 9.7V10H7.635V9.7H6.365ZM6.365 6.67056L6.36493 7.90011L7.63493 7.90018L7.635 6.67064L6.365 6.67056Z" fill="#202020"/>
</svg>
