<svg width="14" height="12" viewBox="0 0 14 12" fill="none" xmlns="http://www.w3.org/2000/svg">
<path fill-rule="evenodd" clip-rule="evenodd" d="M8.50469 0.293641C8.98687 0.0997805 9.50369 0 10.0256 0C10.5476 0 11.0644 0.0997806 11.5466 0.293641C12.0286 0.487466 12.4667 0.77154 12.8356 1.12964C13.2047 1.48762 13.4976 1.91283 13.6974 2.38061C13.8972 2.84848 14 3.34995 14 3.85639C14 4.36283 13.8972 4.86431 13.6974 5.33218C13.4976 5.8 13.2048 6.22505 12.8357 6.58305L7.43207 11.8263C7.19335 12.0579 6.80632 12.0579 6.5676 11.8263L1.16397 6.58305C0.418693 5.8599 0 4.87909 0 3.85639C0 2.8337 0.418693 1.85289 1.16397 1.12974C1.90925 0.406581 2.92006 0.000317187 3.97405 0.000317187C5.02803 0.000317187 6.03885 0.406581 6.78412 1.12974L6.99984 1.33905L7.21545 1.12983C7.5844 0.771691 8.02256 0.487484 8.50469 0.293641Z" fill="#FDFDFD"/>
</svg>
