<svg width="12" height="12" viewBox="0 0 12 12" fill="none" xmlns="http://www.w3.org/2000/svg">
<path d="M11.7516 5.90169L6.2994 0.131418C6.26014 0.0897586 6.21351 0.056708 6.16218 0.0341577C6.11085 0.0116074 6.05582 0 6.00025 0C5.94467 0 5.88965 0.0116074 5.83832 0.0341577C5.78698 0.056708 5.74035 0.0897586 5.7011 0.131418L0.248852 5.90169C0.0900103 6.06991 0 6.29843 0 6.53675C0 7.03163 0.379897 7.43397 0.847156 7.43397H1.42163V11.5514C1.42163 11.7995 1.61092 12 1.84521 12H5.15309V8.85972H6.63562V12H10.1553C10.3896 12 10.5789 11.7995 10.5789 11.5514V7.43397H11.1533C11.3784 7.43397 11.5941 7.34005 11.753 7.17042C12.0826 6.81994 12.0826 6.25216 11.7516 5.90169Z" fill="#202020"/>
</svg>
