<svg width="14" height="14" viewBox="0 0 14 14" fill="none" xmlns="http://www.w3.org/2000/svg">
<path d="M7.2448 1.09853C7.17382 1.03468 7.0864 1 6.9964 1C6.9064 1 6.81898 1.03468 6.748 1.09853L1 6.27017L1.4972 6.99572L2.2 6.3634V12.0769C2.20042 12.3216 2.28484 12.5561 2.43478 12.7291C2.58472 12.9021 2.78796 12.9995 3 13H11C11.212 12.9995 11.4153 12.9021 11.5652 12.7291C11.7152 12.5561 11.7996 12.3216 11.8 12.0769V6.36756L12.5028 6.99988L13 6.27432L7.2448 1.09853ZM7.8 12.0769H6.2V8.38452H7.8V12.0769ZM8.6 12.0769V8.38452C8.59979 8.13978 8.51544 7.90513 8.36545 7.73206C8.21547 7.559 8.01211 7.46167 7.8 7.46143H6.2C5.98789 7.46167 5.78453 7.559 5.63455 7.73206C5.48457 7.90513 5.40021 8.13978 5.4 8.38452V12.0769H3V5.64385L7 2.04839L11 5.64847V12.0769H8.6Z" fill="#202020" stroke="#202020" stroke-width="0.3"/>
</svg>
