<svg width="20" height="22" viewBox="0 0 20 22" fill="none" xmlns="http://www.w3.org/2000/svg">
<path fill-rule="evenodd" clip-rule="evenodd" d="M9.38606 0.210648C9.74717 -0.0702159 10.2528 -0.0702159 10.6139 0.210648L19.6139 7.21065C19.8575 7.4001 20 7.69141 20 8V19C20 19.7957 19.6839 20.5587 19.1213 21.1213C18.5587 21.6839 17.7957 22 17 22H3C2.20435 22 1.44129 21.6839 0.87868 21.1213C0.31607 20.5587 0 19.7957 0 19V8C0 7.69141 0.142473 7.4001 0.386059 7.21065L9.38606 0.210648ZM8 20H12V12H8V20ZM14 20V11C14 10.4477 13.5523 10 13 10H7C6.44772 10 6 10.4477 6 11V20H3C2.73478 20 2.48043 19.8946 2.29289 19.7071C2.10536 19.5196 2 19.2652 2 19V8.48908L10 2.26686L18 8.48908V19C18 19.2652 17.8946 19.5196 17.7071 19.7071C17.5196 19.8946 17.2652 20 17 20H14Z" fill="#1A1A18"/>
</svg>
