<svg width="12" height="12" viewBox="0 0 12 12" fill="none" xmlns="http://www.w3.org/2000/svg">
<path fill-rule="evenodd" clip-rule="evenodd" d="M8.33335 4.7472C8.08668 4.91203 7.79667 5 7.5 5C7.10218 5 6.72064 4.84197 6.43934 4.56066C6.15804 4.27936 6 3.89783 6 3.5C6 3.20333 6.08797 2.91332 6.2528 2.66665C6.41762 2.41997 6.65189 2.22771 6.92597 2.11418C7.20006 2.00065 7.50166 1.97094 7.79264 2.02882C8.08361 2.0867 8.35088 2.22956 8.56066 2.43934C8.77044 2.64912 8.9133 2.91639 8.97118 3.20737C9.02906 3.49834 8.99935 3.79994 8.88582 4.07403C8.77229 4.34811 8.58003 4.58238 8.33335 4.7472ZM7.77779 3.08427C7.69556 3.02933 7.59889 3 7.5 3C7.36739 3 7.24021 3.05268 7.14645 3.14645C7.05268 3.24022 7 3.36739 7 3.5C7 3.59889 7.02932 3.69556 7.08426 3.77779C7.13921 3.86001 7.2173 3.9241 7.30866 3.96194C7.40002 3.99978 7.50056 4.00969 7.59755 3.99039C7.69454 3.9711 7.78363 3.92348 7.85355 3.85355C7.92348 3.78363 7.9711 3.69454 7.99039 3.59755C8.00969 3.50056 7.99978 3.40002 7.96194 3.30866C7.9241 3.2173 7.86001 3.13921 7.77779 3.08427Z" fill="#202020"/>
<path fill-rule="evenodd" clip-rule="evenodd" d="M1 0H11C11.2652 0 11.5196 0.105357 11.7071 0.292893C11.8946 0.48043 12 0.734784 12 1V11C12 11.2652 11.8946 11.5196 11.7071 11.7071C11.5196 11.8946 11.2652 12 11 12H1C0.734784 12 0.48043 11.8946 0.292893 11.7071C0.105357 11.5196 0 11.2652 0 11V1C0 0.734784 0.105357 0.48043 0.292893 0.292893C0.48043 0.105357 0.734784 0 1 0ZM1 8V11H11V10L8.5 7.5L7.705 8.295C7.51764 8.48125 7.26419 8.58579 7 8.58579C6.73581 8.58579 6.48236 8.48125 6.295 8.295L3.5 5.5L1 8ZM9.205 6.79L11 8.585V1H1V6.585L2.795 4.79C2.98236 4.60375 3.23581 4.49921 3.5 4.49921C3.76419 4.49921 4.01764 4.60375 4.205 4.79L7 7.585L7.795 6.79C7.98236 6.60375 8.23581 6.49921 8.5 6.49921C8.76419 6.49921 9.01764 6.60375 9.205 6.79Z" fill="#202020"/>
</svg>
