<svg width="14" height="14" viewBox="0 0 14 14" fill="none" xmlns="http://www.w3.org/2000/svg">
<path d="M11.2273 1C11.6974 1 12.1483 1.18677 12.4808 1.51922C12.8132 1.85167 13 2.30257 13 2.77273V11.2273C13 11.6974 12.8132 12.1483 12.4808 12.4808C12.1483 12.8132 11.6974 13 11.2273 13H2.77273C2.30257 13 1.85167 12.8132 1.51922 12.4808C1.18677 12.1483 1 11.6974 1 11.2273V2.77273C1 2.30257 1.18677 1.85167 1.51922 1.51922C1.85167 1.18677 2.30257 1 2.77273 1H11.2273ZM1.81818 11.2273C1.81818 11.7542 2.24582 12.1818 2.77273 12.1818H11.2273C11.4804 12.1818 11.7232 12.0813 11.9022 11.9022C12.0813 11.7232 12.1818 11.4804 12.1818 11.2273V8.36364H9.28218C9.18961 8.87917 8.92526 9.34819 8.53216 9.69434C8.13907 10.0405 7.64037 10.2434 7.11727 10.27L7 10.2727C6.47564 10.2726 5.9668 10.0948 5.55649 9.76826C5.14618 9.44176 4.85862 8.98585 4.74073 8.47491L4.71782 8.36364H1.81818V11.2273ZM11.2273 1.81818H2.77273C2.51957 1.81818 2.27677 1.91875 2.09776 2.09776C1.91875 2.27677 1.81818 2.51957 1.81818 2.77273V7.54545H5.09091C5.18977 7.54546 5.28528 7.58126 5.35978 7.64624C5.43428 7.71121 5.48274 7.80097 5.49618 7.89891L5.5 7.95455C5.5 8.35237 5.65804 8.7339 5.93934 9.01521C6.22064 9.29651 6.60218 9.45455 7 9.45455C7.39782 9.45455 7.77936 9.29651 8.06066 9.01521C8.34196 8.7339 8.5 8.35237 8.5 7.95455C8.5 7.85569 8.5358 7.76018 8.60078 7.68567C8.66576 7.61117 8.75552 7.56272 8.85346 7.54927L8.90909 7.54545H12.1818V2.77273C12.1818 2.51957 12.0813 2.27677 11.9022 2.09776C11.7232 1.91875 11.4804 1.81818 11.2273 1.81818Z" fill="#202020" stroke="#202020" stroke-width="0.3"/>
</svg>
