<svg width="14" height="14" viewBox="0 0 14 14" fill="none" xmlns="http://www.w3.org/2000/svg">
<path d="M7 0.5C3.41049 0.5 0.5 3.41049 0.5 7C0.5 10.5895 3.41049 13.5 7 13.5C10.5895 13.5 13.5 10.5895 13.5 7C13.5 3.41049 10.5895 0.5 7 0.5ZM7 12.3973C4.01987 12.3973 1.60268 9.98013 1.60268 7C1.60268 4.01987 4.01987 1.60268 7 1.60268C9.98013 1.60268 12.3973 4.01987 12.3973 7C12.3973 9.98013 9.98013 12.3973 7 12.3973Z" fill="#202020"/>
<path d="M6.30357 4.44643C6.30357 4.63113 6.37694 4.80827 6.50755 4.93888C6.63816 5.06948 6.8153 5.14286 7 5.14286C7.1847 5.14286 7.36184 5.06948 7.49245 4.93888C7.62305 4.80827 7.69643 4.63113 7.69643 4.44643C7.69643 4.26172 7.62305 4.08458 7.49245 3.95398C7.36184 3.82337 7.1847 3.75 7 3.75C6.8153 3.75 6.63816 3.82337 6.50755 3.95398C6.37694 4.08458 6.30357 4.26172 6.30357 4.44643ZM7.34821 6.07143H6.65179C6.58795 6.07143 6.53571 6.12366 6.53571 6.1875V10.1339C6.53571 10.1978 6.58795 10.25 6.65179 10.25H7.34821C7.41205 10.25 7.46429 10.1978 7.46429 10.1339V6.1875C7.46429 6.12366 7.41205 6.07143 7.34821 6.07143Z" fill="#202020"/>
</svg>
