<svg width="10" height="14" viewBox="0 0 10 14" fill="none" xmlns="http://www.w3.org/2000/svg">
<path d="M6.67287 5.16226C6.67287 6.07238 5.92824 6.81789 5.00014 6.81789C4.07205 6.81789 3.32742 6.07238 3.32742 5.16226C3.32742 4.25213 4.07205 3.50662 5.00014 3.50662C5.92824 3.50662 6.67287 4.25213 6.67287 5.16226Z" stroke="#202020" stroke-width="1.2"/>
<path d="M9.4 5.16236C9.4 7.56739 7.43433 9.52476 5 9.52476C2.56567 9.52476 0.6 7.56739 0.6 5.16236C0.6 2.75733 2.56567 0.799951 5 0.799951C7.43433 0.799951 9.4 2.75733 9.4 5.16236Z" stroke="#202020" stroke-width="1.2"/>
<path d="M1.81824 12.8315H1.21824V13.7787L2.07461 13.3739L1.81824 12.8315ZM5.00006 11.3277L5.25643 10.7852L5.00006 10.6641L4.74368 10.7852L5.00006 11.3277ZM8.18187 12.8315L7.9255 13.3739L8.78187 13.7787V12.8315H8.18187ZM2.07461 13.3739L5.25643 11.8702L4.74368 10.7852L1.56186 12.289L2.07461 13.3739ZM1.21824 8.32019V12.8315H2.41824V8.32019H1.21824ZM7.58187 8.32019V12.8315H8.78187V8.32019H7.58187ZM8.43825 12.289L5.25643 10.7852L4.74368 11.8702L7.9255 13.3739L8.43825 12.289Z" fill="#202020"/>
</svg>
