<svg width="14" height="12" viewBox="0 0 14 12" fill="none" xmlns="http://www.w3.org/2000/svg">
<path fill-rule="evenodd" clip-rule="evenodd" d="M8.50469 0.293641C8.98687 0.0997805 9.50369 0 10.0256 0C10.5476 0 11.0644 0.0997806 11.5466 0.293641C12.0286 0.487466 12.4667 0.77154 12.8356 1.12964C13.2047 1.48762 13.4976 1.91283 13.6974 2.38061C13.8972 2.84848 14 3.34995 14 3.85639C14 4.36283 13.8972 4.86431 13.6974 5.33218C13.4976 5.8 13.2048 6.22505 12.8357 6.58305C12.8357 6.58309 12.8357 6.58302 12.8357 6.58305L7.43207 11.8263C7.19335 12.0579 6.80632 12.0579 6.5676 11.8263L1.16397 6.58305C0.418693 5.8599 0 4.87909 0 3.85639C0 2.8337 0.418693 1.85289 1.16397 1.12974C1.90925 0.406581 2.92006 0.000317187 3.97405 0.000317187C5.02803 0.000317187 6.03885 0.406581 6.78412 1.12974L6.99984 1.33905L7.21545 1.12983C7.21548 1.1298 7.21542 1.12987 7.21545 1.12983C7.5844 0.771691 8.02256 0.487484 8.50469 0.293641ZM10.0256 1.18625C9.66429 1.18625 9.30649 1.25533 8.97267 1.38954C8.63886 1.52375 8.33556 1.72046 8.08012 1.96844L7.43207 2.59725C7.19335 2.82888 6.80632 2.82888 6.5676 2.59725L5.91966 1.96854C5.40365 1.46785 4.70379 1.18657 3.97405 1.18657C3.2443 1.18657 2.54445 1.46785 2.02844 1.96854C1.51243 2.46923 1.22254 3.14831 1.22254 3.85639C1.22254 4.56448 1.51243 5.24356 2.02844 5.74425L6.99984 10.5681L11.9712 5.74425C12.2268 5.49639 12.4296 5.202 12.5679 4.87809C12.7063 4.55418 12.7775 4.20701 12.7775 3.85639C12.7775 3.50578 12.7063 3.15861 12.5679 2.8347C12.4296 2.51079 12.2269 2.2165 11.9713 1.96864C11.7159 1.72066 11.4124 1.52375 11.0786 1.38954C10.7448 1.25533 10.387 1.18625 10.0256 1.18625Z" fill="#ED6355"/>
</svg>
