<svg width="16" height="16" viewBox="0 0 16 16" fill="none" xmlns="http://www.w3.org/2000/svg">
<path fill-rule="evenodd" clip-rule="evenodd" d="M2.31273 1.45455C1.83877 1.45455 1.45455 1.83877 1.45455 2.31273V3.63636H3.63636V1.45455H2.31273ZM2.31273 0C1.03544 0 0 1.03544 0 2.31273V13.6873C0 14.9646 1.03544 16 2.31273 16H13.6873C14.9646 16 16 14.9646 16 13.6873V2.31273C16 1.03544 14.9646 0 13.6873 0H2.31273ZM5.09091 1.45455V7.27273H10.9091V1.45455H5.09091ZM12.3636 1.45455V3.63636H14.5455V2.31273C14.5455 1.83877 14.1612 1.45455 13.6873 1.45455H12.3636ZM14.5455 5.09091H12.3636V7.27273H14.5455V5.09091ZM14.5455 8.72727H12.3636V10.9091H14.5455V8.72727ZM14.5455 12.3636H12.3636V14.5455H13.6873C14.1612 14.5455 14.5455 14.1612 14.5455 13.6873V12.3636ZM10.9091 14.5455V8.72727H5.09091V14.5455H10.9091ZM3.63636 14.5455V12.3636H1.45455V13.6873C1.45455 14.1612 1.83877 14.5455 2.31273 14.5455H3.63636ZM1.45455 10.9091H3.63636V8.72727H1.45455V10.9091ZM1.45455 7.27273H3.63636V5.09091H1.45455V7.27273Z" fill="url(#paint0_linear_184_520)"/>
<defs>
<linearGradient id="paint0_linear_184_520" x1="0" y1="16" x2="18.151" y2="3.00431" gradientUnits="userSpaceOnUse">
<stop offset="0.114583" stop-color="#ED6355"/>
<stop offset="0.9999" stop-color="#F5C68C"/>
<stop offset="1" stop-color="#F9F8A8"/>
</linearGradient>
</defs>
</svg>
