<svg width="18" height="18" viewBox="0 0 18 18" fill="none" xmlns="http://www.w3.org/2000/svg">
<path fill-rule="evenodd" clip-rule="evenodd" d="M1.68131 8.18182H4.09091C4.54278 8.18182 4.90909 8.54813 4.90909 9C4.90909 9.45187 4.54278 9.81818 4.09091 9.81818H1.68131C2.05861 13.2313 4.76868 15.9414 8.18182 16.3187V13.9091C8.18182 13.4572 8.54813 13.0909 9 13.0909C9.45187 13.0909 9.81818 13.4572 9.81818 13.9091V16.3187C13.2313 15.9414 15.9414 13.2313 16.3187 9.81818H13.9091C13.4572 9.81818 13.0909 9.45187 13.0909 9C13.0909 8.54813 13.4572 8.18182 13.9091 8.18182H16.3187C15.9414 4.76868 13.2313 2.05861 9.81818 1.68131V4.09091C9.81818 4.54278 9.45187 4.90909 9 4.90909C8.54813 4.90909 8.18182 4.54278 8.18182 4.09091V1.68131C4.76868 2.05861 2.05861 4.76868 1.68131 8.18182ZM0 9C0 4.02944 4.02944 0 9 0C13.9706 0 18 4.02944 18 9C18 13.9706 13.9706 18 9 18C4.02944 18 0 13.9706 0 9Z" fill="#CF4040"/>
</svg>
