<svg width="12" height="11" viewBox="0 0 12 11" fill="none" xmlns="http://www.w3.org/2000/svg">
<path d="M0 3.22788V8.5C0 9.06359 0.210714 9.60409 0.585786 10.0026C0.960859 10.4011 1.46957 10.625 2 10.625H10C10.5304 10.625 11.0391 10.4011 11.4142 10.0026C11.7893 9.60409 12 9.06359 12 8.5V2.125C12 1.56141 11.7893 1.02091 11.4142 0.622398C11.0391 0.223883 10.5304 0 10 0H2C1.46957 0 0.960859 0.223883 0.585786 0.622398C0.210714 1.02091 0 1.56141 0 2.125V3.22788ZM2 1.0625H10C10.2652 1.0625 10.5196 1.17444 10.7071 1.3737C10.8946 1.57296 11 1.84321 11 2.125V2.91125L6 5.7715L1 2.91125V2.125C1 1.84321 1.10536 1.57296 1.29289 1.3737C1.48043 1.17444 1.73478 1.0625 2 1.0625V1.0625ZM1 4.11825L5.763 6.8425C5.83584 6.88416 5.91727 6.90597 6 6.90597C6.08273 6.90597 6.16416 6.88416 6.237 6.8425L11 4.11825V8.5C11 8.78179 10.8946 9.05204 10.7071 9.2513C10.5196 9.45056 10.2652 9.5625 10 9.5625H2C1.73478 9.5625 1.48043 9.45056 1.29289 9.2513C1.10536 9.05204 1 8.78179 1 8.5V4.11825Z" fill="#202020"/>
</svg>
