<svg width="12" height="10" viewBox="0 0 12 10" fill="none" xmlns="http://www.w3.org/2000/svg">
<path d="M12 2.88V7.96875C12 8.48759 11.8095 8.98677 11.4674 9.36389C11.1253 9.74102 10.6577 9.9675 10.1604 9.99688L10.05 10H1.95C1.45192 10 0.972703 9.80153 0.610661 9.4452C0.24862 9.08888 0.0311992 8.60175 0.00300007 8.08375L0 7.96875V2.88L5.7912 6.04C5.85563 6.07515 5.92727 6.09351 6 6.09351C6.07273 6.09351 6.14437 6.07515 6.2088 6.04L12 2.88ZM1.95 1.47532e-08H10.05C10.5333 -6.06342e-05 10.9995 0.186872 11.358 0.524542C11.7166 0.862212 11.9419 1.32655 11.9904 1.8275L6 5.09625L0.00960002 1.8275C0.056114 1.34645 0.26583 0.898448 0.60105 0.564039C0.93627 0.22963 1.37501 0.0307419 1.8384 0.00312509L1.95 1.47532e-08H10.05H1.95Z" fill="#202020"/>
</svg>
