<svg width="12" height="12" viewBox="0 0 12 12" fill="none" xmlns="http://www.w3.org/2000/svg">
<path d="M6.20314 0.0573493C6.14071 0.0197051 6.07091 0 6 0C5.92909 0 5.85929 0.0197051 5.79686 0.0573493L0.676286 3.14573C0.471943 3.26894 0.301184 3.45179 0.182118 3.67489C0.0630529 3.898 0.000121817 4.15304 0 4.41296V10.08C0 10.5892 0.180612 11.0776 0.502103 11.4376C0.823594 11.7977 1.25963 12 1.71429 12H10.2857C10.7404 12 11.1764 11.7977 11.4979 11.4376C11.8194 11.0776 12 10.5892 12 10.08V4.41296C11.9999 4.15304 11.9369 3.898 11.8179 3.67489C11.6988 3.45179 11.5281 3.26894 11.3237 3.14573L6.20314 0.0573493ZM1.08257 3.99055L6 1.02409L10.9174 3.99055C10.9697 4.0222 11.0155 4.06568 11.052 4.11823L6 7.13558L0.948 4.11823C0.984468 4.06568 1.0303 4.0222 1.08257 3.99055V3.99055ZM0.857143 5.15218L5.79857 8.10232C5.86058 8.1393 5.92975 8.15864 6 8.15864C6.07025 8.15864 6.13942 8.1393 6.20143 8.10232L11.1429 5.15218V10.08C11.1429 10.3346 11.0526 10.5788 10.8918 10.7588C10.7311 10.9388 10.513 11.04 10.2857 11.04H1.71429C1.48696 11.04 1.26894 10.9388 1.10819 10.7588C0.947449 10.5788 0.857143 10.3346 0.857143 10.08V5.15218Z" fill="#202020"/>
</svg>
