<svg width="14" height="14" viewBox="0 0 14 14" fill="none" xmlns="http://www.w3.org/2000/svg">
<path d="M12.7188 5.64767L12.7836 5.66778V5.59992V2.87507C12.7836 2.36419 12.5767 1.87444 12.2088 1.5135C11.8409 1.15259 11.3421 0.95 10.8221 0.95H2.41151C1.89159 0.95 1.39278 1.15259 1.02485 1.5135C0.656897 1.87444 0.45 2.36419 0.45 2.87507V8.87529C0.45 9.38616 0.656897 9.87591 1.02485 10.2369C1.39278 10.5978 1.89159 10.8004 2.41151 10.8004H6.21464H6.25146L6.26239 10.7652C6.34472 10.5001 6.47423 10.2512 6.64418 10.0309L6.7063 9.95033H6.60459H2.41151C2.12028 9.95033 1.84118 9.83684 1.63554 9.63512C1.42993 9.43343 1.3146 9.16009 1.3146 8.87529V4.05893L6.39762 6.99178L6.39751 6.99198L6.40192 6.99399L6.46462 7.02249L6.46455 7.02263L6.46832 7.02399C6.52822 7.04564 6.59225 7.05398 6.65579 7.04842C6.71933 7.04286 6.78088 7.02353 6.83598 6.9918L6.83603 6.99177L11.919 4.05746V5.50167V5.55396L11.9713 5.55161C12.2243 5.54025 12.4774 5.57278 12.7188 5.64767ZM11.0242 6.624L11.0241 6.62401L7.33124 10.2465C7.10899 10.463 6.95138 10.7374 6.87572 11.0358L6.58902 12.1593L6.58899 12.1594C6.55856 12.2797 6.56036 12.4056 6.5942 12.525C6.62805 12.6444 6.69277 12.753 6.78196 12.8404C6.87115 12.9278 6.98178 12.991 7.10306 13.024C7.22434 13.057 7.35223 13.0586 7.47434 13.0288L7.47436 13.0288L8.61974 12.7482L8.61978 12.7482C8.92361 12.6736 9.20117 12.5193 9.42276 12.3018L13.1158 8.67999C13.2533 8.54518 13.3625 8.38507 13.437 8.20877C13.5115 8.03247 13.5499 7.84346 13.55 7.65254C13.5501 7.46163 13.5118 7.27259 13.4374 7.09623C13.363 6.91988 13.254 6.75969 13.1166 6.62478C12.9791 6.48987 12.816 6.38289 12.6366 6.30989C12.4571 6.23689 12.2648 6.19929 12.0705 6.19922C11.8763 6.19915 11.6839 6.2366 11.5044 6.30947C11.3249 6.38233 11.1617 6.4892 11.0242 6.624ZM2.41151 1.80003H10.8221C11.1134 1.80003 11.3925 1.91352 11.5981 2.11524C11.8037 2.31693 11.919 2.59026 11.919 2.87507V3.07196L6.61682 6.13246L1.3146 3.0727V2.87507C1.3146 2.59026 1.42993 2.31693 1.63554 2.11524C1.84118 1.91352 2.12028 1.80003 2.41151 1.80003Z" fill="#202020" stroke="#202020" stroke-width="0.1"/>
</svg>
