<svg width="14" height="14" viewBox="0 0 14 14" fill="none" xmlns="http://www.w3.org/2000/svg">
<path d="M13 4.375C13 5.27011 12.6653 6.12855 12.0696 6.76149C11.4739 7.39442 10.666 7.75 9.82353 7.75C8.98108 7.75 8.17313 7.39442 7.57743 6.76149C6.98172 6.12855 6.64706 5.27011 6.64706 4.375C6.64706 3.47989 6.98172 2.62145 7.57743 1.98851C8.17313 1.35558 8.98108 1 9.82353 1C10.666 1 11.4739 1.35558 12.0696 1.98851C12.6653 2.62145 13 3.47989 13 4.375V4.375ZM9.82353 2.5C9.72992 2.5 9.64015 2.53951 9.57396 2.60984C9.50777 2.68016 9.47059 2.77554 9.47059 2.875V4.375C9.47059 4.47446 9.50777 4.56984 9.57396 4.64016C9.64015 4.71049 9.72992 4.75 9.82353 4.75C9.91714 4.75 10.0069 4.71049 10.0731 4.64016C10.1393 4.56984 10.1765 4.47446 10.1765 4.375V2.875C10.1765 2.77554 10.1393 2.68016 10.0731 2.60984C10.0069 2.53951 9.91714 2.5 9.82353 2.5ZM9.82353 6.34375C9.94054 6.34375 10.0528 6.29436 10.1355 6.20646C10.2182 6.11855 10.2647 5.99932 10.2647 5.875C10.2647 5.75068 10.2182 5.63145 10.1355 5.54354C10.0528 5.45564 9.94054 5.40625 9.82353 5.40625C9.70652 5.40625 9.59431 5.45564 9.51157 5.54354C9.42883 5.63145 9.38235 5.75068 9.38235 5.875C9.38235 5.99932 9.42883 6.11855 9.51157 6.20646C9.59431 6.29436 9.70652 6.34375 9.82353 6.34375V6.34375ZM11.5882 11.125V8.05C11.8397 7.91348 12.0764 7.74825 12.2941 7.55725V11.125C12.2941 11.6223 12.1082 12.0992 11.7772 12.4508C11.4463 12.8025 10.9974 13 10.5294 13H2.76471C2.29668 13 1.84782 12.8025 1.51687 12.4508C1.18592 12.0992 1 11.6223 1 11.125V5.125C1 4.62772 1.18592 4.15081 1.51687 3.79917C1.84782 3.44754 2.29668 3.25 2.76471 3.25H6.08729C6.02198 3.49516 5.97826 3.74624 5.95671 4H2.76471C2.48389 4 2.21457 4.11853 2.016 4.3295C1.81744 4.54048 1.70588 4.82663 1.70588 5.125V5.3515L6.64706 8.44L7.66424 7.804C7.89509 7.9684 8.14192 8.10595 8.40047 8.21425L6.82635 9.19825C6.78133 9.22633 6.73101 9.24346 6.67901 9.24839C6.62701 9.25331 6.57463 9.24592 6.52565 9.22675L6.46777 9.19825L1.70588 6.22225V11.125C1.70588 11.4234 1.81744 11.7095 2.016 11.9205C2.21457 12.1315 2.48389 12.25 2.76471 12.25H10.5294C10.8102 12.25 11.0795 12.1315 11.2781 11.9205C11.4767 11.7095 11.5882 11.4234 11.5882 11.125V11.125Z" fill="#202020" stroke="#202020" stroke-width="0.2"/>
</svg>
