<svg width="14" height="14" viewBox="0 0 14 14" fill="none" xmlns="http://www.w3.org/2000/svg">
<path d="M6.64706 4.375C6.64706 5.27011 6.98172 6.12855 7.57743 6.76149C8.17313 7.39442 8.98108 7.75 9.82353 7.75C10.666 7.75 11.4739 7.39442 12.0696 6.76149C12.6653 6.12855 13 5.27011 13 4.375C13 3.47989 12.6653 2.62145 12.0696 1.98851C11.4739 1.35558 10.666 1 9.82353 1C8.98108 1 8.17313 1.35558 7.57743 1.98851C6.98172 2.62145 6.64706 3.47989 6.64706 4.375V4.375ZM7.35294 4.375C7.35294 3.88782 7.48054 3.41026 7.72146 2.99575C7.96238 2.58124 8.30711 2.24615 8.71707 2.02796C9.12704 1.80978 9.58606 1.71712 10.0428 1.76035C10.4995 1.80358 10.9359 1.981 11.3031 2.27275L7.84424 5.94775C7.52425 5.49399 7.35182 4.94199 7.35294 4.375V4.375ZM9.82353 7C9.26871 7 8.75624 6.805 8.344 6.47725L11.8028 2.80225C12.0776 3.19246 12.2448 3.65625 12.2856 4.14169C12.3263 4.62713 12.2391 5.11504 12.0337 5.55078C11.8282 5.98652 11.5126 6.35289 11.1223 6.60885C10.7319 6.8648 10.2822 7.00024 9.82353 7V7ZM11.5882 11.125V8.05C11.8397 7.91348 12.0764 7.74825 12.2941 7.55725V11.125C12.2941 11.6223 12.1082 12.0992 11.7772 12.4508C11.4463 12.8025 10.9974 13 10.5294 13H2.76471C2.29668 13 1.84782 12.8025 1.51687 12.4508C1.18592 12.0992 1 11.6223 1 11.125V5.125C1 4.62772 1.18592 4.15081 1.51687 3.79917C1.84782 3.44754 2.29668 3.25 2.76471 3.25H6.08729C6.02198 3.49516 5.97826 3.74624 5.95671 4H2.76471C2.48389 4 2.21457 4.11853 2.016 4.3295C1.81744 4.54048 1.70588 4.82663 1.70588 5.125V5.3515L6.64706 8.44L7.66424 7.804C7.89365 7.96675 8.14 8.10475 8.40047 8.21425L6.82635 9.19825C6.78133 9.22633 6.73101 9.24346 6.67901 9.24839C6.62701 9.25331 6.57463 9.24592 6.52565 9.22675L6.46776 9.19825L1.70588 6.22225V11.125C1.70588 11.4234 1.81744 11.7095 2.016 11.9205C2.21457 12.1315 2.48389 12.25 2.76471 12.25H10.5294C10.8102 12.25 11.0795 12.1315 11.2781 11.9205C11.4767 11.7095 11.5882 11.4234 11.5882 11.125V11.125Z" fill="#202020" stroke="#202020" stroke-width="0.2"/>
</svg>
