<svg width="12" height="11" viewBox="0 0 12 11" fill="none" xmlns="http://www.w3.org/2000/svg">
<path fill-rule="evenodd" clip-rule="evenodd" d="M3.75193 0.0658786C3.89708 -0.0170642 4.07408 -0.0219771 4.22361 0.0527866L7.98427 1.93312L11.2519 0.0658786C11.4067 -0.0225508 11.5968 -0.0219159 11.751 0.0675451C11.9051 0.157006 12 0.321765 12 0.5V8.5C12 8.67943 11.9039 8.8451 11.7481 8.93412L8.24807 10.9341C8.10292 11.0171 7.92592 11.022 7.77639 10.9472L4.01573 9.06688L0.748069 10.9341C0.593318 11.0226 0.403194 11.0219 0.249037 10.9325C0.0948792 10.843 0 10.6782 0 10.5V2.5C0 2.32057 0.096143 2.1549 0.251931 2.06588L3.75193 0.0658786ZM4.5 8.19098L7.5 9.69098V2.80902L4.5 1.30902V8.19098ZM3.5 1.36159V8.20984L1 9.63841V2.79016L3.5 1.36159ZM8.5 2.79016V9.63841L11 8.20984V1.36159L8.5 2.79016Z" fill="#232323"/>
</svg>
