<svg width="10" height="14" viewBox="0 0 10 14" fill="none" xmlns="http://www.w3.org/2000/svg">
<path fill-rule="evenodd" clip-rule="evenodd" d="M3.64733 2.44395C4.04711 2.17331 4.51713 2.02886 4.99795 2.02886C5.64271 2.02886 6.26106 2.28836 6.71697 2.75026C7.17288 3.21216 7.42901 3.83864 7.42901 4.49186C7.42901 4.979 7.28643 5.4552 7.0193 5.86024C6.75217 6.26528 6.37249 6.58096 5.92828 6.76738C5.48406 6.9538 4.99525 7.00258 4.52368 6.90754C4.0521 6.81251 3.61893 6.57793 3.27894 6.23347C2.93895 5.88901 2.70741 5.45015 2.61361 4.97237C2.5198 4.4946 2.56795 3.99937 2.75195 3.54931C2.93595 3.09926 3.24754 2.71459 3.64733 2.44395ZM4.11875 5.82497C4.37899 6.00115 4.68496 6.09518 4.99795 6.09518V6.09088C5.41693 6.09088 5.81881 5.92255 6.11547 5.6228C6.41212 5.32305 6.57935 4.91635 6.58047 4.49186C6.58047 4.17476 6.48766 3.86477 6.31377 3.60111C6.13988 3.33745 5.89272 3.13194 5.60356 3.01059C5.31439 2.88924 4.9962 2.85749 4.68922 2.91936C4.38224 2.98122 4.10026 3.13392 3.87894 3.35815C3.65762 3.58238 3.5069 3.86806 3.44584 4.17907C3.38478 4.49009 3.41612 4.81246 3.53589 5.10543C3.65567 5.3984 3.85851 5.6488 4.11875 5.82497Z" fill="#202020"/>
<path fill-rule="evenodd" clip-rule="evenodd" d="M1.47255 1.47673C2.40899 0.532011 3.67637 0.00111828 4.99788 4.25726e-10C6.32013 -1.73512e-05 7.58859 0.530374 8.52594 1.47521C9.46329 2.42005 9.99327 3.70246 10 5.04206C10 7.0454 8.89288 8.71908 8.08295 9.94349L8.07807 9.95088L7.92957 10.1787C7.11898 11.3687 6.24953 12.5164 5.32456 13.6174L5.00212 14L4.67968 13.6174C3.75459 12.5165 2.88514 11.3688 2.07467 10.1787L1.92618 9.95517C1.11158 8.73012 0 7.04943 0 5.04206C0.00672475 3.7032 0.536118 2.42144 1.47255 1.47673ZM7.2168 9.68437L7.36954 9.45656C8.12049 8.33896 9.14722 6.78723 9.14722 5.02487C9.14722 4.47281 9.03989 3.92616 8.83137 3.41612C8.62285 2.90608 8.31721 2.44265 7.93191 2.05229C7.5466 1.66192 7.08918 1.35227 6.58576 1.141C6.08234 0.929737 5.54278 0.821001 4.99788 0.821001C4.45298 0.821001 3.91341 0.929737 3.40999 1.141C2.90657 1.35227 2.44915 1.66192 2.06385 2.05229C1.67855 2.44265 1.37291 2.90608 1.16439 3.41612C0.955862 3.92616 0.848536 4.47281 0.848536 5.02487C0.848536 6.76389 1.87226 8.31084 2.62252 9.44456L2.63046 9.45656L2.77896 9.68437C3.5087 10.7934 4.49724 12.0356 4.99788 12.6503C5.51973 12.0356 6.48706 10.7934 7.2168 9.68437Z" fill="#202020"/>
</svg>
