<svg width="current" height="current" viewBox="0 0 18 16" xmlns="http://www.w3.org/2000/svg">
<path fill-rule="evenodd" clip-rule="evenodd" d="M5.6279 0.0958234C5.84562 -0.0248207 6.11112 -0.0319666 6.33541 0.0767805L11.9764 2.81181L16.8779 0.0958234C17.11 -0.0328012 17.3952 -0.0318776 17.6264 0.0982475C17.8577 0.228373 18 0.468022 18 0.727273V12.3636C18 12.6246 17.8558 12.8656 17.6221 12.9951L12.3721 15.9042C12.1544 16.0248 11.8889 16.032 11.6646 15.9232L6.0236 13.1882L1.1221 15.9042C0.889977 16.0328 0.604791 16.0319 0.373555 15.9018C0.142319 15.7716 0 15.532 0 15.2727V3.63636C0 3.37538 0.144215 3.1344 0.377896 3.00491L5.6279 0.0958234ZM6.75 11.9142L11.25 14.096V4.08584L6.75 1.90403V11.9142ZM5.25 1.98049V11.9416L1.5 14.0195V4.05842L5.25 1.98049ZM12.75 4.05842V14.0195L16.5 11.9416V1.98049L12.75 4.05842Z" fill="current"/>
</svg>
