<svg width="12" height="12" viewBox="0 0 12 12" fill="none" xmlns="http://www.w3.org/2000/svg">
<path d="M10.6145 0.95H1.38554C1.26342 0.95 1.15375 1.01928 1.07644 1.11907C0.99883 1.21925 0.95 1.35445 0.95 1.49767C0.95 1.64089 0.99883 1.77609 1.07644 1.87627C1.15375 1.97606 1.26342 2.04534 1.38554 2.04534H10.6007C10.7287 2.05382 10.8422 1.98881 10.9217 1.88833C11.0016 1.78743 11.05 1.64797 11.05 1.49767C11.05 1.20164 10.8572 0.95 10.6145 0.95ZM10.6145 5.44458H1.38554C1.25789 5.44458 1.14794 5.51337 1.0716 5.61406C0.995318 5.71467 0.95 5.84986 0.95 5.99225C0.95 6.28827 1.14284 6.53991 1.38554 6.53991H10.6024C10.7301 6.53991 10.84 6.47112 10.9163 6.37043C10.9924 6.27009 11.0377 6.13534 11.038 5.99337C11.0442 5.84984 10.9985 5.7144 10.9224 5.61406C10.8464 5.51384 10.7365 5.44458 10.6145 5.44458ZM10.6145 9.95466H1.38554C1.25789 9.95466 1.14794 10.0235 1.0716 10.1241C0.995318 10.2248 0.95 10.3599 0.95 10.5023C0.95 10.6456 0.99883 10.7808 1.07644 10.8809C1.15375 10.9807 1.26342 11.05 1.38554 11.05H10.6024C10.7301 11.05 10.84 10.9812 10.9163 10.8805C10.9926 10.7799 11.038 10.6447 11.038 10.5023C11.038 10.3599 10.9926 10.225 10.9182 10.1246C10.8439 10.0244 10.737 9.95466 10.6145 9.95466Z" fill="#202020" stroke="#202020" stroke-width="0.1"/>
</svg>
