<svg width="14" height="14" viewBox="0 0 14 14" fill="none" xmlns="http://www.w3.org/2000/svg">
<path d="M6.30358 7C6.30358 7.1847 6.37695 7.36184 6.50756 7.49245C6.63816 7.62305 6.8153 7.69643 7 7.69643C7.1847 7.69643 7.36184 7.62305 7.49244 7.49245C7.62305 7.36184 7.69642 7.1847 7.69642 7C7.69642 6.8153 7.62305 6.63816 7.49244 6.50755C7.36184 6.37694 7.1847 6.30357 7 6.30357C6.8153 6.30357 6.63816 6.37694 6.50756 6.50755C6.37695 6.63816 6.30358 6.8153 6.30358 7V7ZM9.20533 7C9.20533 7.1847 9.2787 7.36184 9.40931 7.49245C9.53991 7.62305 9.71705 7.69643 9.90175 7.69643C10.0865 7.69643 10.2636 7.62305 10.3942 7.49245C10.5248 7.36184 10.5982 7.1847 10.5982 7C10.5982 6.8153 10.5248 6.63816 10.3942 6.50755C10.2636 6.37694 10.0865 6.30357 9.90175 6.30357C9.71705 6.30357 9.53991 6.37694 9.40931 6.50755C9.2787 6.63816 9.20533 6.8153 9.20533 7ZM3.40183 7C3.40183 7.1847 3.4752 7.36184 3.60581 7.49245C3.73641 7.62305 3.91355 7.69643 4.09825 7.69643C4.28295 7.69643 4.46009 7.62305 4.59069 7.49245C4.7213 7.36184 4.79467 7.1847 4.79467 7C4.79467 6.8153 4.7213 6.63816 4.59069 6.50755C4.46009 6.37694 4.28295 6.30357 4.09825 6.30357C3.91355 6.30357 3.73641 6.37694 3.60581 6.50755C3.4752 6.63816 3.40183 6.8153 3.40183 7V7ZM12.995 4.48125C12.6671 3.70212 12.197 3.00279 11.5978 2.40212C11.0028 1.80493 10.2964 1.33023 9.51872 1.00491C8.72074 0.669754 7.87343 0.5 7 0.5H6.97098C6.09175 0.504353 5.24009 0.67846 4.43921 1.02087C3.66815 1.34953 2.9684 1.82507 2.37897 2.42098C1.78556 3.0202 1.31983 3.71663 0.997732 4.49286C0.664031 5.29665 0.49573 6.15123 0.500082 7.03047C0.505005 8.03807 0.743382 9.03082 1.1965 9.9308V12.1362C1.1965 12.3132 1.26682 12.4829 1.39198 12.6081C1.51714 12.7333 1.6869 12.8036 1.8639 12.8036H4.07068C4.97065 13.2567 5.96339 13.4951 6.97098 13.5H7.00145C7.87053 13.5 8.71348 13.3317 9.50711 13.0023C10.2809 12.6809 10.9846 12.2117 11.579 11.6211C12.1782 11.0277 12.6497 10.3342 12.9791 9.56083C13.3215 8.75993 13.4956 7.90826 13.4999 7.02902C13.5043 6.14542 13.3331 5.28795 12.995 4.48125V4.48125ZM10.8027 10.8362C9.78568 11.8431 8.43637 12.3973 7 12.3973H6.97534C6.10046 12.393 5.23138 12.1753 4.46387 11.7662L4.342 11.7009H2.29917V9.65804L2.23388 9.53616C1.82473 8.76864 1.6071 7.89955 1.60275 7.02467C1.59694 5.57813 2.14973 4.22009 3.16389 3.19721C4.1766 2.17433 5.53026 1.60848 6.97679 1.60268H7.00145C7.72689 1.60268 8.43056 1.74342 9.09361 2.02199C9.7407 2.2933 10.3211 2.68359 10.8202 3.1827C11.3178 3.68036 11.7095 4.26217 11.9809 4.90926C12.2623 5.57958 12.4031 6.29051 12.4002 7.02467C12.3915 8.46975 11.8242 9.82344 10.8027 10.8362V10.8362Z" fill="#202020"/>
</svg>
