<svg width="12" height="12" viewBox="0 0 12 12" fill="none" xmlns="http://www.w3.org/2000/svg">
<path d="M1.8 0.5H10.2C10.6774 0.5 11.1352 0.682925 11.4728 1.00854C11.8104 1.33414 12 1.77577 12 2.23625V6.86624C12 7.32672 11.8104 7.76834 11.4728 8.09395C11.1352 8.41956 10.6774 8.60249 10.2 8.60249H6.0252L2.1588 11.3851C2.06957 11.4493 1.96358 11.4883 1.85269 11.4978C1.74179 11.5072 1.63036 11.4867 1.53087 11.4385C1.43137 11.3903 1.34773 11.3164 1.28929 11.225C1.23086 11.1336 1.19994 11.0283 1.2 10.921V8.60249C0.88174 8.60249 0.576515 8.48054 0.351472 8.26347C0.126428 8.04639 0 7.75198 0 7.44499V2.23625C0 1.77577 0.189642 1.33414 0.527208 1.00854C0.864773 0.682925 1.32261 0.5 1.8 0.5ZM7.8 5.70874C8.11826 5.70874 8.42348 5.58679 8.64853 5.36972C8.87357 5.15265 9 4.85823 9 4.55124C9 4.24426 8.87357 3.94984 8.64853 3.73277C8.42348 3.5157 8.11826 3.39375 7.8 3.39375C7.48174 3.39375 7.17652 3.5157 6.95147 3.73277C6.72643 3.94984 6.6 4.24426 6.6 4.55124C6.6 4.85823 6.72643 5.15265 6.95147 5.36972C7.17652 5.58679 7.48174 5.70874 7.8 5.70874ZM4.2 5.70874C4.51826 5.70874 4.82348 5.58679 5.04853 5.36972C5.27357 5.15265 5.4 4.85823 5.4 4.55124C5.4 4.24426 5.27357 3.94984 5.04853 3.73277C4.82348 3.5157 4.51826 3.39375 4.2 3.39375C3.88174 3.39375 3.57652 3.5157 3.35147 3.73277C3.12643 3.94984 3 4.24426 3 4.55124C3 4.85823 3.12643 5.15265 3.35147 5.36972C3.57652 5.58679 3.88174 5.70874 4.2 5.70874Z" fill="#202020"/>
</svg>
