<svg width="22" height="22" viewBox="0 0 22 22" fill="none" xmlns="http://www.w3.org/2000/svg">
<g filter="url(#filter0_d_244_1545)">
<path fill-rule="evenodd" clip-rule="evenodd" d="M11.056 2.45901C11.2305 2.76865 11.2068 3.15191 10.9955 3.43773C10.2253 4.47981 9.85463 5.76374 9.95099 7.05601C10.0474 8.34827 10.6044 9.56303 11.5207 10.4793C12.437 11.3956 13.6517 11.9526 14.944 12.049C16.2363 12.1454 17.5202 11.7747 18.5623 11.0045C18.8481 10.7932 19.2313 10.7695 19.541 10.944C19.8506 11.1185 20.0289 11.4586 19.9962 11.8126C19.8386 13.518 19.1985 15.1433 18.1509 16.4983C17.1033 17.8533 15.6914 18.8818 14.0806 19.4637C12.4697 20.0456 10.7265 20.1566 9.05478 19.7839C7.38311 19.4111 5.85216 18.57 4.64108 17.3589C3.43 16.1478 2.58888 14.6169 2.21614 12.9452C1.84339 11.2735 1.95444 9.53029 2.5363 7.91943C3.11815 6.30857 4.14674 4.89673 5.50171 3.84912C6.85668 2.8015 8.48198 2.16145 10.1874 2.00384C10.5414 1.97113 10.8815 2.14938 11.056 2.45901ZM8.56291 4.19937C7.86172 4.45307 7.2006 4.81521 6.60481 5.27585C5.52084 6.11394 4.69796 7.24341 4.23248 8.5321C3.767 9.82079 3.67816 11.2154 3.97635 12.5527C4.27454 13.8901 4.94744 15.1148 5.91631 16.0837C6.88517 17.0526 8.10993 17.7255 9.44727 18.0236C10.7846 18.3218 12.1792 18.233 13.4679 17.7675C14.7566 17.302 15.8861 16.4792 16.7241 15.3952C17.1848 14.7994 17.5469 14.1383 17.8006 13.4371C16.851 13.7807 15.8324 13.9237 14.8099 13.8475C13.0869 13.719 11.4672 12.9763 10.2454 11.7546C9.02369 10.5328 8.28104 8.91315 8.15255 7.19012C8.07629 6.1676 8.21934 5.14899 8.56291 4.19937Z" fill="#F8E08B"/>
</g>
<defs>
<filter id="filter0_d_244_1545" x="0" y="0" width="22" height="22" filterUnits="userSpaceOnUse" color-interpolation-filters="sRGB">
<feFlood flood-opacity="0" result="BackgroundImageFix"/>
<feColorMatrix in="SourceAlpha" type="matrix" values="0 0 0 0 0 0 0 0 0 0 0 0 0 0 0 0 0 0 127 0" result="hardAlpha"/>
<feOffset/>
<feGaussianBlur stdDeviation="1"/>
<feComposite in2="hardAlpha" operator="out"/>
<feColorMatrix type="matrix" values="0 0 0 0 0.972549 0 0 0 0 0.87851 0 0 0 0 0.545098 0 0 0 1 0"/>
<feBlend mode="normal" in2="BackgroundImageFix" result="effect1_dropShadow_244_1545"/>
<feBlend mode="normal" in="SourceGraphic" in2="effect1_dropShadow_244_1545" result="shape"/>
</filter>
</defs>
</svg>
