<svg width="14" height="14" viewBox="0 0 14 14" fill="none" xmlns="http://www.w3.org/2000/svg">
<path fill-rule="evenodd" clip-rule="evenodd" d="M7 1.27273C3.83691 1.27273 1.27273 3.83691 1.27273 7C1.27273 10.1631 3.83691 12.7273 7 12.7273C10.1631 12.7273 12.7273 10.1631 12.7273 7C12.7273 3.83691 10.1631 1.27273 7 1.27273ZM0 7C0 3.13401 3.13401 0 7 0C10.866 0 14 3.13401 14 7C14 10.866 10.866 14 7 14C3.13401 14 0 10.866 0 7ZM7 3.81818C7.35145 3.81818 7.63636 4.10309 7.63636 4.45455V6.36364H9.54545C9.89691 6.36364 10.1818 6.64855 10.1818 7C10.1818 7.35145 9.89691 7.63636 9.54545 7.63636H7.63636V9.54545C7.63636 9.89691 7.35145 10.1818 7 10.1818C6.64855 10.1818 6.36364 9.89691 6.36364 9.54545V7.63636H4.45455C4.10309 7.63636 3.81818 7.35145 3.81818 7C3.81818 6.64855 4.10309 6.36364 4.45455 6.36364H6.36364V4.45455C6.36364 4.10309 6.64855 3.81818 7 3.81818Z" fill="#1A1A18"/>
</svg>
