<svg width="20" height="22" viewBox="0 0 20 22" fill="none" xmlns="http://www.w3.org/2000/svg">
<path fill-rule="evenodd" clip-rule="evenodd" d="M10 2.2C8.15905 2.2 6.66667 3.67746 6.66667 5.5C6.66667 7.32254 8.15905 8.8 10 8.8C11.8409 8.8 13.3333 7.32254 13.3333 5.5C13.3333 3.67746 11.841 2.2 10 2.2ZM4.44444 5.5C4.44444 2.46243 6.93175 0 10 0C13.0682 0 15.5556 2.46243 15.5556 5.5C15.5556 8.53757 13.0682 11 10 11C6.93175 11 4.44444 8.53757 4.44444 5.5ZM1.62718 14.8109C2.66905 13.7795 4.08213 13.2 5.55556 13.2H14.4444C15.9179 13.2 17.3309 13.7795 18.3728 14.8109C19.4147 15.8424 20 17.2413 20 18.7V20.9C20 21.5075 19.5025 22 18.8889 22C18.2752 22 17.7778 21.5075 17.7778 20.9V18.7C17.7778 17.8248 17.4266 16.9854 16.8015 16.3665C16.1763 15.7477 15.3285 15.4 14.4444 15.4H5.55556C4.6715 15.4 3.82365 15.7477 3.19853 16.3665C2.57341 16.9854 2.22222 17.8248 2.22222 18.7V20.9C2.22222 21.5075 1.72476 22 1.11111 22C0.497461 22 0 21.5075 0 20.9V18.7C0 17.2413 0.585316 15.8424 1.62718 14.8109Z" fill="#1A1A18"/>
</svg>
