<svg width="21" height="21" viewBox="0 0 21 21" fill="none" xmlns="http://www.w3.org/2000/svg">
<path fill-rule="evenodd" clip-rule="evenodd" d="M18.0369 1.89862C17.7546 1.89862 17.4838 2.01077 17.2842 2.2104L8.45168 11.0429L7.94988 13.0501L9.95708 12.5483L18.7896 3.7158C18.9892 3.51617 19.1014 3.24542 19.1014 2.9631C19.1014 2.68078 18.9892 2.41003 18.7896 2.2104C18.59 2.01077 18.3192 1.89862 18.0369 1.89862ZM15.9417 0.867872C16.4974 0.312183 17.251 0 18.0369 0C18.8228 0 19.5764 0.312183 20.1321 0.867872C20.6878 1.42356 21 2.17724 21 2.9631C21 3.74897 20.6878 4.50264 20.1321 5.05833L11.1137 14.0768C10.992 14.1984 10.8396 14.2848 10.6727 14.3265L6.87541 15.2758C6.55191 15.3567 6.2097 15.2619 5.97391 15.0261C5.73812 14.7903 5.64333 14.4481 5.72421 14.1246L6.67352 10.3273C6.71525 10.1604 6.80156 10.008 6.92322 9.88632L15.9417 0.867872ZM0.83414 2.84793C1.36823 2.31384 2.09261 2.01379 2.84793 2.01379H9.4931C10.0174 2.01379 10.4424 2.43881 10.4424 2.9631C10.4424 3.48739 10.0174 3.91241 9.4931 3.91241H2.84793C2.59616 3.91241 2.3547 4.01243 2.17667 4.19046C1.99864 4.36849 1.89862 4.60995 1.89862 4.86172V18.1521C1.89862 18.4038 1.99864 18.6453 2.17667 18.8233C2.3547 19.0014 2.59616 19.1014 2.84793 19.1014H16.1383C16.39 19.1014 16.6315 19.0014 16.8095 18.8233C16.9876 18.6453 17.0876 18.4038 17.0876 18.1521V11.5069C17.0876 10.9826 17.5126 10.5576 18.0369 10.5576C18.5612 10.5576 18.9862 10.9826 18.9862 11.5069V18.1521C18.9862 18.9074 18.6862 19.6318 18.1521 20.1659C17.618 20.7 16.8936 21 16.1383 21H2.84793C2.09261 21 1.36823 20.7 0.83414 20.1659C0.300049 19.6318 0 18.9074 0 18.1521V4.86172C0 4.1064 0.300049 3.38202 0.83414 2.84793Z" fill="#1A1A18"/>
</svg>
