<svg width="12" height="12" viewBox="0 0 12 12" fill="none" xmlns="http://www.w3.org/2000/svg">
<path d="M9.5 5C9.5 5.13261 9.44732 5.25979 9.35355 5.35355C9.25979 5.44732 9.13261 5.5 9 5.5H5C4.86739 5.5 4.74021 5.44732 4.64645 5.35355C4.55268 5.25979 4.5 5.13261 4.5 5C4.5 4.86739 4.55268 4.74021 4.64645 4.64645C4.74021 4.55268 4.86739 4.5 5 4.5H9C9.13261 4.5 9.25979 4.55268 9.35355 4.64645C9.44732 4.74021 9.5 4.86739 9.5 5ZM9 6.5H5C4.86739 6.5 4.74021 6.55268 4.64645 6.64645C4.55268 6.74021 4.5 6.86739 4.5 7C4.5 7.13261 4.55268 7.25979 4.64645 7.35355C4.74021 7.44732 4.86739 7.5 5 7.5H9C9.13261 7.5 9.25979 7.44732 9.35355 7.35355C9.44732 7.25979 9.5 7.13261 9.5 7C9.5 6.86739 9.44732 6.74021 9.35355 6.64645C9.25979 6.55268 9.13261 6.5 9 6.5ZM12 1V11C11.9997 11.2651 11.8942 11.5193 11.7068 11.7068C11.5193 11.8942 11.2651 11.9997 11 12H1C0.734875 11.9997 0.480694 11.8942 0.293222 11.7068C0.10575 11.5193 0.000297764 11.2651 0 11V1C0.000297764 0.734875 0.10575 0.480694 0.293222 0.293222C0.480694 0.10575 0.734875 0.000297764 1 0H11C11.2651 0.000297764 11.5193 0.10575 11.7068 0.293222C11.8942 0.480694 11.9997 0.734875 12 1ZM1 11H2.5V1H1V11ZM11.0006 11L11 1H3.5V11H11.0006Z" fill="#202020"/>
</svg>
