<svg width="12" height="14" viewBox="0 0 12 14" fill="none" xmlns="http://www.w3.org/2000/svg">
<path d="M6.00001 0.999491C5.80302 0.999491 5.60797 1.03829 5.42598 1.11367C5.24399 1.18905 5.07863 1.29954 4.93935 1.43883C4.80006 1.57812 4.68957 1.74348 4.61419 1.92547C4.5388 2.10745 4.50001 2.30251 4.50001 2.49949C4.50001 2.69647 4.5388 2.89153 4.61419 3.07352C4.68957 3.2555 4.80006 3.42086 4.93935 3.56015C5.07863 3.69944 5.24399 3.80993 5.42598 3.88531C5.60797 3.96069 5.80302 3.99949 6.00001 3.99949C6.39783 3.99949 6.77936 3.84146 7.06067 3.56015C7.34197 3.27885 7.50001 2.89732 7.50001 2.49949C7.50001 2.10167 7.34197 1.72014 7.06067 1.43883C6.77936 1.15753 6.39783 0.999491 6.00001 0.999491ZM3.50001 2.49949C3.5001 2.02648 3.63439 1.56319 3.88727 1.16345C4.14016 0.763711 4.50126 0.443914 4.92863 0.241204C5.35601 0.0384945 5.83213 -0.0388095 6.30169 0.0182707C6.77125 0.0753509 7.21498 0.264473 7.58134 0.563671C7.94771 0.862869 8.22167 1.25987 8.37142 1.70855C8.52117 2.15724 8.54055 2.6392 8.42732 3.09846C8.31409 3.55772 8.07288 3.97544 7.73173 4.30309C7.39057 4.63074 6.96346 4.85489 6.50001 4.94949V6.49949H8.50001C8.89783 6.49949 9.27936 6.65753 9.56067 6.93883C9.84197 7.22014 10 7.60167 10 7.99949V9.04949C10.607 9.1734 11.1464 9.51828 11.5136 10.0173C11.8808 10.5163 12.0496 11.1339 11.9873 11.7503C11.9251 12.3667 11.6362 12.938 11.1766 13.3535C10.717 13.7689 10.1195 13.999 9.50001 13.999C8.88047 13.999 8.283 13.7689 7.82343 13.3535C7.36386 12.938 7.07493 12.3667 7.01267 11.7503C6.9504 11.1339 7.11922 10.5163 7.48641 10.0173C7.85359 9.51828 8.39298 9.1734 9.00001 9.04949V7.99949C9.00001 7.86688 8.94733 7.73971 8.85356 7.64594C8.75979 7.55217 8.63261 7.49949 8.50001 7.49949H3.50001C3.3674 7.49949 3.24022 7.55217 3.14645 7.64594C3.05268 7.73971 3.00001 7.86688 3.00001 7.99949V9.04949C3.60703 9.1734 4.14642 9.51828 4.5136 10.0173C4.88079 10.5163 5.04962 11.1339 4.98735 11.7503C4.92508 12.3667 4.63615 12.938 4.17658 13.3535C3.71701 13.7689 3.11954 13.999 2.50001 13.999C1.88047 13.999 1.283 13.7689 0.823429 13.3535C0.363861 12.938 0.0749344 12.3667 0.0126653 11.7503C-0.0496039 11.1339 0.11922 10.5163 0.486407 10.0173C0.853594 9.51828 1.39298 9.1734 2.00001 9.04949V7.99949C2.00001 7.60167 2.15804 7.22014 2.43935 6.93883C2.72065 6.65753 3.10218 6.49949 3.50001 6.49949H5.50001V4.94949C4.93532 4.83423 4.42781 4.5274 4.06335 4.08094C3.6989 3.63448 3.49989 3.07582 3.50001 2.49949V2.49949ZM2.50001 9.99949C2.30302 9.99949 2.10797 10.0383 1.92598 10.1137C1.74399 10.1891 1.57863 10.2995 1.43935 10.4388C1.30006 10.5781 1.18957 10.7435 1.11419 10.9255C1.0388 11.1075 1.00001 11.3025 1.00001 11.4995C1.00001 11.6965 1.0388 11.8915 1.11419 12.0735C1.18957 12.2555 1.30006 12.4209 1.43935 12.5602C1.57863 12.6994 1.74399 12.8099 1.92598 12.8853C2.10797 12.9607 2.30302 12.9995 2.50001 12.9995C2.89783 12.9995 3.27936 12.8415 3.56067 12.5602C3.84197 12.2788 4.00001 11.8973 4.00001 11.4995C4.00001 11.1017 3.84197 10.7201 3.56067 10.4388C3.27936 10.1575 2.89783 9.99949 2.50001 9.99949ZM9.50001 9.99949C9.30302 9.99949 9.10797 10.0383 8.92598 10.1137C8.74399 10.1891 8.57863 10.2995 8.43935 10.4388C8.30006 10.5781 8.18957 10.7435 8.11419 10.9255C8.0388 11.1075 8.00001 11.3025 8.00001 11.4995C8.00001 11.6965 8.0388 11.8915 8.11419 12.0735C8.18957 12.2555 8.30006 12.4209 8.43935 12.5602C8.57863 12.6994 8.74399 12.8099 8.92598 12.8853C9.10797 12.9607 9.30302 12.9995 9.50001 12.9995C9.89783 12.9995 10.2794 12.8415 10.5607 12.5602C10.842 12.2788 11 11.8973 11 11.4995C11 11.1017 10.842 10.7201 10.5607 10.4388C10.2794 10.1575 9.89783 9.99949 9.50001 9.99949Z" fill="#202020"/>
</svg>
