<svg width="12" height="12" viewBox="0 0 12 12" fill="none" xmlns="http://www.w3.org/2000/svg">
<path d="M8.07186 0.440947C7.90595 0.274788 7.70333 0.149809 7.48028 0.07605C7.25723 0.00229106 7.01997 -0.0181915 6.78756 0.0162475C6.55515 0.0506865 6.33407 0.139087 6.14207 0.274348C5.95007 0.409609 5.79251 0.587959 5.68205 0.795071L3.65883 4.5864L0.843343 5.52373C0.762296 5.55062 0.689479 5.59776 0.631814 5.66067C0.574149 5.72359 0.533551 5.80019 0.513879 5.88319C0.494207 5.96619 0.496114 6.05284 0.519419 6.1349C0.542724 6.21695 0.586653 6.2917 0.647031 6.35202L2.79746 8.49877L0.146233 11.1467L0 12L0.855363 11.8539L3.50558 9.20602L5.65501 11.3538C5.71541 11.4141 5.79024 11.4579 5.8724 11.4812C5.95456 11.5045 6.04132 11.5064 6.12442 11.4868C6.20753 11.4671 6.28422 11.4266 6.34721 11.369C6.41021 11.3114 6.45741 11.2387 6.48433 11.1577L7.42282 8.34672L11.2079 6.32201C11.4142 6.21147 11.5917 6.05431 11.7264 5.86307C11.8611 5.67182 11.9492 5.45178 11.9837 5.2205C12.0181 4.98923 11.9979 4.75311 11.9248 4.53099C11.8517 4.30887 11.7276 4.10689 11.5624 3.94117L8.07286 0.439947L8.07186 0.440947ZM6.56546 1.26524C6.60226 1.19608 6.6548 1.13652 6.71885 1.09135C6.78291 1.04618 6.85669 1.01667 6.93426 1.00518C7.01182 0.993699 7.091 1.00057 7.16542 1.02523C7.23984 1.0499 7.30743 1.09167 7.36273 1.14719L10.8533 4.64642C10.9085 4.70166 10.95 4.76903 10.9744 4.84314C10.9989 4.91725 11.0056 4.99605 10.9941 5.07324C10.9827 5.15043 10.9532 5.22386 10.9083 5.28766C10.8633 5.35147 10.804 5.40388 10.7351 5.4407L6.77479 7.55744C6.66203 7.61792 6.57673 7.71922 6.53641 7.84054L5.79123 10.0743L1.92907 6.21697L4.16463 5.47271C4.28645 5.43196 4.38793 5.34601 4.44809 5.23263L6.56546 1.26624V1.26524Z" fill="#202020"/>
</svg>
