<svg width="10" height="10" viewBox="0 0 10 10" fill="none" xmlns="http://www.w3.org/2000/svg">
<path d="M5.59328 0.59322C5.59328 0.265594 5.32769 0 5.00006 0C4.67244 0 4.40684 0.265594 4.40684 0.59322V4.40674H0.59322C0.265594 4.40674 0 4.67233 0 4.99996C0 5.32759 0.265594 5.59318 0.59322 5.59318H4.40684V9.40678C4.40684 9.73441 4.67244 10 5.00006 10C5.32769 10 5.59328 9.73441 5.59328 9.40678V5.59318H9.40678C9.73441 5.59318 10 5.32759 10 4.99996C10 4.67233 9.73441 4.40674 9.40678 4.40674H5.59328V0.59322Z" fill="#202020"/>
</svg>
