<svg width="14" height="14" viewBox="0 0 14 14" fill="none" xmlns="http://www.w3.org/2000/svg">
<path d="M13 7.92858C13.0009 7.46366 12.8862 7.00591 12.6662 6.59704C12.4462 6.18816 12.128 5.84117 11.7406 5.5877C11.3532 5.33422 10.9088 5.18231 10.4481 5.14583C9.98737 5.10934 9.52488 5.18943 9.1028 5.3788C8.68071 5.56817 8.31245 5.8608 8.03159 6.23001C7.75072 6.59922 7.56618 7.03327 7.49478 7.4926C7.42339 7.95193 7.46741 8.42193 7.62283 8.85977C7.77825 9.2976 8.04014 9.68935 8.38461 9.99929V13.5L10.2308 12.6211L12.0769 13.5V9.99929C12.3671 9.739 12.5993 9.41999 12.7584 9.06314C12.9174 8.70629 12.9998 8.31966 13 7.92858ZM11.1538 12.0329L10.2308 11.5932L9.30769 12.0329V10.5518C9.90422 10.7685 10.5573 10.7685 11.1538 10.5518V12.0329ZM10.2308 9.78572C9.86563 9.78572 9.5087 9.6768 9.2051 9.47273C8.9015 9.26867 8.66487 8.97862 8.52514 8.63927C8.38541 8.29992 8.34885 7.92651 8.42009 7.56626C8.49132 7.20601 8.66715 6.8751 8.92534 6.61538C9.18353 6.35565 9.51248 6.17878 9.8706 6.10712C10.2287 6.03546 10.5999 6.07224 10.9373 6.2128C11.2746 6.35336 11.5629 6.5914 11.7658 6.8968C11.9686 7.20221 12.0769 7.56127 12.0769 7.92858C12.0763 8.42093 11.8816 8.89295 11.5355 9.24109C11.1894 9.58924 10.7202 9.7851 10.2308 9.78572Z" fill="#202020"/>
<path d="M3.30769 6.07142H6.53846V7H3.30769V6.07142Z" fill="#202020"/>
<path d="M3.30769 3.28571H7.92307V4.21428H3.30769V3.28571Z" fill="#202020"/>
<path d="M1.92308 12.5C1.67834 12.4997 1.44369 12.4018 1.27063 12.2277C1.09758 12.0537 1.00024 11.8176 1 11.5714V1.42857C1.00024 1.18237 1.09758 0.946331 1.27063 0.772244C1.44369 0.598156 1.67834 0.500246 1.92308 0.5H9.30769C9.55243 0.500246 9.78707 0.598156 9.96013 0.772244C10.1332 0.946331 10.2305 1.18237 10.2308 1.42857V3.28571H9.30769V1.42857H1.92308V11.5714H6.53846V12.5H1.92308Z" fill="#202020"/>
<path d="M13 7.92858C13.0009 7.46366 12.8862 7.00591 12.6662 6.59704C12.4462 6.18816 12.128 5.84117 11.7406 5.5877C11.3532 5.33422 10.9088 5.18231 10.4481 5.14583C9.98737 5.10934 9.52488 5.18943 9.1028 5.3788C8.68071 5.56817 8.31245 5.8608 8.03159 6.23001C7.75072 6.59922 7.56618 7.03327 7.49478 7.4926C7.42339 7.95193 7.46741 8.42193 7.62283 8.85977C7.77825 9.2976 8.04014 9.68935 8.38461 9.99929V13.5L10.2308 12.6211L12.0769 13.5V9.99929C12.3671 9.739 12.5993 9.41999 12.7584 9.06314C12.9174 8.70629 12.9998 8.31966 13 7.92858ZM11.1538 12.0329L10.2308 11.5932L9.30769 12.0329V10.5518C9.90422 10.7685 10.5573 10.7685 11.1538 10.5518V12.0329ZM10.2308 9.78572C9.86563 9.78572 9.5087 9.6768 9.2051 9.47273C8.9015 9.26867 8.66487 8.97862 8.52514 8.63927C8.38541 8.29992 8.34885 7.92651 8.42009 7.56626C8.49132 7.20601 8.66715 6.8751 8.92534 6.61538C9.18353 6.35565 9.51248 6.17878 9.8706 6.10712C10.2287 6.03546 10.5999 6.07224 10.9373 6.2128C11.2746 6.35336 11.5629 6.5914 11.7658 6.8968C11.9686 7.20221 12.0769 7.56127 12.0769 7.92858C12.0763 8.42093 11.8816 8.89295 11.5355 9.24109C11.1894 9.58924 10.7202 9.7851 10.2308 9.78572Z" stroke="#202020" stroke-width="0.1"/>
<path d="M3.30769 6.07142H6.53846V7H3.30769V6.07142Z" stroke="#202020" stroke-width="0.1"/>
<path d="M3.30769 3.28571H7.92307V4.21428H3.30769V3.28571Z" stroke="#202020" stroke-width="0.1"/>
<path d="M1.92308 12.5C1.67834 12.4997 1.44369 12.4018 1.27063 12.2277C1.09758 12.0537 1.00024 11.8176 1 11.5714V1.42857C1.00024 1.18237 1.09758 0.946331 1.27063 0.772244C1.44369 0.598156 1.67834 0.500246 1.92308 0.5H9.30769C9.55243 0.500246 9.78707 0.598156 9.96013 0.772244C10.1332 0.946331 10.2305 1.18237 10.2308 1.42857V3.28571H9.30769V1.42857H1.92308V11.5714H6.53846V12.5H1.92308Z" stroke="#202020" stroke-width="0.1"/>
</svg>
