<svg width="14" height="13" viewBox="0 0 14 13" fill="none" xmlns="http://www.w3.org/2000/svg">
<path d="M5.84257 0.0493931C5.7888 0.0169714 5.72868 0 5.66761 0C5.60654 0 5.54642 0.0169714 5.49265 0.0493931L1.08246 2.70932C0.90647 2.81543 0.7594 2.97292 0.656853 3.16507C0.554305 3.35722 0.500105 3.57688 0.5 3.80074V8.68155C0.5 9.12013 0.655555 9.54074 0.932445 9.85087C1.20933 10.161 1.58488 10.3352 1.97646 10.3352H9.35876C9.75034 10.3352 10.1259 10.161 10.4028 9.85087C10.6797 9.54074 10.8352 9.12013 10.8352 8.68155V3.80074C10.8351 3.57688 10.7809 3.35722 10.6784 3.16507C10.5758 2.97292 10.4287 2.81543 10.2528 2.70932L5.84257 0.0493931ZM1.43238 3.43693L5.66761 0.882016L9.90283 3.43693C9.94786 3.4642 9.98733 3.50164 10.0187 3.5469L5.66761 6.14564L1.31648 3.5469C1.34789 3.50164 1.38736 3.4642 1.43238 3.43693V3.43693ZM1.23823 4.4374L5.49412 6.97827C5.54753 7.01012 5.6071 7.02678 5.66761 7.02678C5.72811 7.02678 5.78769 7.01012 5.84109 6.97827L10.097 4.4374V8.68155C10.097 8.90084 10.0192 9.11115 9.88076 9.26621C9.74232 9.42127 9.55455 9.50838 9.35876 9.50838H1.97646C1.78067 9.50838 1.5929 9.42127 1.45445 9.26621C1.31601 9.11115 1.23823 8.90084 1.23823 8.68155V4.4374Z" fill="#202020"/>
<circle cx="9.19995" cy="8" r="4" fill="white"/>
<path d="M8.31497 7.4575L9.21766 6.55522L9.21768 6.55521C9.28338 6.48951 9.32029 6.4004 9.32029 6.3075C9.32029 6.21459 9.28338 6.12548 9.21768 6.05978C9.15198 5.99409 9.06288 5.95718 8.96997 5.95718C8.87706 5.95718 8.78796 5.99409 8.72226 6.05978L7.22235 7.5597L7.22226 7.55978L7.29297 7.6305C7.26969 7.65372 7.25122 7.68131 7.23861 7.71168C7.22601 7.74205 7.21952 7.77461 7.21952 7.8075C7.21952 7.84038 7.22601 7.87294 7.23861 7.90331C7.25122 7.93368 7.26969 7.96127 7.29297 7.9845M8.31497 7.4575L7.22226 8.05521L7.29297 7.9845M8.31497 7.4575H10.97C11.0628 7.4575 11.1518 7.49437 11.2175 7.56001C11.2831 7.62565 11.32 7.71467 11.32 7.8075C11.32 7.90032 11.2831 7.98934 11.2175 8.05498C11.1518 8.12062 11.0628 8.1575 10.97 8.1575H8.31497M8.31497 7.4575L8.21493 8.0575L8.31497 8.1575M7.29297 7.9845L7.22235 8.05529L8.72226 9.55521C8.75479 9.58774 8.79341 9.61354 8.83591 9.63115C8.87841 9.64875 8.92397 9.65781 8.96997 9.65781C9.01597 9.65781 9.06153 9.64875 9.10403 9.63115C9.14653 9.61354 9.18515 9.58774 9.21768 9.55521C9.25021 9.52268 9.27602 9.48406 9.29362 9.44156C9.31123 9.39905 9.32029 9.3535 9.32029 9.3075C9.32029 9.26149 9.31123 9.21594 9.29362 9.17343C9.27602 9.13093 9.25021 9.09231 9.21768 9.05978L9.21766 9.05977L8.31497 8.1575M7.29297 7.9845L8.79297 9.4845C8.81621 9.50774 8.84381 9.52618 8.87418 9.53876C8.90455 9.55134 8.9371 9.55781 8.96997 9.55781C9.00284 9.55781 9.03539 9.55134 9.06576 9.53876C9.09613 9.52618 9.12373 9.50774 9.14697 9.4845C9.17021 9.46125 9.18865 9.43366 9.20123 9.40329C9.21381 9.37292 9.22029 9.34037 9.22029 9.3075C9.22029 9.27462 9.21381 9.24207 9.20123 9.2117C9.18865 9.18133 9.17021 9.15374 9.14697 9.1305L8.17352 8.1575H8.31497M6.81581 10.2117C6.17818 9.57403 5.81997 8.70923 5.81997 7.8075C5.81997 6.90576 6.17818 6.04096 6.81581 5.40333C7.45343 4.76571 8.31823 4.4075 9.21997 4.4075C10.1217 4.4075 10.9865 4.76571 11.6241 5.40333C12.2618 6.04096 12.62 6.90576 12.62 7.8075C12.62 8.70923 12.2618 9.57403 11.6241 10.2117C10.9865 10.8493 10.1217 11.2075 9.21997 11.2075C8.31823 11.2075 7.45343 10.8493 6.81581 10.2117ZM12.1191 10.7066C12.888 9.93773 13.32 8.89488 13.32 7.8075C13.32 6.72011 12.888 5.67726 12.1191 4.90836C11.3502 4.13946 10.3074 3.7075 9.21997 3.7075C8.13258 3.7075 7.08973 4.13946 6.32083 4.90836C5.55193 5.67726 5.11997 6.72011 5.11997 7.8075C5.11997 8.89488 5.55193 9.93773 6.32083 10.7066C7.08973 11.4755 8.13258 11.9075 9.21997 11.9075C10.3074 11.9075 11.3502 11.4755 12.1191 10.7066Z" fill="#202020" stroke="#202020" stroke-width="0.2"/>
</svg>
