<svg width="14" height="13" viewBox="0 0 14 13" fill="none" xmlns="http://www.w3.org/2000/svg">
<path d="M0.5 7.628C0.5 8.10062 0.681214 8.55387 1.00378 8.88806C1.32634 9.22225 1.76383 9.41 2.22 9.41H9.1C9.55617 9.41 9.99366 9.22225 10.3162 8.88806C10.6388 8.55387 10.82 8.10062 10.82 7.628V2.282C10.82 1.80938 10.6388 1.35613 10.3162 1.02194C9.99366 0.687746 9.55617 0.5 9.1 0.5H2.22C1.76383 0.5 1.32634 0.687746 1.00378 1.02194C0.681214 1.35613 0.5 1.80938 0.5 2.282V7.628ZM2.22 1.391H9.1C9.32809 1.391 9.54683 1.48487 9.70811 1.65197C9.86939 1.81906 9.96 2.04569 9.96 2.282V2.94134L5.66 5.33991L1.36 2.94134V2.282C1.36 2.04569 1.45061 1.81906 1.61189 1.65197C1.77317 1.48487 1.99191 1.391 2.22 1.391ZM1.36 3.95352L5.45618 6.23804C5.51882 6.27298 5.58886 6.29127 5.66 6.29127C5.73114 6.29127 5.80118 6.27298 5.86382 6.23804L9.96 3.95352V7.628C9.96 7.86431 9.86939 8.09094 9.70811 8.25803C9.54683 8.42513 9.32809 8.519 9.1 8.519H2.22C1.99191 8.519 1.77317 8.42513 1.61189 8.25803C1.45061 8.09094 1.36 7.86431 1.36 7.628V3.95352Z" fill="#202020"/>
<circle cx="9.19995" cy="8" r="4" fill="white"/>
<path d="M7.29297 7.9845C7.26969 7.96127 7.25122 7.93368 7.23861 7.90331C7.22601 7.87294 7.21952 7.84038 7.21952 7.8075C7.21952 7.77461 7.22601 7.74205 7.23861 7.71168C7.25122 7.68131 7.26969 7.65372 7.29297 7.6305L7.22226 7.55978L7.22235 7.5597L8.72226 6.05978C8.78796 5.99409 8.87706 5.95718 8.96997 5.95718C9.06288 5.95718 9.15198 5.99409 9.21768 6.05978C9.28338 6.12548 9.32029 6.21459 9.32029 6.3075C9.32029 6.4004 9.28338 6.48951 9.21768 6.55521L9.21766 6.55522L8.31497 7.4575H10.97C11.0628 7.4575 11.1518 7.49437 11.2175 7.56001C11.2831 7.62565 11.32 7.71467 11.32 7.8075C11.32 7.90032 11.2831 7.98934 11.2175 8.05498C11.1518 8.12062 11.0628 8.1575 10.97 8.1575H8.31497L9.21766 9.05977L9.21768 9.05978C9.25021 9.09231 9.27602 9.13093 9.29362 9.17344C9.31123 9.21594 9.32029 9.26149 9.32029 9.3075C9.32029 9.3535 9.31123 9.39905 9.29362 9.44156C9.27602 9.48406 9.25021 9.52268 9.21768 9.55521C9.18515 9.58774 9.14653 9.61354 9.10403 9.63115C9.06153 9.64875 9.01597 9.65781 8.96997 9.65781C8.92397 9.65781 8.87841 9.64875 8.83591 9.63115C8.79341 9.61354 8.75479 9.58774 8.72226 9.55521L7.22235 8.05529L7.22226 8.05521L7.29297 7.9845ZM7.29297 7.9845L8.79297 9.4845C8.81621 9.50774 8.84381 9.52618 8.87418 9.53876C8.90455 9.55134 8.9371 9.55781 8.96997 9.55781C9.00284 9.55781 9.03539 9.55134 9.06576 9.53876C9.09613 9.52618 9.12373 9.50774 9.14697 9.4845C9.17021 9.46125 9.18865 9.43366 9.20123 9.40329C9.21381 9.37292 9.22029 9.34037 9.22029 9.3075C9.22029 9.27462 9.21381 9.24207 9.20123 9.2117C9.18865 9.18133 9.17021 9.15374 9.14697 9.1305L7.29297 7.9845ZM6.81581 10.2117C6.17818 9.57403 5.81997 8.70923 5.81997 7.8075C5.81997 6.90576 6.17818 6.04096 6.81581 5.40333C7.45343 4.76571 8.31823 4.4075 9.21997 4.4075C10.1217 4.4075 10.9865 4.76571 11.6241 5.40333C12.2618 6.04096 12.62 6.90576 12.62 7.8075C12.62 8.70923 12.2618 9.57403 11.6241 10.2117C10.9865 10.8493 10.1217 11.2075 9.21997 11.2075C8.31823 11.2075 7.45343 10.8493 6.81581 10.2117ZM12.1191 10.7066C12.888 9.93773 13.32 8.89488 13.32 7.8075C13.32 6.72011 12.888 5.67726 12.1191 4.90836C11.3502 4.13946 10.3074 3.7075 9.21997 3.7075C8.13258 3.7075 7.08973 4.13946 6.32083 4.90836C5.55193 5.67726 5.11997 6.72011 5.11997 7.8075C5.11997 8.89488 5.55193 9.93773 6.32083 10.7066C7.08973 11.4755 8.13258 11.9075 9.21997 11.9075C10.3074 11.9075 11.3502 11.4755 12.1191 10.7066Z" fill="#202020" stroke="#202020" stroke-width="0.2"/>
</svg>
