<svg width="12" height="12" viewBox="0 0 12 12" fill="none" xmlns="http://www.w3.org/2000/svg">
<path fill-rule="evenodd" clip-rule="evenodd" d="M9 1H3C1.89543 1 1 1.89543 1 3V9C1 10.1046 1.89543 11 3 11H9C10.1046 11 11 10.1046 11 9V3C11 1.89543 10.1046 1 9 1ZM3 0C1.34315 0 0 1.34315 0 3V9C0 10.6569 1.34315 12 3 12H9C10.6569 12 12 10.6569 12 9V3C12 1.34315 10.6569 0 9 0H3Z" fill="#202020"/>
<path fill-rule="evenodd" clip-rule="evenodd" d="M7.16708 2.80005H9.19993V3.70011H8.22557C8.60117 4.06373 8.88422 4.51607 9.04615 5.01939C9.26824 5.70971 9.24933 6.455 8.99252 7.13317C8.73571 7.81134 8.25622 8.38218 7.6326 8.75217C7.00897 9.12216 6.2782 9.26936 5.55998 9.16965C4.84177 9.06994 4.17871 8.72924 3.67943 8.20337C3.18015 7.67749 2.87425 6.99763 2.81183 6.27514C2.74942 5.55266 2.93419 4.8304 3.33589 4.22667C3.73758 3.62294 4.33238 3.17355 5.02285 2.95212L5.21402 2.89081L5.4857 3.74913L5.2961 3.81004C4.80537 3.9677 4.38181 4.28566 4.09337 4.71289C3.80494 5.14013 3.66835 5.65189 3.70553 6.16606C3.74271 6.68023 3.9515 7.16701 4.2984 7.54829C4.6453 7.92958 5.11019 8.18327 5.6185 8.26867C6.12681 8.35407 6.64907 8.26624 7.10149 8.01925C7.55391 7.77227 7.91028 7.38045 8.1134 6.90666C8.31653 6.43286 8.35464 5.90456 8.22163 5.40651C8.12611 5.04888 7.94634 4.72174 7.69993 4.45116V5.2003H6.79993V3.16725L7.16708 2.80005ZM7.65955 3.50011V3.50011ZM8.29727 6.98542C8.51806 6.47043 8.55948 5.8962 8.4149 5.35485C8.27032 4.8135 7.94812 4.33641 7.49998 4.00013C7.56974 4.05248 7.63646 4.10834 7.69993 4.16723C8.04411 4.48661 8.29284 4.8978 8.4149 5.35485C8.55948 5.8962 8.51806 6.47043 8.29727 6.98542Z" fill="#202020"/>
</svg>
