<svg width="current" height="current" viewBox="0 0 13 13" xmlns="http://www.w3.org/2000/svg">
<path fill-rule="evenodd" clip-rule="evenodd" d="M1.95 1.3C1.77761 1.3 1.61228 1.36848 1.49038 1.49038C1.36848 1.61228 1.3 1.77761 1.3 1.95V10.7807L2.79038 9.29037C2.91228 9.16847 3.07761 9.09999 3.25 9.09999H11.05C11.2224 9.09999 11.3877 9.0315 11.5096 8.90961C11.6315 8.78771 11.7 8.62238 11.7 8.44999V1.95C11.7 1.77761 11.6315 1.61228 11.5096 1.49038C11.3877 1.36848 11.2224 1.3 11.05 1.3H1.95ZM0.571142 0.571141C0.936838 0.205445 1.43283 0 1.95 0H11.05C11.5672 0 12.0632 0.205446 12.4289 0.571141C12.7946 0.936836 13 1.43283 13 1.95V8.44999C13 8.96716 12.7946 9.46315 12.4289 9.82884C12.0632 10.1945 11.5672 10.4 11.05 10.4H3.51924L1.10962 12.8096C0.923721 12.9955 0.644144 13.0511 0.401256 12.9505C0.158367 12.8499 0 12.6129 0 12.35V1.95C0 1.43283 0.205446 0.936836 0.571142 0.571141Z" />
</svg>
