<svg width="13" height="11" viewBox="0 0 13 11" fill="none" xmlns="http://www.w3.org/2000/svg">
<path fill-rule="evenodd" clip-rule="evenodd" d="M2.47825 1.12942C2.32834 1.12942 2.18457 1.18582 2.07858 1.28621C1.97258 1.3866 1.91303 1.52275 1.91303 1.66472V8.9371L3.20901 7.70973C3.31501 7.60934 3.45878 7.55294 3.60868 7.55294H10.3913C10.5412 7.55294 10.685 7.49655 10.791 7.39616C10.897 7.29577 10.9565 7.15962 10.9565 7.01765V1.66472C10.9565 1.52275 10.897 1.3866 10.791 1.28621C10.685 1.18582 10.5412 1.12942 10.3913 1.12942H2.47825ZM1.27924 0.529189C1.59723 0.228028 2.02853 0.0588379 2.47825 0.0588379H10.3913C10.841 0.0588379 11.2723 0.228028 11.5903 0.529189C11.9083 0.83035 12.0869 1.23881 12.0869 1.66472V7.01765C12.0869 7.44356 11.9083 7.85202 11.5903 8.15318C11.2723 8.45434 10.841 8.62353 10.3913 8.62353H3.8428L1.74748 10.6079C1.58583 10.761 1.34272 10.8068 1.13151 10.724C0.920304 10.6411 0.782593 10.4459 0.782593 10.2294V1.66472C0.782593 1.23881 0.961241 0.83035 1.27924 0.529189Z" fill="#CF4040"/>
</svg>
