<svg width="12" height="12" viewBox="0 0 12 12" fill="none" xmlns="http://www.w3.org/2000/svg">
<path fill-rule="evenodd" clip-rule="evenodd" d="M5.99949 0C6.35846 0 6.64946 0.275258 6.64946 0.614806V5.75L8.19199 4.14528C8.43992 3.89974 8.85135 3.89082 9.11093 4.12534C9.37051 4.35987 9.37995 4.74904 9.13201 4.99458L6.46951 7.63133C6.34687 7.75278 6.17705 7.82149 5.99949 7.82149C5.82194 7.82149 5.65212 7.75278 5.52948 7.63133L2.86698 4.99458C2.61904 4.74904 2.62848 4.35987 2.88806 4.12534C3.14764 3.89082 3.55907 3.89974 3.807 4.14528L5.34953 5.75V0.614806C5.34953 0.275258 5.64053 0 5.99949 0Z" fill="#202020"/>
<path d="M4.22459 1.59007H0.674996C0.302206 1.59007 0 1.8914 0 2.26312V11.327C0 11.6987 0.302206 12 0.674996 12H11.325C11.6978 12 12 11.6987 12 11.327V2.26312C12 1.8914 11.6978 1.59007 11.325 1.59007H7.77503V2.88H10.75V10.85H1.31V2.88H4.22459V1.59007Z" fill="#202020"/>
</svg>
