<svg width="18" height="22" viewBox="0 0 18 22" fill="none" xmlns="http://www.w3.org/2000/svg">
<path fill-rule="evenodd" clip-rule="evenodd" d="M3.375 2.2C3.07663 2.2 2.79048 2.31589 2.5795 2.52218C2.36853 2.72847 2.25 3.00826 2.25 3.3V18.7625L8.34611 14.5049C8.73727 14.2317 9.26273 14.2317 9.65389 14.5049L15.75 18.7625V3.3C15.75 3.00826 15.6315 2.72847 15.4205 2.52218C15.2095 2.31589 14.9234 2.2 14.625 2.2H3.375ZM0.988515 0.966547C1.62145 0.347677 2.47989 0 3.375 0H14.625C15.5201 0 16.3785 0.347677 17.0115 0.966547C17.6444 1.58542 18 2.42478 18 3.3V20.9C18 21.312 17.7645 21.6895 17.3898 21.8781C17.0151 22.0666 16.564 22.0346 16.2211 21.7951L9 16.7518L1.77889 21.7951C1.43598 22.0346 0.984926 22.0666 0.610221 21.8781C0.235516 21.6895 0 21.312 0 20.9V3.3C0 2.42479 0.355579 1.58542 0.988515 0.966547Z" fill="#CF4040"/>
</svg>
