<svg width="11" height="14" viewBox="0 0 11 14" fill="none" xmlns="http://www.w3.org/2000/svg">
<path fill-rule="evenodd" clip-rule="evenodd" d="M2.0625 1.4C1.88016 1.4 1.7053 1.47375 1.57636 1.60502C1.44743 1.7363 1.375 1.91435 1.375 2.1V11.9398L5.1004 9.23039C5.33944 9.05654 5.66056 9.05654 5.8996 9.23039L9.625 11.9398V2.1C9.625 1.91435 9.55257 1.7363 9.42364 1.60502C9.2947 1.47375 9.11984 1.4 8.9375 1.4H2.0625ZM0.604092 0.615076C0.990886 0.221249 1.51549 0 2.0625 0H8.9375C9.48451 0 10.0091 0.221249 10.3959 0.615076C10.7827 1.0089 11 1.54304 11 2.1V13.3C11 13.5622 10.8561 13.8024 10.6271 13.9224C10.3981 14.0424 10.1225 14.022 9.9129 13.8696L5.5 10.6602L1.0871 13.8696C0.877541 14.022 0.601899 14.0424 0.372913 13.9224C0.143926 13.8024 0 13.5622 0 13.3V2.1C0 1.54305 0.217298 1.0089 0.604092 0.615076Z" fill="#CF4040"/>
</svg>
