<svg width="10" height="12" viewBox="0 0 10 12" fill="none" xmlns="http://www.w3.org/2000/svg">
<path fill-rule="evenodd" clip-rule="evenodd" d="M1.88391 1.38823C1.72242 1.38823 1.56753 1.44897 1.45334 1.55708C1.33914 1.66518 1.27499 1.81181 1.27499 1.9647V10.068L4.57463 7.83678C4.78635 7.69361 5.07077 7.69361 5.28249 7.83678L8.58213 10.068V1.9647C8.58213 1.81181 8.51797 1.66518 8.40378 1.55708C8.28958 1.44897 8.1347 1.38823 7.9732 1.38823H1.88391ZM0.592182 0.741823C0.934771 0.417496 1.39942 0.235291 1.88391 0.235291H7.9732C8.45769 0.235291 8.92234 0.417496 9.26493 0.741823C9.60752 1.06615 9.79999 1.50603 9.79999 1.9647V11.1882C9.79999 11.4042 9.67251 11.602 9.46969 11.7008C9.26688 11.7996 9.02274 11.7828 8.83712 11.6573L4.92856 9.0143L1.01999 11.6573C0.83438 11.7828 0.590239 11.7996 0.387423 11.7008C0.184606 11.602 0.0571289 11.4042 0.0571289 11.1882V1.9647C0.0571289 1.50603 0.249593 1.06615 0.592182 0.741823Z" fill="#CF4040"/>
</svg>
