<svg width="14" height="14" viewBox="0 0 14 14" fill="none" xmlns="http://www.w3.org/2000/svg">
<path d="M12.9201 12.9015L12.9203 12.9016L12.9236 12.8979C13.1237 12.6695 13.1284 12.2959 12.9201 12.088L9.55184 8.72498C10.195 7.91184 10.589 6.87983 10.589 5.74947C10.589 3.08031 8.40425 0.925 5.75698 0.925C3.10971 0.925 0.925 3.08031 0.925 5.74947C0.925 8.41838 3.08415 10.5739 5.75698 10.5739C6.88912 10.5739 7.92277 10.1805 8.73722 9.53835L12.1057 12.9015C12.2205 13.0162 12.3659 13.075 12.5129 13.075C12.6599 13.075 12.8053 13.0162 12.9201 12.9015ZM5.75698 9.41342C3.72344 9.41342 2.08712 7.77952 2.08712 5.74947C2.08712 3.71943 3.72344 2.08553 5.75698 2.08553C7.7902 2.08553 9.42684 3.74436 9.42684 5.74947C9.42684 7.75459 7.7902 9.41342 5.75698 9.41342Z" fill="#202020" stroke="#202020" stroke-width="0.15"/>
</svg>
