<svg width="14" height="13" viewBox="0 0 14 13" fill="none" xmlns="http://www.w3.org/2000/svg">
<path d="M5.84716 0.0494355C5.79334 0.016986 5.73317 0 5.67205 0C5.61092 0 5.55076 0.016986 5.49693 0.0494355L1.08296 2.71165C0.906819 2.81785 0.759622 2.97547 0.656987 3.16779C0.554352 3.3601 0.500105 3.57995 0.5 3.80401V8.689C0.5 9.12796 0.655689 9.54894 0.932816 9.85933C1.20994 10.1697 1.58581 10.3441 1.97773 10.3441H9.36636C9.75828 10.3441 10.1341 10.1697 10.4113 9.85933C10.6884 9.54894 10.8441 9.12796 10.8441 8.689V3.80401C10.844 3.57995 10.7897 3.3601 10.6871 3.16779C10.5845 2.97547 10.4373 2.81785 10.2611 2.71165L5.84716 0.0494355ZM1.43318 3.43989L5.67205 0.882773L9.91091 3.43989C9.95597 3.46717 9.99547 3.50465 10.0269 3.54995L5.67205 6.15092L1.31718 3.54995C1.34862 3.50465 1.38812 3.46717 1.43318 3.43989ZM1.23886 4.44122L5.49841 6.98426C5.55186 7.01614 5.61149 7.03281 5.67205 7.03281C5.7326 7.03281 5.79223 7.01614 5.84568 6.98426L10.1052 4.44122V8.689C10.1052 8.90848 10.0274 9.11897 9.88882 9.27416C9.75025 9.42936 9.56232 9.51655 9.36636 9.51655H1.97773C1.78177 9.51655 1.59384 9.42936 1.45527 9.27416C1.31671 9.11897 1.23886 8.90848 1.23886 8.689V4.44122Z" fill="#202020"/>
<path d="M13.5139 8C13.5139 10.2091 11.7231 12 9.51392 12C7.30478 12 5.51392 10.2091 5.51392 8C5.51392 5.79086 7.30478 4 9.51392 4C11.7231 4 13.5139 5.79086 13.5139 8Z" fill="white"/>
<path d="M10.4189 7.65L9.51622 6.74773L9.51621 6.74771C9.48368 6.71518 9.45787 6.67656 9.44027 6.63406C9.42266 6.59156 9.4136 6.546 9.4136 6.5C9.4136 6.454 9.42266 6.40844 9.44027 6.36594C9.45787 6.32344 9.48368 6.28482 9.51621 6.25229C9.54874 6.21976 9.58735 6.19396 9.62986 6.17635C9.67236 6.15875 9.71791 6.14968 9.76392 6.14968C9.80992 6.14968 9.85547 6.15875 9.89798 6.17635C9.94048 6.19396 9.9791 6.21976 10.0116 6.25229L11.5115 7.7522L10.4189 7.65ZM10.4189 7.65H7.76392C7.67109 7.65 7.58207 7.68688 7.51643 7.75251C7.45079 7.81815 7.41392 7.90717 7.41392 8C7.41392 8.09283 7.45079 8.18185 7.51643 8.24749C7.58207 8.31313 7.67109 8.35 7.76392 8.35H10.4189L9.51622 9.25227L9.51621 9.25229C9.48368 9.28482 9.45787 9.32344 9.44027 9.36594C9.42266 9.40844 9.4136 9.454 9.4136 9.5C9.4136 9.546 9.42266 9.59156 9.44027 9.63406C9.45787 9.67656 9.48368 9.71518 9.51621 9.74771C9.54874 9.78024 9.58735 9.80604 9.62986 9.82365C9.67236 9.84125 9.71791 9.85032 9.76392 9.85032C9.80992 9.85032 9.85547 9.84125 9.89798 9.82365C9.94048 9.80604 9.9791 9.78024 10.0116 9.74771L11.5115 8.2478L10.4189 7.65ZM7.10975 10.4042C6.47213 9.76654 6.11392 8.90174 6.11392 8C6.11392 7.09826 6.47213 6.23346 7.10975 5.59584C7.74738 4.95821 8.61218 4.6 9.51392 4.6C10.4157 4.6 11.2805 4.95821 11.9181 5.59584C12.5557 6.23346 12.9139 7.09826 12.9139 8C12.9139 8.90174 12.5557 9.76654 11.9181 10.4042C11.2805 11.0418 10.4157 11.4 9.51392 11.4C8.61218 11.4 7.74738 11.0418 7.10975 10.4042ZM12.4131 10.8991C13.182 10.1302 13.6139 9.08739 13.6139 8C13.6139 6.91261 13.182 5.86976 12.4131 5.10086C11.6442 4.33196 10.6013 3.9 9.51392 3.9C8.42653 3.9 7.38368 4.33196 6.61478 5.10086C5.84588 5.86976 5.41392 6.91261 5.41392 8C5.41392 9.08739 5.84588 10.1302 6.61478 10.8991C7.38368 11.668 8.42653 12.1 9.51392 12.1C10.6013 12.1 11.6442 11.668 12.4131 10.8991Z" fill="#202020" stroke="#202020" stroke-width="0.2"/>
</svg>
