<svg width="14" height="12" viewBox="0 0 14 12" fill="none" xmlns="http://www.w3.org/2000/svg">
<path d="M0.25 7.65678C0.25 8.16445 0.438159 8.65133 0.773084 9.01032C1.10801 9.3693 1.56227 9.57097 2.03592 9.57097H9.17961C9.65326 9.57097 10.1075 9.3693 10.4424 9.01032C10.7774 8.65133 10.9655 8.16445 10.9655 7.65678V1.91419C10.9655 1.40652 10.7774 0.919635 10.4424 0.560654C10.1075 0.201673 9.65326 0 9.17961 0H2.03592C1.56227 0 1.10801 0.201673 0.773084 0.560654C0.438159 0.919635 0.25 1.40652 0.25 1.91419V7.65678ZM2.03592 0.957097H9.17961C9.41644 0.957097 9.64356 1.05793 9.81103 1.23742C9.97849 1.41691 10.0726 1.66036 10.0726 1.91419V2.62245L5.60777 5.19895L1.14296 2.62245V1.91419C1.14296 1.66036 1.23704 1.41691 1.4045 1.23742C1.57197 1.05793 1.79909 0.957097 2.03592 0.957097ZM1.14296 3.70971L5.39613 6.1637C5.46118 6.20123 5.53389 6.22088 5.60777 6.22088C5.68164 6.22088 5.75435 6.20123 5.8194 6.1637L10.0726 3.70971V7.65678C10.0726 7.91061 9.97849 8.15406 9.81103 8.33355C9.64356 8.51304 9.41644 8.61387 9.17961 8.61387H2.03592C1.79909 8.61387 1.57197 8.51304 1.4045 8.33355C1.23704 8.15406 1.14296 7.91061 1.14296 7.65678V3.70971Z" fill="#202020"/>
<path d="M13 7.5C13 9.433 11.433 11 9.5 11C7.567 11 6 9.433 6 7.5C6 5.567 7.567 4 9.5 4C11.433 4 13 5.567 13 7.5Z" fill="white"/>
<path d="M10.2418 7.15391H7.67655C7.58481 7.15391 7.49753 7.19162 7.43371 7.25761C7.37 7.32349 7.33478 7.41214 7.33478 7.50391C7.33478 7.59567 7.37 7.68433 7.43371 7.7502C7.49753 7.81619 7.58481 7.85391 7.67655 7.85391H10.2418L9.36768 8.75737L9.36766 8.75739C9.33606 8.79006 9.31117 8.82867 9.29424 8.87093C9.27732 8.91318 9.26864 8.95836 9.26864 9.00391C9.26864 9.04946 9.27732 9.09463 9.29424 9.13688C9.31117 9.17914 9.33606 9.21775 9.36766 9.25042C9.39927 9.2831 9.43697 9.30921 9.47871 9.32709C9.52046 9.34497 9.56532 9.35422 9.61072 9.35422C9.65611 9.35422 9.70098 9.34497 9.74273 9.32709C9.78447 9.30921 9.82217 9.2831 9.85378 9.25042L11.3043 7.75051C11.3043 7.7505 11.3044 7.75048 11.3044 7.75046C11.336 7.71781 11.3609 7.67922 11.3779 7.63697C11.3949 7.59469 11.4035 7.54949 11.4035 7.50391C11.4035 7.45833 11.3949 7.41312 11.3779 7.37085C11.3609 7.32859 11.336 7.29 11.3044 7.25735L11.3044 7.25739L11.2325 7.32691L11.3043 7.2573L10.2418 7.15391ZM7.04742 9.90926C6.43101 9.27188 6.08415 8.4067 6.08415 7.50391C6.08415 6.60111 6.43101 5.73594 7.04742 5.09855C7.66372 4.46128 8.49887 4.10391 9.36895 4.10391C10.239 4.10391 11.0742 4.46128 11.6905 5.09855C12.3069 5.73594 12.6537 6.60111 12.6537 7.50391C12.6537 8.4067 12.3069 9.27188 11.6905 9.90926C11.0742 10.5465 10.239 10.9039 9.36895 10.9039C8.49887 10.9039 7.66372 10.5465 7.04742 9.90926ZM12.1762 10.4019C12.92 9.63271 13.3373 8.59023 13.3373 7.50391C13.3373 6.41758 12.92 5.3751 12.1762 4.60596C11.4322 3.83671 10.4225 3.40391 9.36895 3.40391C8.31538 3.40391 7.30567 3.83671 6.56174 4.60596C5.81792 5.3751 5.40061 6.41758 5.40061 7.50391C5.40061 8.59023 5.81792 9.63271 6.56174 10.4019C7.30567 11.1711 8.31538 11.6039 9.36895 11.6039C10.4225 11.6039 11.4322 11.1711 12.1762 10.4019Z" fill="#202020" stroke="#202020" stroke-width="0.2"/>
</svg>
