<svg width="12" height="12" viewBox="0 0 12 12" fill="none" xmlns="http://www.w3.org/2000/svg">
<path d="M11.8614 0.145617C11.7939 0.0784538 11.7085 0.0319524 11.6154 0.0115805C11.5223 -0.00879147 11.4253 -0.00218705 11.3358 0.0306172L0.323051 4.03062C0.228075 4.0666 0.146306 4.13059 0.0886045 4.21409C0.0309031 4.2976 0 4.39666 0 4.49812C0 4.59958 0.0309031 4.69864 0.0886045 4.78214C0.146306 4.86564 0.228075 4.92963 0.323051 4.96562L5.12863 6.88562L7.05086 11.6856C7.08697 11.7763 7.14888 11.8545 7.22893 11.9104C7.30899 11.9664 7.4037 11.9978 7.50138 12.0006C7.60254 11.9985 7.7007 11.9659 7.78291 11.907C7.86512 11.8481 7.92753 11.7657 7.96191 11.6706L11.9666 0.670617C12.0007 0.582156 12.0089 0.485832 11.9903 0.392879C11.9717 0.299926 11.927 0.214172 11.8614 0.145617V0.145617ZM7.50138 10.1006L6.10476 6.60062L8.50254 4.20562L7.79672 3.50062L5.37892 5.91562L1.89487 4.50062L10.6701 1.33562L7.50138 10.1006Z" fill="#202020"/>
</svg>
