<svg width="12" height="13" viewBox="0 0 12 13" fill="none" xmlns="http://www.w3.org/2000/svg">
<path fill-rule="evenodd" clip-rule="evenodd" d="M12 2.16667C12 2.46582 11.7314 2.70833 11.4 2.70833L7.2 2.70833C6.86863 2.70833 6.6 2.46582 6.6 2.16667C6.6 1.86751 6.86863 1.625 7.2 1.625L11.4 1.625C11.7314 1.625 12 1.86751 12 2.16667ZM12 6.5C12 6.79916 11.7314 7.04167 11.4 7.04167L9 7.04167L9 8.125C9 8.42416 8.73137 8.66667 8.4 8.66667C8.06863 8.66667 7.8 8.42416 7.8 8.125L7.8 4.875C7.8 4.57585 8.06863 4.33333 8.4 4.33333C8.73137 4.33333 9 4.57585 9 4.875L9 5.95833L11.4 5.95833C11.7314 5.95833 12 6.20085 12 6.5ZM12 10.8333C12 11.1325 11.7314 11.375 11.4 11.375L6 11.375C5.66863 11.375 5.4 11.1325 5.4 10.8333C5.4 10.5342 5.66863 10.2917 6 10.2917L11.4 10.2917C11.7314 10.2917 12 10.5342 12 10.8333ZM6.6 6.5C6.6 6.79915 6.33137 7.04167 6 7.04167L0.600001 7.04167C0.268631 7.04167 6.56474e-07 6.79915 6.6955e-07 6.5C6.82627e-07 6.20085 0.268631 5.95833 0.600001 5.95833L6 5.95833C6.33137 5.95833 6.6 6.20085 6.6 6.5ZM4.8 -3.14722e-07C5.13137 -3.00237e-07 5.4 0.242512 5.4 0.541666L5.4 3.79167C5.4 4.09082 5.13137 4.33333 4.8 4.33333C4.46863 4.33333 4.2 4.09082 4.2 3.79167L4.2 2.70833L0.600001 2.70833C0.268631 2.70833 8.4589e-07 2.46582 8.58966e-07 2.16667C8.72043e-07 1.86751 0.268631 1.625 0.600001 1.625L4.2 1.625L4.2 0.541666C4.2 0.242512 4.46863 -3.29207e-07 4.8 -3.14722e-07ZM3.6 8.66667C3.93137 8.66667 4.2 8.90918 4.2 9.20833L4.2 12.4583C4.2 12.7575 3.93137 13 3.6 13C3.26863 13 3 12.7575 3 12.4583L3 11.375L0.600001 11.375C0.26863 11.375 4.67058e-07 11.1325 4.80134e-07 10.8333C4.93211e-07 10.5342 0.268631 10.2917 0.600001 10.2917L3 10.2917L3 9.20833C3 8.90918 3.26863 8.66667 3.6 8.66667Z" fill="#1A1A18"/>
</svg>
