<svg width="12" height="14" viewBox="0 0 12 14" fill="none" xmlns="http://www.w3.org/2000/svg">
<path d="M9.59862 0.5C9.9986 0.499961 10.3923 0.599599 10.7438 0.789865C11.0954 0.980132 11.3938 1.255 11.6118 1.5895C11.8299 1.92401 11.9607 2.30756 11.9924 2.70531C12.0242 3.10307 11.9558 3.50243 11.7935 3.86714C11.6313 4.23184 11.3802 4.55033 11.0633 4.79368C10.7463 5.03703 10.3734 5.19753 9.97844 5.26061C9.5835 5.32369 9.17901 5.28734 8.80172 5.15487C8.42443 5.02241 8.08628 4.79802 7.818 4.50208L4.69281 6.28321C4.83919 6.74924 4.83919 7.24879 4.69281 7.71482L7.81731 9.49732C8.21458 9.05941 8.76001 8.78335 9.34887 8.72216C9.93772 8.66097 10.5285 8.81897 11.0077 9.1658C11.4869 9.51264 11.8208 10.0239 11.9452 10.6013C12.0696 11.1787 11.9757 11.7816 11.6817 12.2943C11.3877 12.8069 10.9142 13.1931 10.3521 13.3787C9.79006 13.5643 9.17909 13.5362 8.63655 13.2998C8.094 13.0633 7.65813 12.6353 7.41264 12.0979C7.16715 11.5604 7.12935 10.9514 7.3065 10.3879L4.182 8.6047C3.85658 8.96367 3.42978 9.21587 2.95783 9.32809C2.48589 9.4403 1.99094 9.40726 1.53819 9.23331C1.08544 9.05937 0.696132 8.75268 0.421552 8.35365C0.146971 7.95463 0 7.48199 0 6.99799C0 6.51399 0.146971 6.04135 0.421552 5.64232C0.696132 5.2433 1.08544 4.93661 1.53819 4.76267C1.99094 4.58872 2.48589 4.55568 2.95783 4.66789C3.42978 4.7801 3.85658 5.03231 4.182 5.39128L7.3065 3.61014C7.1941 3.25147 7.16786 2.87145 7.22991 2.5008C7.29196 2.13014 7.44055 1.77925 7.66369 1.47648C7.88682 1.17371 8.17824 0.927563 8.51437 0.757931C8.8505 0.588299 9.22193 0.499941 9.59862 0.5V0.5ZM9.59862 9.73398C9.23457 9.73398 8.88543 9.87826 8.628 10.1351C8.37058 10.3919 8.22596 10.7402 8.22596 11.1033C8.22596 11.4665 8.37058 11.8148 8.628 12.0716C8.88543 12.3284 9.23457 12.4727 9.59862 12.4727C9.96268 12.4727 10.3118 12.3284 10.5692 12.0716C10.8267 11.8148 10.9713 11.4665 10.9713 11.1033C10.9713 10.7402 10.8267 10.3919 10.5692 10.1351C10.3118 9.87826 9.96268 9.73398 9.59862 9.73398V9.73398ZM2.40069 5.62999C2.03664 5.62999 1.68749 5.77426 1.43007 6.03107C1.17264 6.28788 1.02802 6.63618 1.02802 6.99936C1.02802 7.36254 1.17264 7.71084 1.43007 7.96764C1.68749 8.22445 2.03664 8.36872 2.40069 8.36872C2.76474 8.36872 3.11389 8.22445 3.37131 7.96764C3.62874 7.71084 3.77336 7.36254 3.77336 6.99936C3.77336 6.63618 3.62874 6.28788 3.37131 6.03107C3.11389 5.77426 2.76474 5.62999 2.40069 5.62999V5.62999ZM9.59862 1.526C9.23457 1.526 8.88543 1.67027 8.628 1.92708C8.37058 2.18388 8.22596 2.53219 8.22596 2.89536C8.22596 3.25854 8.37058 3.60685 8.628 3.86365C8.88543 4.12046 9.23457 4.26473 9.59862 4.26473C9.96268 4.26473 10.3118 4.12046 10.5692 3.86365C10.8267 3.60685 10.9713 3.25854 10.9713 2.89536C10.9713 2.53219 10.8267 2.18388 10.5692 1.92708C10.3118 1.67027 9.96268 1.526 9.59862 1.526V1.526Z" fill="#202020"/>
</svg>
