<svg width="10" height="14" viewBox="0 0 10 14" fill="none" xmlns="http://www.w3.org/2000/svg">
<path fill-rule="evenodd" clip-rule="evenodd" d="M6.22328 0.531993C6.31271 0.49202 6.40949 0.48944 6.50011 0.524614C6.59072 0.559787 6.67063 0.630956 6.72867 0.728174L9.90441 6.04632C9.96636 6.15005 10 6.27772 10 6.40914C10 6.54056 9.96636 6.66823 9.90441 6.77195L6.72867 12.0901C6.67061 12.1872 6.59071 12.2583 6.50014 12.2934C6.40956 12.3285 6.31283 12.3259 6.22345 12.286C6.13406 12.246 6.05649 12.1707 6.00156 12.0705C5.94663 11.9704 5.91708 11.8504 5.91704 11.7273V9.36958C3.47671 9.43576 2.30441 10.0391 1.71554 10.695C1.1557 11.3184 1.05317 12.0517 0.946557 12.8199L0.918882 13.0178C0.898524 13.1595 0.839126 13.2865 0.751866 13.3751C0.664605 13.4637 0.555495 13.5077 0.445065 13.4989C0.334635 13.49 0.230496 13.4289 0.152241 13.327C0.0739856 13.2252 0.0270086 13.0896 0.0201479 12.9457C-0.0578846 11.3219 0.0591641 8.96894 0.939752 7.00064C1.79448 5.09024 3.33335 3.62125 5.91704 3.46761V1.09099C5.91702 0.967875 5.94651 0.847823 6.00142 0.747605C6.05632 0.647386 6.13388 0.572006 6.22328 0.531993V0.531993Z" fill="#202020"/>
</svg>
