<svg width="16" height="16" viewBox="0 0 16 16" fill="none" xmlns="http://www.w3.org/2000/svg">
<path fill-rule="evenodd" clip-rule="evenodd" d="M8 1.45455C4.38505 1.45455 1.45455 4.38505 1.45455 8C1.45455 11.615 4.38505 14.5455 8 14.5455C11.615 14.5455 14.5455 11.615 14.5455 8C14.5455 4.38505 11.615 1.45455 8 1.45455ZM0 8C0 3.58172 3.58172 0 8 0C12.4183 0 16 3.58172 16 8C16 12.4183 12.4183 16 8 16C3.58172 16 0 12.4183 0 8ZM5.09091 5.81818C5.09091 5.41652 5.41652 5.09091 5.81818 5.09091H5.82545C6.22712 5.09091 6.55273 5.41652 6.55273 5.81818C6.55273 6.21984 6.22712 6.54545 5.82545 6.54545H5.81818C5.41652 6.54545 5.09091 6.21984 5.09091 5.81818ZM9.45455 5.81818C9.45455 5.41652 9.78016 5.09091 10.1818 5.09091H10.1891C10.5908 5.09091 10.9164 5.41652 10.9164 5.81818C10.9164 6.21984 10.5908 6.54545 10.1891 6.54545H10.1818C9.78016 6.54545 9.45455 6.21984 9.45455 5.81818Z" fill="current"/>
<path d="M5.67044 9.01515C5.42886 8.69644 4.97486 8.63249 4.65455 8.87273C4.33322 9.11372 4.26809 9.56958 4.50909 9.89091L4.53339 9.9223C4.54593 9.93814 4.56291 9.95915 4.58426 9.98459C4.62691 10.0354 4.68727 10.1042 4.76469 10.185C4.91893 10.346 5.14432 10.5579 5.43588 10.77C6.01619 11.192 6.89052 11.6364 8 11.6364C9.10948 11.6364 9.98381 11.192 10.5641 10.77C10.8557 10.5579 11.0811 10.346 11.2353 10.185C11.3127 10.1042 11.3731 10.0354 11.4157 9.98459C11.4371 9.95915 11.4541 9.93814 11.4666 9.9223L11.4909 9.89091C11.7319 9.56958 11.6668 9.11372 11.3455 8.87273C11.0251 8.63249 10.5711 8.69644 10.3296 9.01515L10.3262 9.01946C10.3219 9.02493 10.3136 9.03517 10.3016 9.0495C10.2775 9.07823 10.2384 9.12304 10.1851 9.17861C10.078 9.2904 9.91704 9.44205 9.7086 9.59365C9.28892 9.89887 8.7087 10.1818 8 10.1818C7.2913 10.1818 6.71108 9.89887 6.2914 9.59365C6.08296 9.44205 5.92198 9.2904 5.81486 9.17861C5.76159 9.12304 5.72252 9.07823 5.69841 9.0495C5.68638 9.03517 5.67815 9.02493 5.67382 9.01946L5.67044 9.01515Z" fill="current"/>
</svg>
