<svg width="15" height="13" viewBox="0 0 15 13" fill="none" xmlns="http://www.w3.org/2000/svg">
<path fill-rule="evenodd" clip-rule="evenodd" d="M7.57537 0.411743C7.81427 0.411743 8.03245 0.538724 8.13819 0.739299L9.93172 4.14141L13.9426 4.69032C14.1789 4.72267 14.3752 4.87782 14.4489 5.09056C14.5225 5.3033 14.4609 5.53676 14.2897 5.69281L11.388 8.33911L12.0728 12.0777C12.1132 12.2982 12.0164 12.521 11.8231 12.6525C11.6298 12.7839 11.3735 12.8013 11.1621 12.6971L7.57537 10.931L3.98867 12.6971C3.7772 12.8013 3.52094 12.7839 3.32764 12.6525C3.13434 12.521 3.03753 12.2982 3.07792 12.0777L3.76273 8.33911L0.860999 5.69281C0.689892 5.53676 0.628212 5.3033 0.701883 5.09056C0.775555 4.87782 0.971807 4.72267 1.20815 4.69032L5.21903 4.14141L7.01256 0.739299C7.1183 0.538724 7.33648 0.411743 7.57537 0.411743ZM7.57537 2.32713L6.19877 4.93839C6.10742 5.11166 5.93093 5.23182 5.72673 5.25976L2.64737 5.6812L4.87508 7.71281C5.02312 7.84783 5.0907 8.04242 5.05576 8.23314L4.53016 11.1025L7.28324 9.74692C7.46612 9.65687 7.68463 9.65687 7.86751 9.74692L10.6206 11.1025L10.095 8.23314C10.0601 8.04242 10.1276 7.84783 10.2757 7.71281L12.5034 5.6812L9.42402 5.25976C9.21981 5.23182 9.04333 5.11166 8.95198 4.93839L7.57537 2.32713Z" fill="#CF4040"/>
</svg>
