<svg width="13" height="12" viewBox="0 0 16 15" xmlns="http://www.w3.org/2000/svg">
<path fill-rule="evenodd" clip-rule="evenodd" d="M8 0C8.27681 0 8.52962 0.15419 8.65215 0.397747L10.7304 4.52888L15.3779 5.19542C15.6518 5.23469 15.8792 5.42309 15.9645 5.68142C16.0499 5.93975 15.9784 6.22324 15.7801 6.41272L12.4178 9.62609L13.2113 14.1658C13.2581 14.4335 13.146 14.7041 12.922 14.8637C12.698 15.0234 12.4011 15.0444 12.156 14.918L8 12.7734L3.84398 14.918C3.59895 15.0444 3.30201 15.0234 3.07802 14.8637C2.85404 14.7041 2.74186 14.4335 2.78866 14.1658L3.58218 9.62609L0.219851 6.41272C0.0215841 6.22324 -0.0498869 5.93975 0.0354785 5.68142C0.120844 5.42309 0.348247 5.23469 0.622108 5.19542L5.26963 4.52888L7.34785 0.397747C7.47038 0.15419 7.72319 0 8 0ZM8 2.32582L6.40488 5.49664C6.29904 5.70704 6.09454 5.85295 5.85792 5.88688L2.28977 6.39862L4.87109 8.86558C5.04263 9.02953 5.12093 9.26583 5.08045 9.49741L4.47141 12.9817L7.66149 11.3356C7.8734 11.2262 8.12659 11.2262 8.33851 11.3356L11.5286 12.9817L10.9195 9.49741C10.8791 9.26583 10.9574 9.02953 11.1289 8.86558L13.7102 6.39862L10.1421 5.88688C9.90546 5.85295 9.70096 5.70704 9.59512 5.49664L8 2.32582Z" />
</svg>
