<svg width="14" height="14" viewBox="0 0 14 14" fill="none" xmlns="http://www.w3.org/2000/svg">
<path d="M0.5 1.1448C0.5 0.7886 0.821389 0.5 1.21717 0.5H12.7828C12.9725 0.50119 13.154 0.569485 13.2882 0.690133C13.4224 0.810782 13.4985 0.974097 13.5 1.1448V12.8552C13.4998 13.0263 13.4242 13.1903 13.2897 13.3112C13.1552 13.4321 12.9729 13.5 12.7828 13.5H1.21717C1.0275 13.4988 0.845957 13.4305 0.711768 13.3099C0.57758 13.1892 0.501513 13.0259 0.5 12.8552V1.1448ZM12.4 6.39V1.6H1.65V6.39H12.4ZM12.4 7.61H1.65V12.4H12.4V7.61ZM4.83333 3.3H9.16667V4.4H4.83333V3.3ZM4.83333 9.15H9.16667V10.25H4.83333V9.15Z" fill="#202020"/>
</svg>
