<svg width="30" height="30" viewBox="0 0 30 30" fill="none" xmlns="http://www.w3.org/2000/svg">
<g filter="url(#filter0_d_125_4013)">
<path fill-rule="evenodd" clip-rule="evenodd" d="M15 4C15.5063 4 15.9167 4.41041 15.9167 4.91667V6.75C15.9167 7.25626 15.5063 7.66667 15 7.66667C14.4937 7.66667 14.0833 7.25626 14.0833 6.75V4.91667C14.0833 4.41041 14.4937 4 15 4ZM7.22015 7.22015C7.57813 6.86217 8.15853 6.86217 8.51651 7.22015L9.81818 8.52182C10.1762 8.8798 10.1762 9.4602 9.81818 9.81818C9.4602 10.1762 8.8798 10.1762 8.52182 9.81818L7.22015 8.51651C6.86217 8.15853 6.86217 7.57813 7.22015 7.22015ZM22.7798 7.22015C23.1378 7.57813 23.1378 8.15853 22.7798 8.51651L21.4782 9.81818C21.1202 10.1762 20.5398 10.1762 20.1818 9.81818C19.8238 9.4602 19.8238 8.8798 20.1818 8.52182L21.4835 7.22015C21.8415 6.86217 22.4219 6.86217 22.7798 7.22015ZM15 11.3333C12.975 11.3333 11.3333 12.975 11.3333 15C11.3333 17.025 12.975 18.6667 15 18.6667C17.025 18.6667 18.6667 17.025 18.6667 15C18.6667 12.975 17.025 11.3333 15 11.3333ZM9.5 15C9.5 11.9624 11.9624 9.5 15 9.5C18.0376 9.5 20.5 11.9624 20.5 15C20.5 18.0376 18.0376 20.5 15 20.5C11.9624 20.5 9.5 18.0376 9.5 15ZM4 15C4 14.4937 4.41041 14.0833 4.91667 14.0833H6.75C7.25626 14.0833 7.66667 14.4937 7.66667 15C7.66667 15.5063 7.25626 15.9167 6.75 15.9167H4.91667C4.41041 15.9167 4 15.5063 4 15ZM22.3333 15C22.3333 14.4937 22.7437 14.0833 23.25 14.0833H25.0833C25.5896 14.0833 26 14.4937 26 15C26 15.5063 25.5896 15.9167 25.0833 15.9167H23.25C22.7437 15.9167 22.3333 15.5063 22.3333 15ZM9.81818 20.1818C10.1762 20.5398 10.1762 21.1202 9.81818 21.4782L8.51651 22.7798C8.15853 23.1378 7.57813 23.1378 7.22015 22.7798C6.86217 22.4219 6.86217 21.8415 7.22015 21.4835L8.52182 20.1818C8.8798 19.8238 9.4602 19.8238 9.81818 20.1818ZM20.1818 20.1818C20.5398 19.8238 21.1202 19.8238 21.4782 20.1818L22.7798 21.4835C23.1378 21.8415 23.1378 22.4219 22.7798 22.7798C22.4219 23.1378 21.8415 23.1378 21.4835 22.7798L20.1818 21.4782C19.8238 21.1202 19.8238 20.5398 20.1818 20.1818ZM15 22.3333C15.5063 22.3333 15.9167 22.7437 15.9167 23.25V25.0833C15.9167 25.5896 15.5063 26 15 26C14.4937 26 14.0833 25.5896 14.0833 25.0833V23.25C14.0833 22.7437 14.4937 22.3333 15 22.3333Z" fill="#ED6355"/>
</g>
<defs>
<filter id="filter0_d_125_4013" x="0" y="0" width="30" height="30" filterUnits="userSpaceOnUse" color-interpolation-filters="sRGB">
<feFlood flood-opacity="0" result="BackgroundImageFix"/>
<feColorMatrix in="SourceAlpha" type="matrix" values="0 0 0 0 0 0 0 0 0 0 0 0 0 0 0 0 0 0 127 0" result="hardAlpha"/>
<feOffset/>
<feGaussianBlur stdDeviation="2"/>
<feComposite in2="hardAlpha" operator="out"/>
<feColorMatrix type="matrix" values="0 0 0 0 0.929412 0 0 0 0 0.388235 0 0 0 0 0.333333 0 0 0 1 0"/>
<feBlend mode="normal" in2="BackgroundImageFix" result="effect1_dropShadow_125_4013"/>
<feBlend mode="normal" in="SourceGraphic" in2="effect1_dropShadow_125_4013" result="shape"/>
</filter>
</defs>
</svg>
