<svg width="13" height="12" viewBox="0 0 13 12" fill="none" xmlns="http://www.w3.org/2000/svg">
<path fill-rule="evenodd" clip-rule="evenodd" d="M12.9999 0.99C12.9999 0.618724 12.7252 0.5 12.3863 0.5H3.79537C3.45647 0.5 3.18174 0.618724 3.18174 0.99C3.18174 1.36128 3.45647 1.54 3.79537 1.54H12.3863C12.7252 1.54 12.9999 1.36128 12.9999 0.99ZM12.9999 3.7C12.9999 3.32872 12.7252 3.18902 12.3863 3.18902H8.70446C8.36556 3.18902 8.09083 3.32872 8.09083 3.7C8.09083 4.07128 8.36556 4.23 8.70446 4.23H12.3863C12.7252 4.23 12.9999 4.07128 12.9999 3.7ZM12.3863 5.44997C12.7252 5.44997 12.9999 5.58872 12.9999 5.96C12.9999 6.33128 12.7252 6.5 12.3863 6.5H8.70446C8.36556 6.5 8.09083 6.33128 8.09083 5.96C8.09083 5.58872 8.36556 5.44997 8.70446 5.44997H12.3863ZM12.9999 8.16C12.9999 7.78872 12.7252 7.65008 12.3863 7.65008H8.70449C8.36559 7.65008 8.09085 7.78872 8.09085 8.16C8.09085 8.53128 8.36559 8.7 8.70449 8.7H12.3863C12.7252 8.7 12.9999 8.53128 12.9999 8.16ZM12.3863 10.4002C12.7252 10.4002 12.9999 10.5187 12.9999 10.89C12.9999 11.2613 12.7252 11.44 12.3863 11.44H3.7954C3.45649 11.44 3.18176 11.2613 3.18176 10.89C3.18176 10.5187 3.45649 10.4002 3.7954 10.4002H12.3863ZM5.3811 3.51991C5.22642 3.29116 4.91559 3.2311 4.68683 3.38577C4.45807 3.54045 4.39802 3.85128 4.55269 4.08004L5.51285 5.50008H0.999951C0.723809 5.50008 0.499951 5.72394 0.499951 6.00008C0.499951 6.27623 0.723809 6.50008 0.999951 6.50008H5.51285L4.55269 7.92013C4.39802 8.14889 4.45807 8.45972 4.68683 8.6144C4.91559 8.76907 5.22642 8.70901 5.3811 8.48026L6.8687 6.28015C6.9831 6.11096 6.9831 5.88921 6.8687 5.72002L5.3811 3.51991Z" fill="#202020"/>
</svg>
