<svg width="12" height="12" viewBox="0 0 12 12" fill="none" xmlns="http://www.w3.org/2000/svg">
<path fill-rule="evenodd" clip-rule="evenodd" d="M1.63636 1.09091C1.33512 1.09091 1.09091 1.33512 1.09091 1.63636V3.81818C1.09091 4.11943 1.33512 4.36364 1.63636 4.36364H10.3636C10.6649 4.36364 10.9091 4.11943 10.9091 3.81818V1.63636C10.9091 1.33512 10.6649 1.09091 10.3636 1.09091H1.63636ZM0 1.63636C0 0.732625 0.732625 0 1.63636 0H10.3636C11.2674 0 12 0.732625 12 1.63636V3.81818C12 4.72192 11.2674 5.45455 10.3636 5.45455H1.63636C0.732625 5.45455 0 4.72192 0 3.81818V1.63636ZM1.63636 7.63636C1.33512 7.63636 1.09091 7.88057 1.09091 8.18182V10.3636C1.09091 10.6649 1.33512 10.9091 1.63636 10.9091H10.3636C10.6649 10.9091 10.9091 10.6649 10.9091 10.3636V8.18182C10.9091 7.88057 10.6649 7.63636 10.3636 7.63636H1.63636ZM0 8.18182C0 7.27808 0.732625 6.54545 1.63636 6.54545H10.3636C11.2674 6.54545 12 7.27808 12 8.18182V10.3636C12 11.2674 11.2674 12 10.3636 12H1.63636C0.732625 12 0 11.2674 0 10.3636V8.18182Z" fill="#232323"/>
</svg>
