<svg width="16" height="16" viewBox="0 0 16 16" fill="none" xmlns="http://www.w3.org/2000/svg">
<path fill-rule="evenodd" clip-rule="evenodd" d="M2.18182 1.45455C1.78016 1.45455 1.45455 1.78016 1.45455 2.18182V5.09091C1.45455 5.49257 1.78016 5.81818 2.18182 5.81818H13.8182C14.2198 5.81818 14.5455 5.49257 14.5455 5.09091V2.18182C14.5455 1.78016 14.2198 1.45455 13.8182 1.45455H2.18182ZM0 2.18182C0 0.976833 0.976833 0 2.18182 0H13.8182C15.0232 0 16 0.976834 16 2.18182V5.09091C16 6.29589 15.0232 7.27273 13.8182 7.27273H2.18182C0.976833 7.27273 0 6.29589 0 5.09091V2.18182ZM2.18182 10.1818C1.78016 10.1818 1.45455 10.5074 1.45455 10.9091V13.8182C1.45455 14.2198 1.78016 14.5455 2.18182 14.5455H13.8182C14.2198 14.5455 14.5455 14.2198 14.5455 13.8182V10.9091C14.5455 10.5074 14.2198 10.1818 13.8182 10.1818H2.18182ZM0 10.9091C0 9.70411 0.976833 8.72727 2.18182 8.72727H13.8182C15.0232 8.72727 16 9.70411 16 10.9091V13.8182C16 15.0232 15.0232 16 13.8182 16H2.18182C0.976833 16 0 15.0232 0 13.8182V10.9091Z" fill="#1A1A18"/>
</svg>
