<svg width="16" height="16" viewBox="0 0 16 16" fill="none" xmlns="http://www.w3.org/2000/svg">
<path d="M0.95 8C0.95 11.8936 4.10639 15.05 8 15.05V13.95C4.71391 13.95 2.05 11.2861 2.05 8H0.95ZM8 15.05C11.8936 15.05 15.05 11.8936 15.05 8H13.95C13.95 11.2861 11.2861 13.95 8 13.95V15.05ZM15.05 8C15.05 4.10639 11.8936 0.95 8 0.95V2.05C11.2861 2.05 13.95 4.71391 13.95 8H15.05ZM8 0.95C4.10639 0.95 0.95 4.10639 0.95 8H2.05C2.05 4.71391 4.71391 2.05 8 2.05V0.95Z" fill="#202020"/>
<path d="M6.49007 6.31406C6.49007 7.17787 7.19033 7.87812 8.05413 7.87812C8.91794 7.87812 9.6182 7.17787 9.6182 6.31406C9.6182 5.45025 8.91794 4.75 8.05413 4.75C7.19033 4.75 6.49007 5.45025 6.49007 6.31406Z" stroke="#202020" stroke-linejoin="round"/>
<path d="M9.6182 7.09609C9.6182 7.81593 10.2017 8.39948 10.9216 8.39948C11.6414 8.39948 12.225 7.81593 12.225 7.09609C12.225 6.37625 11.6414 5.79271 10.9216 5.79271C10.2017 5.79271 9.6182 6.37625 9.6182 7.09609Z" stroke="#202020" stroke-linejoin="round"/>
<path d="M3.8833 7.09609C3.8833 7.81593 4.46685 8.39948 5.18669 8.39948C5.90653 8.39948 6.49007 7.81593 6.49007 7.09609C6.49007 6.37625 5.90653 5.79271 5.18669 5.79271C4.46685 5.79271 3.8833 6.37625 3.8833 7.09609Z" stroke="#202020" stroke-linejoin="round"/>
<path d="M9.66124 10.1472C9.63206 10.1472 9.60895 10.1228 9.60895 10.0936V10.0936C9.60895 9.41815 8.95813 8.75285 8.00006 8.75285C7.04198 8.75285 6.39116 9.41815 6.39116 10.0936V10.0936C6.39116 10.1228 6.36805 10.1472 6.33887 10.1472H5.68205C5.60255 10.1472 5.53204 10.0992 5.49156 10.0308C5.30484 9.71523 4.96103 9.50362 4.5678 9.50362C4.17456 9.50362 3.83076 9.71523 3.64404 10.0308C3.60355 10.0992 3.53304 10.1472 3.45355 10.1472H3.27939C3.14727 10.1472 3.05155 10.0208 3.10707 9.90088C3.36234 9.34968 3.92041 8.96732 4.5678 8.96732C4.96478 8.96732 5.32819 9.1111 5.60878 9.34943C5.74069 9.46147 5.98829 9.41906 6.07292 9.26809C6.42202 8.64531 7.15381 8.21655 8.00006 8.21655C8.8463 8.21655 9.5781 8.64531 9.9272 9.26809C10.0118 9.41906 10.2594 9.46147 10.3913 9.34942C10.6719 9.1111 11.0353 8.96732 11.4323 8.96732C12.0797 8.96732 12.6378 9.34968 12.893 9.90088C12.9486 10.0208 12.8528 10.1472 12.7207 10.1472H12.5466C12.4671 10.1472 12.3966 10.0992 12.3561 10.0308C12.1694 9.71523 11.8255 9.50362 11.4323 9.50362C11.0391 9.50362 10.6953 9.71523 10.5086 10.0308C10.4681 10.0992 10.3976 10.1472 10.3181 10.1472H9.66124Z" fill="#202020"/>
<path d="M10.5086 10.0308L10.6592 10.1199L10.5086 10.0308ZM12.893 9.90088L13.0518 9.82734L12.893 9.90088ZM5.60878 9.34943L5.49549 9.48281L5.60878 9.34943ZM6.07292 9.26809L6.22557 9.35366L6.07292 9.26809ZM3.10707 9.90088L2.94827 9.82734L3.10707 9.90088ZM3.64404 10.0308L3.79464 10.1199L3.64404 10.0308ZM5.49156 10.0308L5.34095 10.1199L5.49156 10.0308ZM12.3561 10.0308L12.2055 10.1199L12.3561 10.0308ZM9.9272 9.26809L9.77454 9.35366L9.9272 9.26809ZM8.00006 8.92785C8.88165 8.92785 9.43395 9.53381 9.43395 10.0936H9.78395C9.78395 9.3025 9.03461 8.57785 8.00006 8.57785V8.92785ZM6.56616 10.0936C6.56616 9.53381 7.11846 8.92785 8.00006 8.92785V8.57785C6.9655 8.57785 6.21616 9.3025 6.21616 10.0936H6.56616ZM5.68205 10.3222H6.33887V9.97223H5.68205V10.3222ZM5.64217 9.94167C5.42525 9.57508 5.0254 9.32862 4.5678 9.32862V9.67862C4.89666 9.67862 5.18442 9.85537 5.34095 10.1199L5.64217 9.94167ZM4.5678 9.32862C4.11019 9.32862 3.71034 9.57508 3.49343 9.94167L3.79464 10.1199C3.95117 9.85537 4.23894 9.67862 4.5678 9.67862V9.32862ZM3.27939 10.3222H3.45355V9.97223H3.27939V10.3222ZM4.5678 8.79232C3.84973 8.79232 3.23112 9.21658 2.94827 9.82734L3.26587 9.97442C3.49355 9.48278 3.9911 9.14232 4.5678 9.14232V8.79232ZM5.72207 9.21605C5.41103 8.95186 5.00782 8.79232 4.5678 8.79232V9.14232C4.92174 9.14232 5.24534 9.27034 5.49549 9.48281L5.72207 9.21605ZM8.00006 8.04155C7.09655 8.04155 6.30317 8.49943 5.92026 9.18253L6.22557 9.35366C6.54086 8.79119 7.21108 8.39155 8.00006 8.39155V8.04155ZM10.0799 9.18253C9.69694 8.49943 8.90357 8.04155 8.00006 8.04155V8.39155C8.78903 8.39155 9.45925 8.79119 9.77454 9.35366L10.0799 9.18253ZM11.4323 8.79232C10.9923 8.79232 10.5891 8.95186 10.278 9.21604L10.5046 9.48281C10.7548 9.27034 11.0784 9.14232 11.4323 9.14232V8.79232ZM13.0518 9.82734C12.769 9.21658 12.1504 8.79232 11.4323 8.79232V9.14232C12.009 9.14232 12.5066 9.48278 12.7342 9.97442L13.0518 9.82734ZM12.5466 10.3222H12.7207V9.97223H12.5466V10.3222ZM11.4323 9.67862C11.7612 9.67862 12.0489 9.85537 12.2055 10.1199L12.5067 9.94167C12.2898 9.57508 11.8899 9.32862 11.4323 9.32862V9.67862ZM10.6592 10.1199C10.8157 9.85537 11.1035 9.67862 11.4323 9.67862V9.32862C10.9747 9.32862 10.5749 9.57508 10.3579 9.94167L10.6592 10.1199ZM9.66124 10.3222H10.3181V9.97223H9.66124V10.3222ZM10.3579 9.94167C10.3427 9.96743 10.3243 9.97223 10.3181 9.97223V10.3222C10.4708 10.3222 10.5934 10.231 10.6592 10.1199L10.3579 9.94167ZM12.7342 9.97442C12.7346 9.97529 12.7345 9.97515 12.7343 9.97409C12.7341 9.97306 12.7341 9.97176 12.7342 9.97039C12.7345 9.96759 12.7354 9.96647 12.7352 9.96686C12.7343 9.96803 12.7301 9.97223 12.7207 9.97223V10.3222C12.9565 10.3222 13.1709 10.0844 13.0518 9.82734L12.7342 9.97442ZM5.49549 9.48281C5.61045 9.58046 5.76197 9.60181 5.88855 9.5798C6.01512 9.5578 6.15118 9.48638 6.22557 9.35366L5.92026 9.18253C5.91003 9.20077 5.87998 9.22604 5.8286 9.23497C5.77725 9.2439 5.73901 9.23044 5.72207 9.21605L5.49549 9.48281ZM3.27939 9.97223C3.27002 9.97223 3.26579 9.96803 3.26495 9.96686C3.26467 9.96647 3.26558 9.96759 3.2659 9.97039C3.26605 9.97176 3.266 9.97306 3.26583 9.97409C3.26566 9.97515 3.26547 9.97529 3.26587 9.97442L2.94827 9.82734C2.82924 10.0844 3.04361 10.3222 3.27939 10.3222V9.97223ZM3.49343 9.94167C3.47818 9.96743 3.45982 9.97223 3.45355 9.97223V10.3222C3.60627 10.3222 3.72892 10.231 3.79464 10.1199L3.49343 9.94167ZM5.68205 9.97223C5.67577 9.97223 5.65741 9.96743 5.64217 9.94167L5.34095 10.1199C5.40668 10.231 5.52933 10.3222 5.68205 10.3222V9.97223ZM12.5466 9.97223C12.5403 9.97223 12.5219 9.96743 12.5067 9.94167L12.2055 10.1199C12.2712 10.231 12.3938 10.3222 12.5466 10.3222V9.97223ZM6.21616 10.0936C6.21616 10.0319 6.26569 9.97223 6.33887 9.97223V10.3222C6.47041 10.3222 6.56616 10.2136 6.56616 10.0936H6.21616ZM9.77454 9.35366C9.84894 9.48638 9.985 9.5578 10.1116 9.5798C10.2381 9.60181 10.3897 9.58045 10.5046 9.48281L10.278 9.21604C10.2611 9.23044 10.2229 9.2439 10.1715 9.23497C10.1201 9.22604 10.0901 9.20077 10.0799 9.18253L9.77454 9.35366ZM9.43395 10.0936C9.43395 10.2136 9.5297 10.3222 9.66124 10.3222V9.97223C9.73442 9.97223 9.78395 10.0319 9.78395 10.0936H9.43395Z" fill="#202020"/>
</svg>
