<svg width="10" height="12" viewBox="0 0 10 12" fill="none" xmlns="http://www.w3.org/2000/svg">
<path d="M4 0C3.7385 0 3.4705 0.0920001 3.281 0.2815C3.092 0.47 3 0.738 3 1V1.5H0V2.5H0.5V10.5C0.5 11.3225 1.1775 12 2 12H8C8.8225 12 9.5 11.3225 9.5 10.5V2.5H10V1.5H7V1C7 0.7385 6.908 0.4705 6.7185 0.281C6.53 0.0919999 6.2615 0 6 0H4ZM4 1H6V1.5H4V1ZM1.5 2.5H8.5V10.5C8.5 10.7775 8.2775 11 8 11H2C1.7225 11 1.5 10.7775 1.5 10.5V2.5ZM2.5 4V9.5H3.5V4H2.5ZM4.5 4V9.5H5.5V4H4.5ZM6.5 4V9.5H7.5V4H6.5Z" fill="#202020"/>
</svg>
