Setting/NewIcons<svg width="10" height="12" viewBox="0 0 10 12" fill="none" xmlns="http://www.w3.org/2000/svg">
<path d="M3.96488 3.61957C3.76414 3.42994 3.44769 3.43894 3.25806 3.63967C3.06842 3.84041 3.07743 4.15686 3.27816 4.3465L4.40693 5.41282L3.27816 6.47914C3.07743 6.66877 3.06842 6.98523 3.25806 7.18596C3.44769 7.3867 3.76414 7.3957 3.96488 7.20607L5.13503 6.10065L6.30519 7.20607C6.50592 7.3957 6.82238 7.3867 7.01201 7.18596C7.20164 6.98523 7.19264 6.66877 6.9919 6.47914L5.86314 5.41282L6.9919 4.3465C7.19264 4.15686 7.20164 3.84041 7.01201 3.63967C6.82238 3.43894 6.50592 3.42994 6.30519 3.61957L5.13503 4.72499L3.96488 3.61957Z" fill="#202020"/>
<path fill-rule="evenodd" clip-rule="evenodd" d="M5.4218 0.112172C5.34577 0.0403494 5.24266 0 5.13514 0C5.02761 0 4.9245 0.0403494 4.84847 0.112172C4.77244 0.183994 4.72973 0.281406 4.72973 0.382979V1.02128H2.7027V0.382979C2.7027 0.281406 2.65999 0.183994 2.58396 0.112172C2.50793 0.0403494 2.40482 0 2.2973 0C2.18978 0 2.08666 0.0403494 2.01063 0.112172C1.9346 0.183994 1.89189 0.281406 1.89189 0.382979V1.02128H1.21622C0.893656 1.02128 0.584306 1.14232 0.356222 1.35779C0.128137 1.57326 0 1.8655 0 2.17021V10.8511C0 11.1558 0.128137 11.448 0.356222 11.6635C0.584306 11.879 0.893656 12 1.21622 12H6.61946C6.72694 11.9999 6.82999 11.9595 6.90595 11.8877L9.88108 9.07711C9.95713 9.00535 9.99991 8.90801 10 8.80647V2.17021C10 1.8655 9.87186 1.57326 9.64378 1.35779C9.41569 1.14232 9.10634 1.02128 8.78378 1.02128H8.37838V0.382979C8.37838 0.281406 8.33567 0.183994 8.25964 0.112172C8.18361 0.0403494 8.08049 0 7.97297 0C7.86545 0 7.76234 0.0403494 7.68631 0.112172C7.61028 0.183994 7.56757 0.281406 7.56757 0.382979V1.02128H5.54054V0.382979C5.54054 0.281406 5.49783 0.183994 5.4218 0.112172ZM0.810811 10.8511V2.17021C0.810811 2.06864 0.853523 1.97123 0.929551 1.89941C1.00558 1.82758 1.1087 1.78723 1.21622 1.78723H8.78378C8.8913 1.78723 8.99442 1.82758 9.07045 1.89941C9.14648 1.97123 9.18919 2.068∂64 9.18919 2.17021V8.42349H7.43027C7.10771 8.42349 6.79836 8.54454 6.57028 8.76C6.34219 8.97547 6.21405 9.26771 6.21405 9.57243V11.234H1.21622C0.992432 11.234 0.810811 11.0625 0.810811 10.8511ZM7.14361 9.30162C7.21963 9.2298 7.32275 9.18945 7.43027 9.18945H8.61568L7.02487 10.6923V9.57243C7.02487 9.47085 7.06758 9.37344 7.14361 9.30162Z" fill="#202020"/>
</svg>
