<svg width="12" height="12" viewBox="0 0 12 12" fill="none" xmlns="http://www.w3.org/2000/svg">
<path fill-rule="evenodd" clip-rule="evenodd" d="M8.625 5.14282H7.674L8.973 2.5714C9.07245 2.37453 9.0994 2.14058 9.04792 1.921C8.99645 1.70142 8.87075 1.51421 8.6985 1.40054L6.75 0.114833C6.57774 0.00117444 6.37303 -0.0296266 6.1809 0.0292057C5.98877 0.088038 5.82496 0.231684 5.7255 0.428546L3.8505 4.13996C3.77117 4.29681 3.73736 4.47836 3.75393 4.65853C3.77051 4.83871 3.83661 5.00825 3.94275 5.14282H3.375C3.27554 5.14282 3.18016 5.18797 3.10984 5.26834C3.03951 5.34872 3 5.45772 3 5.57139C3 5.68505 3.03951 5.79406 3.10984 5.87443C3.18016 5.95481 3.27554 5.99996 3.375 5.99996H8.625C8.72446 5.99996 8.81984 5.95481 8.89017 5.87443C8.96049 5.79406 9 5.68505 9 5.57139C9 5.45772 8.96049 5.34872 8.89017 5.26834C8.81984 5.18797 8.72446 5.14282 8.625 5.14282ZM6.375 0.857117L8.3235 2.14283L6.8085 5.14282H5.37L4.5 4.56853L6.375 0.857117Z" fill="#202020"/>
<path fill-rule="evenodd" clip-rule="evenodd" d="M9.40275 3.4286L8.97 4.28574H9.375L11.0625 6.85716H0.9375L2.625 4.28574H2.9295C2.945 4.2352 2.96458 4.18641 2.988 4.14002L3.34725 3.4286H2.625C2.50857 3.4286 2.39373 3.45958 2.28959 3.51909C2.18545 3.5786 2.09486 3.665 2.025 3.77145L0.15 6.6283C0.0526334 6.77667 0 6.95713 0 7.14259V11.1429C0 11.3702 0.0790176 11.5882 0.21967 11.749C0.360322 11.9097 0.551088 12 0.75 12H11.25C11.4489 12 11.6397 11.9097 11.7803 11.749C11.921 11.5882 12 11.3702 12 11.1429V7.14259C12 6.95713 11.9474 6.77667 11.85 6.6283L9.975 3.77145C9.908 3.66918 9.82185 3.58531 9.72284 3.52599C9.62383 3.46667 9.51446 3.43339 9.40275 3.4286ZM11.25 11.1429H0.75V7.7143H11.25V11.1429Z" fill="#202020"/>
</svg>
