<svg width="13" height="12" viewBox="0 0 13 12" fill="none" xmlns="http://www.w3.org/2000/svg">
<path d="M4.99663 5.66667C5.47552 5.66667 5.94364 5.52982 6.34182 5.27343C6.73999 5.01704 7.05033 4.65262 7.23359 4.22626C7.41685 3.7999 7.4648 3.33075 7.37138 2.87812C7.27795 2.4255 7.04735 2.00974 6.70873 1.68342C6.37011 1.3571 5.93868 1.13487 5.469 1.04484C4.99932 0.954803 4.51249 1.00101 4.07006 1.17762C3.62763 1.35422 3.24948 1.65329 2.98343 2.037C2.71737 2.42072 2.57537 2.87184 2.57537 3.33333C2.57537 3.95217 2.83047 4.54567 3.28454 4.98325C3.73862 5.42083 4.35448 5.66667 4.99663 5.66667ZM4.99663 1.66667C5.33869 1.66667 5.67307 1.76442 5.95748 1.94755C6.24189 2.13069 6.46356 2.39099 6.59446 2.69553C6.72536 3.00007 6.75961 3.33518 6.69288 3.65848C6.62615 3.98179 6.46143 4.27876 6.21956 4.51185C5.97769 4.74493 5.66952 4.90367 5.33404 4.96798C4.99855 5.03229 4.65081 4.99928 4.33479 4.87313C4.01877 4.74699 3.74867 4.53337 3.55863 4.25928C3.36859 3.9852 3.26716 3.66297 3.26716 3.33333C3.26716 2.89131 3.44937 2.46738 3.77371 2.15482C4.09805 1.84226 4.53795 1.66667 4.99663 1.66667Z" fill="#202020"/>
<path d="M9.30994 8.12333C8.75523 7.55834 8.08678 7.1083 7.34545 6.80074C6.60412 6.49317 5.80548 6.33454 4.99836 6.33454C4.19125 6.33454 3.39261 6.49317 2.65128 6.80074C1.90995 7.1083 1.24149 7.55834 0.686784 8.12333C0.566521 8.24712 0.499728 8.41043 0.500001 8.58V10.3333C0.500001 10.5101 0.572886 10.6797 0.702621 10.8047C0.832357 10.9298 1.00832 11 1.19179 11H8.80148C8.98495 11 9.16091 10.9298 9.29065 10.8047C9.42038 10.6797 9.49327 10.5101 9.49327 10.3333V8.58C9.49448 8.41088 9.42895 8.24764 9.30994 8.12333ZM8.80148 10.3333H1.19179V8.57667C1.682 8.07923 2.27212 7.68311 2.92623 7.41243C3.58034 7.14175 4.28477 7.00216 4.99663 7.00216C5.7085 7.00216 6.41293 7.14175 7.06704 7.41243C7.72115 7.68311 8.31127 8.07923 8.80148 8.57667V10.3333Z" fill="#202020"/>
<path d="M4.99663 5.66667C5.47552 5.66667 5.94364 5.52982 6.34182 5.27343C6.73999 5.01704 7.05033 4.65262 7.23359 4.22626C7.41685 3.7999 7.4648 3.33075 7.37138 2.87812C7.27795 2.4255 7.04735 2.00974 6.70873 1.68342C6.37011 1.3571 5.93868 1.13487 5.469 1.04484C4.99932 0.954803 4.51249 1.00101 4.07006 1.17762C3.62763 1.35422 3.24948 1.65329 2.98343 2.037C2.71737 2.42072 2.57537 2.87184 2.57537 3.33333C2.57537 3.95217 2.83047 4.54567 3.28454 4.98325C3.73862 5.42083 4.35448 5.66667 4.99663 5.66667ZM4.99663 1.66667C5.33869 1.66667 5.67307 1.76442 5.95748 1.94755C6.24189 2.13069 6.46356 2.39099 6.59446 2.69553C6.72536 3.00007 6.75961 3.33518 6.69288 3.65848C6.62615 3.98179 6.46143 4.27876 6.21956 4.51185C5.97769 4.74493 5.66952 4.90367 5.33404 4.96798C4.99855 5.03229 4.65081 4.99928 4.33479 4.87313C4.01877 4.74699 3.74867 4.53337 3.55863 4.25928C3.36859 3.9852 3.26716 3.66297 3.26716 3.33333C3.26716 2.89131 3.44937 2.46738 3.77371 2.15482C4.09805 1.84226 4.53795 1.66667 4.99663 1.66667Z" stroke="#202020" stroke-width="0.3"/>
<path d="M9.30994 8.12333C8.75523 7.55834 8.08678 7.1083 7.34545 6.80074C6.60412 6.49317 5.80548 6.33454 4.99836 6.33454C4.19125 6.33454 3.39261 6.49317 2.65128 6.80074C1.90995 7.1083 1.24149 7.55834 0.686784 8.12333C0.566521 8.24712 0.499728 8.41043 0.500001 8.58V10.3333C0.500001 10.5101 0.572886 10.6797 0.702621 10.8047C0.832357 10.9298 1.00832 11 1.19179 11H8.80148C8.98495 11 9.16091 10.9298 9.29065 10.8047C9.42038 10.6797 9.49327 10.5101 9.49327 10.3333V8.58C9.49448 8.41088 9.42895 8.24764 9.30994 8.12333ZM8.80148 10.3333H1.19179V8.57667C1.682 8.07923 2.27212 7.68311 2.92623 7.41243C3.58034 7.14175 4.28477 7.00216 4.99663 7.00216C5.7085 7.00216 6.41293 7.14175 7.06704 7.41243C7.72115 7.68311 8.31127 8.07923 8.80148 8.57667V10.3333Z" stroke="#202020" stroke-width="0.3"/>
<path d="M11.5 1L8.51221 4M8.51221 1L11.5 4" stroke="#202020" stroke-width="1.2" stroke-linecap="round" stroke-linejoin="round"/>
</svg>
