<svg width="20" height="20" viewBox="0 0 20 20" fill="none" xmlns="http://www.w3.org/2000/svg">
<path fill-rule="evenodd" clip-rule="evenodd" d="M17.178 1.80821C16.9091 1.80821 16.6513 1.91502 16.4611 2.10514L8.04922 10.5171L7.57131 12.4287L9.48293 11.9508L17.8949 3.53886C18.085 3.34874 18.1918 3.09088 18.1918 2.822C18.1918 2.55313 18.085 2.29527 17.8949 2.10514C17.7047 1.91502 17.4469 1.80821 17.178 1.80821ZM15.1825 0.826545C15.7118 0.297317 16.4296 0 17.178 0C17.9264 0 18.6442 0.297317 19.1735 0.826545C19.7027 1.35577 20 2.07356 20 2.822C20 3.57044 19.7027 4.28823 19.1735 4.81746L10.5845 13.4065C10.4686 13.5223 10.3234 13.6045 10.1644 13.6443L6.54801 14.5484C6.23992 14.6254 5.914 14.5351 5.68944 14.3106C5.46487 14.086 5.3746 13.7601 5.45163 13.452L6.35573 9.83557C6.39547 9.67659 6.47767 9.53141 6.59354 9.41554L15.1825 0.826545ZM0.794419 2.71232C1.30308 2.20366 1.99296 1.9179 2.71232 1.9179H9.04105C9.54037 1.9179 9.94516 2.32268 9.94516 2.822C9.94516 3.32133 9.54037 3.72611 9.04105 3.72611H2.71232C2.47253 3.72611 2.24257 3.82136 2.07302 3.99091C1.90346 4.16047 1.80821 4.39043 1.80821 4.63021V17.2877C1.80821 17.5275 1.90346 17.7574 2.07302 17.927C2.24257 18.0965 2.47253 18.1918 2.71232 18.1918H15.3698C15.6096 18.1918 15.8395 18.0965 16.0091 17.927C16.1786 17.7574 16.2739 17.5275 16.2739 17.2877V10.9589C16.2739 10.4596 16.6787 10.0548 17.178 10.0548C17.6773 10.0548 18.0821 10.4596 18.0821 10.9589V17.2877C18.0821 18.007 17.7963 18.6969 17.2877 19.2056C16.779 19.7142 16.0891 20 15.3698 20H2.71232C1.99296 20 1.30308 19.7142 0.794419 19.2056C0.285761 18.6969 0 18.007 0 17.2877V4.63021C0 3.91086 0.285761 3.22097 0.794419 2.71232Z" fill="#232323"/>
</svg>
