<svg width="14" height="14" viewBox="0 0 14 14" fill="none" xmlns="http://www.w3.org/2000/svg">
<path d="M11.2753 1.2775L11.2753 1.27751L12.7298 2.76698L12.7298 2.76698C12.9189 2.96072 13.025 3.22328 13.025 3.49692C13.025 3.77057 12.9189 4.03313 12.7298 4.22687L12.7298 4.22687L11.1592 5.83521L11.1528 5.84233L11.1517 5.8435L11.1517 5.84347L5.06119 11.7962L5.06118 11.7962M11.2753 1.2775L4.65053 12.0139C4.79778 11.9679 4.93244 11.8872 5.0437 11.7783L5.06118 11.7962M11.2753 1.2775C11.086 1.08388 10.8294 0.975 10.5616 0.975C10.2938 0.975 10.0372 1.08388 9.84793 1.2775L9.86581 1.29497L9.84793 1.2775L8.28072 2.88176L8.28031 2.88217L2.20373 8.82178M11.2753 1.2775L2.20373 8.82178M5.06118 11.7962C4.94712 11.9078 4.80903 11.9906 4.65798 12.0377L4.65797 12.0377L1.55141 13.0054L1.55137 13.0054C1.47389 13.0294 1.39148 13.0314 1.31296 13.0112C1.23444 12.991 1.16281 12.9495 1.10567 12.8909C1.04854 12.8324 1.00803 12.7592 0.988404 12.6791C0.968774 12.599 0.970736 12.5149 0.994087 12.4359L0.994098 12.4358L1.93512 9.26799L1.93512 9.26797C1.98568 9.09813 2.07817 8.94444 2.20373 8.82178M5.06118 11.7962L2.20373 8.82178M2.20373 8.82178L2.2212 8.83967L2.20372 8.82179L2.20373 8.82178ZM2.09259 11.8816L2.79018 9.53399C2.79018 9.53399 2.79018 9.53399 2.79019 9.53399C2.79609 9.51431 2.80684 9.4966 2.82133 9.48254L2.8214 9.48248L8.58577 3.84792L10.204 5.50494L4.4435 11.1355L4.44341 11.1356C4.43034 11.1485 4.41453 11.158 4.39729 11.1635L2.09259 11.8816ZM2.09259 11.8816L4.39721 11.1635L2.09259 11.8816ZM12.0978 3.58198L10.8428 4.86652L9.22466 3.20894L10.4799 1.92355L10.4799 1.92353C10.4907 1.91247 10.5035 1.90373 10.5175 1.89778C10.5315 1.89183 10.5465 1.88878 10.5616 1.88878C10.5767 1.88878 10.5917 1.89183 10.6057 1.89778C10.6197 1.90373 10.6325 1.91247 10.6432 1.92353L10.6433 1.92355L12.0978 3.41302L12.0979 3.41304C12.1086 3.42407 12.1172 3.4372 12.1231 3.4517C12.129 3.4662 12.132 3.48177 12.132 3.4975C12.132 3.51323 12.129 3.5288 12.1231 3.5433C12.1172 3.5578 12.1086 3.57093 12.0979 3.58196L12.0978 3.58198Z" fill="#202020" stroke="#202020" stroke-width="0.05"/>
</svg>
