<svg width="64" height="64" viewBox="0 0 64 64" fill="none" xmlns="http://www.w3.org/2000/svg">
<rect width="64" height="64" fill="white"/>
<path d="M23.3455 52.632V45.504H22.5615V48.336H21.8015V45.648H21.0335V52.288H21.8015V49.024H22.5615V52.632H23.3455ZM20.5775 49.84C20.1135 49.976 19.2095 50.048 18.4975 50.048V46.352H17.6815V50.728H18.3855C19.2415 50.72 20.2095 50.624 20.6895 50.504L20.5775 49.84ZM32.3769 52.632V45.504H31.5929V52.632H32.3769ZM30.9689 52.296V45.648H30.2009V48.368H29.2489V49.04H30.2009V52.296H30.9689ZM29.3769 46.36H26.6489V47.032H28.5689C28.4809 48.504 27.6569 49.792 26.2409 50.632L26.7849 51.192C28.4969 50.064 29.3609 48.536 29.3769 46.36ZM39.1628 52.632V45.504H38.3468V52.632H39.1628ZM37.6348 50.368C36.5948 49.712 35.9308 48.608 35.9308 47.24V46.12H35.0828V47.288C35.0828 48.648 34.3788 49.824 33.2748 50.544L33.7788 51.144C34.5628 50.672 35.2748 49.776 35.5148 48.928C35.7788 49.712 36.5388 50.592 37.1468 50.984L37.6348 50.368ZM46.0687 52.584V51.928H41.8607V51.416H45.7967V49.672H43.8287V49.08H46.6527V48.416H40.2127V49.08H43.0127V49.672H41.0047V50.336H44.9807V50.8H41.0367V52.584H46.0687ZM45.7967 47.912V45.696H41.0687V47.912H45.7967ZM44.9727 47.256H41.8927V46.36H44.9727V47.256Z" fill="black"/>
<path fill-rule="evenodd" clip-rule="evenodd" d="M40.6136 13.1699C40.2909 13.1699 39.9815 13.298 39.7534 13.5262L29.6591 23.6205L29.0856 25.9144L31.3795 25.3409L41.4738 15.2466C41.702 15.0185 41.8301 14.7091 41.8301 14.3864C41.8301 14.0638 41.702 13.7543 41.4738 13.5262C41.2457 13.298 40.9362 13.1699 40.6136 13.1699ZM38.219 11.9919C38.8541 11.3568 39.7155 11 40.6136 11C41.5117 11 42.3731 11.3568 43.0081 11.9919C43.6432 12.6269 44 13.4883 44 14.3864C44 15.2845 43.6432 16.1459 43.0081 16.7809L32.7013 27.0877C32.5623 27.2268 32.3881 27.3254 32.1973 27.3731L27.8576 28.458C27.4879 28.5505 27.0968 28.4421 26.8273 28.1727C26.5578 27.9032 26.4495 27.5121 26.542 27.1424L27.6269 22.8027C27.6746 22.6119 27.7732 22.4377 27.9123 22.2987L38.219 11.9919ZM20.9533 14.2548C21.5637 13.6444 22.3916 13.3015 23.2548 13.3015H30.8493C31.4484 13.3015 31.9342 13.7872 31.9342 14.3864C31.9342 14.9856 31.4484 15.4713 30.8493 15.4713H23.2548C22.967 15.4713 22.6911 15.5856 22.4876 15.7891C22.2842 15.9926 22.1699 16.2685 22.1699 16.5563V31.7452C22.1699 32.033 22.2842 32.3089 22.4876 32.5124C22.6911 32.7158 22.967 32.8301 23.2548 32.8301H38.4437C38.7315 32.8301 39.0074 32.7158 39.2109 32.5124C39.4144 32.3089 39.5287 32.033 39.5287 31.7452V24.1507C39.5287 23.5515 40.0144 23.0658 40.6136 23.0658C41.2128 23.0658 41.6985 23.5515 41.6985 24.1507V31.7452C41.6985 32.6084 41.3556 33.4363 40.7452 34.0467C40.1348 34.6571 39.307 35 38.4437 35H23.2548C22.3916 35 21.5637 34.6571 20.9533 34.0467C20.3429 33.4363 20 32.6084 20 31.7452V16.5563C20 15.693 20.3429 14.8652 20.9533 14.2548Z" fill="black"/>
</svg>
