<svg width="64" height="64" viewBox="0 0 64 64" fill="none" xmlns="http://www.w3.org/2000/svg">
<rect width="64" height="64" fill="white"/>
<path d="M27.3064 52.632V45.504H26.5224V48.336H25.7624V45.648H24.9944V52.288H25.7624V49.024H26.5224V52.632H27.3064ZM24.5384 49.84C24.0744 49.976 23.1704 50.048 22.4584 50.048V46.352H21.6424V50.728H22.3464C23.2024 50.72 24.1704 50.624 24.6504 50.504L24.5384 49.84ZM34.7218 50.072C33.8018 50.248 32.4018 50.296 31.5538 50.296V48.752H33.9698V46.128H30.7058V46.784H33.1538V48.096H30.7378V50.976L31.6178 50.968C32.9058 50.96 34.0258 50.888 34.8098 50.744L34.7218 50.072ZM36.1938 52.632V45.504H35.3778V52.632H36.1938ZM42.8757 48.72V45.76H42.0597V46.616H38.8837V45.776H38.0677V48.72H42.8757ZM39.6357 52.64V50.216H41.2757V52.64H42.0917V50.216H43.6917V49.552H37.2517V50.216H38.8197V52.64H39.6357ZM42.0597 48.056H38.8837V47.272H42.0597V48.056Z" fill="black"/>
<path fill-rule="evenodd" clip-rule="evenodd" d="M24.45 14.3C24.145 14.3 23.8525 14.4212 23.6368 14.6368C23.4212 14.8525 23.3 15.145 23.3 15.45V31.0736L25.9368 28.4368C26.1525 28.2211 26.445 28.1 26.75 28.1H40.55C40.855 28.1 41.1475 27.9788 41.3632 27.7631C41.5788 27.5475 41.7 27.255 41.7 26.95V15.45C41.7 15.145 41.5788 14.8525 41.3632 14.6368C41.1475 14.4212 40.855 14.3 40.55 14.3H24.45ZM22.0105 13.0105C22.6575 12.3635 23.535 12 24.45 12H40.55C41.465 12 42.3425 12.3635 42.9895 13.0105C43.6365 13.6575 44 14.535 44 15.45V26.95C44 27.865 43.6365 28.7425 42.9895 29.3895C42.3425 30.0365 41.465 30.4 40.55 30.4H27.2263L22.9632 34.6631C22.6343 34.992 22.1396 35.0904 21.7099 34.9124C21.2802 34.7344 21 34.3151 21 33.85V15.45C21 14.535 21.3635 13.6575 22.0105 13.0105Z" fill="black"/>
</svg>
