<svg width="64" height="64" viewBox="0 0 64 64" fill="none" xmlns="http://www.w3.org/2000/svg">
<rect width="64" height="64" fill="white"/>
<path d="M27.3064 52.632V45.504H26.5224V48.336H25.7624V45.648H24.9944V52.288H25.7624V49.024H26.5224V52.632H27.3064ZM24.5384 49.84C24.0744 49.976 23.1704 50.048 22.4584 50.048V46.352H21.6424V50.728H22.3464C23.2024 50.72 24.1704 50.624 24.6504 50.504L24.5384 49.84ZM36.0018 46.272H31.0898V46.92H35.1698L35.1538 47.944L30.8658 48.152L30.9698 48.8L35.1138 48.576C35.0738 49.144 35.0018 49.672 34.8898 50.16L35.6818 50.24C35.9618 48.936 36.0018 47.544 36.0018 46.272ZM36.7698 51.688V51.032H33.5378V49.384H32.7138V51.032H30.3298V51.688H36.7698ZM43.6917 51.688V51.032H37.2517V51.688H43.6917ZM43.5237 48.824C42.4517 48.632 40.9077 47.632 40.9077 46.408V45.936H40.0517V46.408C40.0517 47.64 38.5957 48.608 37.4357 48.792L37.8357 49.464C38.9157 49.2 40.1397 48.392 40.4677 47.512C40.8357 48.376 42.0437 49.184 43.0917 49.464L43.5237 48.824Z" fill="black"/>
<path d="M32.5 10C35.2848 10 37.9555 11.1414 39.9246 13.173C41.8938 15.2047 43 17.9602 43 20.8334C42.9558 22.914 42.404 24.9494 41.3956 26.7517C40.4603 28.467 39.3148 30.0509 37.9873 31.4642C36.4999 33.0835 34.8566 34.5424 33.0827 35.8182C32.9103 35.9367 32.7077 36 32.5005 36C32.2933 36 32.0907 35.9367 31.9183 35.8182C30.1445 34.5424 28.5012 33.0835 27.0138 31.4642C25.6863 30.0509 24.5408 28.467 23.6054 26.7517C22.5967 24.9495 22.0445 22.914 22 20.8334C22 17.9602 23.1062 15.2047 25.0754 13.173C27.0445 11.1414 29.7152 10 32.5 10ZM32.5 33.5854C34.495 32.0612 40.9 26.6986 40.9 20.8334C40.9001 19.1193 40.4074 17.4436 39.4844 16.0183C38.5614 14.593 37.2495 13.4821 35.7146 12.8261C34.1796 12.1701 32.4906 11.9985 30.8612 12.3329C29.2317 12.6673 27.7349 13.4928 26.5601 14.705C25.7777 15.5079 25.1574 16.463 24.7351 17.5149C24.3128 18.5669 24.097 19.6948 24.1 20.8334C24.1 26.6975 30.505 32.0601 32.5 33.5854Z" fill="black"/>
<path d="M32.5 25.1668C31.6693 25.1668 30.8573 24.9126 30.1666 24.4365C29.4759 23.9603 28.9376 23.2835 28.6197 22.4917C28.3018 21.6999 28.2186 20.8286 28.3807 19.988C28.5428 19.1474 28.9428 18.3753 29.5302 17.7693C30.1175 17.1632 30.8659 16.7505 31.6806 16.5833C32.4953 16.4161 33.3398 16.5019 34.1073 16.8299C34.8747 17.1579 35.5307 17.7133 35.9922 18.4259C36.4537 19.1385 36.7 19.9764 36.7 20.8334C36.7 21.9827 36.2575 23.0849 35.4698 23.8976C34.6822 24.7102 33.6139 25.1668 32.5 25.1668ZM32.5 18.6667C32.0847 18.6667 31.6786 18.7938 31.3333 19.0319C30.988 19.27 30.7188 19.6084 30.5599 20.0043C30.4009 20.4002 30.3593 20.8358 30.4404 21.2561C30.5214 21.6764 30.7214 22.0625 31.0151 22.3655C31.3088 22.6685 31.683 22.8749 32.0903 22.9585C32.4977 23.0421 32.9199 22.9992 33.3036 22.8352C33.6874 22.6712 34.0153 22.3935 34.2461 22.0372C34.4768 21.6809 34.6 21.2619 34.6 20.8334C34.6 20.2588 34.3787 19.7077 33.9849 19.3013C33.5911 18.895 33.057 18.6667 32.5 18.6667Z" fill="black"/>
</svg>
