<svg width="64" height="64" viewBox="0 0 64 64" fill="none" xmlns="http://www.w3.org/2000/svg">
<rect width="64" height="64" fill="white"/>
<path fill-rule="evenodd" clip-rule="evenodd" d="M27 14.2C26.7348 14.2 26.4804 14.3159 26.2929 14.5222C26.1054 14.7285 26 15.0083 26 15.3V30.7625L31.4188 26.5049C31.7665 26.2317 32.2335 26.2317 32.5812 26.5049L38 30.7625V15.3C38 15.0083 37.8946 14.7285 37.7071 14.5222C37.5196 14.3159 37.2652 14.2 37 14.2H27ZM24.8787 12.9665C25.4413 12.3477 26.2044 12 27 12H37C37.7956 12 38.5587 12.3477 39.1213 12.9665C39.6839 13.5854 40 14.4248 40 15.3V32.9C40 33.312 39.7907 33.6895 39.4576 33.8781C39.1245 34.0666 38.7236 34.0346 38.4188 33.7951L32 28.7518L25.5812 33.7951C25.2764 34.0346 24.8755 34.0666 24.5424 33.8781C24.2093 33.6895 24 33.312 24 32.9V15.3C24 14.4248 24.3161 13.5854 24.8787 12.9665Z" fill="black"/>
<path d="M26.7092 46.528C25.6772 45.944 24.9252 44.904 24.9252 43.456V42.912H26.3652V42.248H22.5732V42.912H24.0612V43.456C24.0612 44.888 23.3572 46.04 22.2212 46.672L22.7412 47.272C23.5972 46.8 24.3092 45.864 24.4932 45.104C24.7252 45.84 25.5652 46.752 26.2452 47.128L26.7092 46.528ZM28.2292 48.632V41.504H27.4132V44.016H26.1252V44.696H27.4132V48.632H28.2292ZM34.9111 47.224C34.9111 46.36 34.0151 45.808 32.4871 45.808C30.9671 45.808 30.0791 46.36 30.0791 47.224C30.0791 48.072 30.9671 48.632 32.4871 48.632C34.0151 48.632 34.9111 48.072 34.9111 47.224ZM29.3671 42.64H30.8551V42.696C30.8551 43.752 30.1031 44.608 29.1031 44.976L29.5831 45.616C30.3031 45.344 31.0631 44.648 31.2711 43.952C31.5831 44.616 32.2631 45.176 32.8631 45.416L33.3111 44.768C32.4871 44.504 31.6951 43.712 31.6951 42.664V42.64H33.1191V41.96H29.3671V42.64ZM35.8711 43.944V43.264H34.8151V41.504H33.9911V45.72H34.8151V43.944H35.8711ZM34.0711 47.224C34.0711 47.688 33.4871 47.968 32.4871 47.968C31.4951 47.968 30.9191 47.688 30.9191 47.224C30.9191 46.744 31.4951 46.472 32.4871 46.472C33.4871 46.472 34.0711 46.744 34.0711 47.224ZM40.2729 43.408V42.76H36.1449V43.408H40.2729ZM39.8969 44.92C39.8969 44.184 39.1769 43.68 38.2249 43.68C37.2569 43.68 36.5369 44.184 36.5369 44.92C36.5369 45.672 37.2649 46.16 38.2249 46.16C39.1769 46.16 39.8969 45.672 39.8969 44.92ZM39.1129 44.92C39.1129 45.304 38.7049 45.528 38.2249 45.528C37.7209 45.528 37.3209 45.304 37.3209 44.92C37.3209 44.544 37.7209 44.304 38.2249 44.304C38.7049 44.304 39.1129 44.544 39.1129 44.92ZM37.1769 42.32H39.2649V41.664H37.1769V42.32ZM41.7369 41.504H40.9129V46.776H41.7369V44.416H42.7929V43.736H41.7369V41.504ZM41.9449 48.44V47.784H38.0009V46.528H37.1769V48.44H41.9449ZM23.1337 56.224C23.1337 55.36 22.2377 54.808 20.7097 54.808C19.1897 54.808 18.3017 55.36 18.3017 56.224C18.3017 57.072 19.1897 57.632 20.7097 57.632C22.2377 57.632 23.1337 57.072 23.1337 56.224ZM17.5897 51.64H19.0777V51.696C19.0777 52.752 18.3257 53.608 17.3257 53.976L17.8057 54.616C18.5257 54.344 19.2857 53.648 19.4937 52.952C19.8057 53.616 20.4857 54.176 21.0857 54.416L21.5337 53.768C20.7097 53.504 19.9177 52.712 19.9177 51.664V51.64H21.3417V50.96H17.5897V51.64ZM24.0937 52.944V52.264H23.0377V50.504H22.2137V54.72H23.0377V52.944H24.0937ZM22.2937 56.224C22.2937 56.688 21.7097 56.968 20.7097 56.968C19.7177 56.968 19.1417 56.688 19.1417 56.224C19.1417 55.744 19.7177 55.472 20.7097 55.472C21.7097 55.472 22.2937 55.744 22.2937 56.224ZM30.6556 53.736C29.5836 53.536 28.0796 52.544 28.0796 51.336V50.912H27.2236V51.336C27.2236 52.56 25.8156 53.52 24.6476 53.704L25.0476 54.368C26.1276 54.112 27.3116 53.296 27.6396 52.408C28.0076 53.288 29.1676 54.096 30.2316 54.368L30.6556 53.736ZM30.8636 56.736V56.072H28.0396V54.32H27.2236V56.072H24.4236V56.736H30.8636ZM31.1295 57.496H31.8335L33.7375 50.712H33.0335L31.1295 57.496ZM39.8065 51.272H34.8945V51.92H38.9745L38.9585 52.944L34.6705 53.152L34.7745 53.8L38.9185 53.576C38.8785 54.144 38.8065 54.672 38.6945 55.16L39.4865 55.24C39.7665 53.936 39.8065 52.544 39.8065 51.272ZM40.5745 56.688V56.032H37.3425V54.384H36.5185V56.032H34.1345V56.688H40.5745ZM47.4964 56.688V56.032H41.0564V56.688H47.4964ZM47.3284 53.824C46.2564 53.632 44.7124 52.632 44.7124 51.408V50.936H43.8564V51.408C43.8564 52.64 42.4004 53.608 41.2404 53.792L41.6404 54.464C42.7204 54.2 43.9444 53.392 44.2724 52.512C44.6404 53.376 45.8484 54.184 46.8964 54.464L47.3284 53.824Z" fill="black"/>
</svg>
