<svg width="72" height="72" viewBox="0 0 72 72" fill="none" xmlns="http://www.w3.org/2000/svg">
<g filter="url(#filter0_d_2_520)">
<rect x="4" width="64" height="64" fill="white"/>
<path d="M32.4852 43.44C31.5732 43.392 30.4372 43.064 30.1012 42.384H32.1652V41.768H26.9972V42.384H29.0772C28.7892 43.072 27.7412 43.4 26.6772 43.464L27.0212 44.088C28.1812 43.976 29.2452 43.584 29.5812 42.92C29.9732 43.552 31.0612 43.992 32.1332 44.072L32.4852 43.44ZM31.6692 47.824C31.6692 47.336 31.1252 46.952 29.5812 46.952C28.0212 46.952 27.4932 47.336 27.4932 47.824C27.4932 48.312 28.0212 48.696 29.5812 48.696C31.1252 48.696 31.6692 48.312 31.6692 47.824ZM32.7972 45.008V44.368H29.9732V43.616H29.1572V44.368H26.3572V45.008H32.7972ZM32.1972 46.76V46.144H26.9732V46.76H32.1972ZM30.7332 45.912V45.272H28.4372V45.912H30.7332ZM30.8612 47.824C30.8612 48.048 30.3972 48.128 29.5812 48.128C28.7572 48.128 28.3092 48.048 28.3092 47.824C28.3092 47.592 28.7572 47.52 29.5812 47.52C30.3972 47.52 30.8612 47.592 30.8612 47.824ZM38.8151 41.504H37.9911V48.632H38.8151V44.968H39.9191V44.288H38.8151V41.504ZM33.3591 44.552C33.3591 46.056 34.0391 47.048 35.1831 47.048C36.3271 47.048 36.9911 46.056 36.9911 44.56C36.9911 43.048 36.3271 42.056 35.1831 42.056C34.0391 42.056 33.3591 43.048 33.3591 44.552ZM36.2151 44.552C36.2151 45.696 35.7911 46.384 35.1831 46.384C34.5831 46.384 34.1671 45.696 34.1671 44.552C34.1671 43.408 34.5831 42.728 35.1831 42.728C35.7911 42.728 36.2151 43.408 36.2151 44.552ZM46.0089 43.816C46.0089 42.744 44.9849 41.984 43.4169 41.984C41.8729 41.984 40.8409 42.744 40.8409 43.816C40.8409 44.896 41.8729 45.648 43.4169 45.648C44.9849 45.648 46.0089 44.896 46.0089 43.816ZM45.1689 43.816C45.1689 44.504 44.4729 44.968 43.4169 44.968C42.3689 44.968 41.6729 44.504 41.6729 43.816C41.6729 43.128 42.3689 42.664 43.4169 42.664C44.4809 42.664 45.1689 43.128 45.1689 43.816ZM46.6409 47.728V47.072H45.1209V45.832L44.2969 45.824V47.072H42.5209V45.824L41.6889 45.832V47.072H40.2009V47.728H46.6409ZM22.0005 57.64V55.104H24.8245V54.448H18.3845V55.104H21.1845V57.64H22.0005ZM24.0245 53.432V52.768H20.0405V50.824H19.2165V53.432H24.0245ZM31.7464 55.144V54.48H25.3064V55.144H31.7464ZM31.0664 53.904V53.28H26.9784V52.624H30.8824V50.76H26.1304V51.392H30.0584V52.032H26.1544V53.904H31.0664ZM30.9944 57.432V56.776H26.9544V55.544H26.1304V57.432H30.9944ZM40.3378 57.632V50.504H39.5538V57.632H40.3378ZM38.9298 57.296V50.648H38.1618V53.368H37.2098V54.04H38.1618V57.296H38.9298ZM37.3378 51.36H34.6098V52.032H36.5298C36.4418 53.504 35.6178 54.792 34.2018 55.632L34.7458 56.192C36.4578 55.064 37.3218 53.536 37.3378 51.36ZM47.1237 57.632V50.504H46.3077V57.632H47.1237ZM45.5957 55.368C44.5557 54.712 43.8917 53.608 43.8917 52.24V51.12H43.0437V52.288C43.0437 53.648 42.3397 54.824 41.2357 55.544L41.7397 56.144C42.5237 55.672 43.2357 54.776 43.4757 53.928C43.7397 54.712 44.4997 55.592 45.1077 55.984L45.5957 55.368ZM54.0296 57.584V56.928H49.8216V56.416H53.7576V54.672H51.7896V54.08H54.6136V53.416H48.1736V54.08H50.9736V54.672H48.9656V55.336H52.9416V55.8H48.9976V57.584H54.0296ZM53.7576 52.912V50.696H49.0296V52.912H53.7576ZM52.9336 52.256H49.8536V51.36H52.9336V52.256Z" fill="black"/>
<path fill-rule="evenodd" clip-rule="evenodd" d="M38.5795 13.4894C39.4061 13.1663 40.292 13 41.1868 13C42.0815 13 42.9675 13.1663 43.7941 13.4894C44.6205 13.8124 45.3714 14.2859 46.0039 14.8827C46.6365 15.4794 47.1388 16.1881 47.4812 16.9677C47.8237 17.7475 48 18.5833 48 19.4273C48 20.2714 47.8237 21.1072 47.4812 21.887C47.1387 22.6667 46.6368 23.3751 46.0041 23.9718L36.7407 32.7105C36.3315 33.0965 35.668 33.0965 35.2587 32.7105L25.9954 23.9718C24.7178 22.7665 24 21.1318 24 19.4273C24 17.7228 24.7178 16.0882 25.9954 14.8829C27.273 13.6776 29.0058 13.0005 30.8127 13.0005C32.6195 13.0005 34.3523 13.6776 35.6299 14.8829L35.9997 15.2317L36.3693 14.8831C37.0018 14.2862 37.753 13.8125 38.5795 13.4894ZM41.1868 14.9771C40.5674 14.9771 39.954 15.0922 39.3817 15.3159C38.8095 15.5396 38.2895 15.8674 37.8516 16.2807L36.7407 17.3288C36.3315 17.7148 35.668 17.7148 35.2587 17.3288L34.148 16.2809C33.2634 15.4464 32.0636 14.9776 30.8127 14.9776C29.5617 14.9776 28.3619 15.4464 27.4773 16.2809C26.5927 17.1154 26.0958 18.2472 26.0958 19.4273C26.0958 20.6075 26.5927 21.7393 27.4773 22.5737L35.9997 30.6134L44.5221 22.5737C44.9602 22.1606 45.3079 21.67 45.5451 21.1301C45.7822 20.5903 45.9042 20.0117 45.9042 19.4273C45.9042 18.843 45.7822 18.2643 45.5451 17.7245C45.3079 17.1847 44.9604 16.6942 44.5223 16.2811C44.0844 15.8678 43.5641 15.5396 42.9918 15.3159C42.4196 15.0922 41.8062 14.9771 41.1868 14.9771Z" fill="black"/>
</g>
<defs>
<filter id="filter0_d_2_520" x="0" y="0" width="72" height="72" filterUnits="userSpaceOnUse" color-interpolation-filters="sRGB">
<feFlood flood-opacity="0" result="BackgroundImageFix"/>
<feColorMatrix in="SourceAlpha" type="matrix" values="0 0 0 0 0 0 0 0 0 0 0 0 0 0 0 0 0 0 127 0" result="hardAlpha"/>
<feOffset dy="4"/>
<feGaussianBlur stdDeviation="2"/>
<feComposite in2="hardAlpha" operator="out"/>
<feColorMatrix type="matrix" values="0 0 0 0 0 0 0 0 0 0 0 0 0 0 0 0 0 0 0.25 0"/>
<feBlend mode="normal" in2="BackgroundImageFix" result="effect1_dropShadow_2_520"/>
<feBlend mode="normal" in="SourceGraphic" in2="effect1_dropShadow_2_520" result="shape"/>
</filter>
</defs>
</svg>
